<svg width="89" height="40" viewBox="0 0 89 40" fill="none" xmlns="http://www.w3.org/2000/svg">
<path opacity="0.35" d="M20.625 20V7.5C27.5287 7.5 33.125 13.0963 33.125 20H20.625Z" fill="#DAE8E8"/>
<path opacity="0.7" d="M20.625 20L26.875 30.825C28.7743 29.727 30.3516 28.1488 31.4486 26.2489C32.5455 24.3489 33.1237 22.1939 33.125 20H20.625Z" fill="#DAE8E8"/>
<path d="M26.8749 30.825L20.6249 20V7.5C13.7212 7.5025 8.12616 13.1 8.12866 20.0038C8.13116 26.9075 13.7287 32.5025 20.6337 32.5C22.8247 32.4991 24.977 31.9224 26.8749 30.8275L26.8787 30.8212L26.8749 30.825Z" fill="#DAE8E8"/>
<path d="M50.673 25.692C49.553 25.692 48.593 25.4947 47.793 25.1C47.0037 24.7053 46.3957 24.092 45.969 23.26C45.553 22.4173 45.345 21.3347 45.345 20.012C45.345 18.0813 45.8143 16.652 46.753 15.724C47.6917 14.796 48.9983 14.332 50.673 14.332C51.5797 14.332 52.3957 14.4867 53.121 14.796C53.857 15.1053 54.4383 15.5747 54.865 16.204C55.3023 16.8227 55.521 17.612 55.521 18.572H53.393C53.393 18.0387 53.2757 17.5907 53.041 17.228C52.817 16.8547 52.5023 16.572 52.097 16.38C51.6917 16.188 51.2277 16.092 50.705 16.092C49.9797 16.092 49.377 16.236 48.897 16.524C48.417 16.8013 48.0597 17.2173 47.825 17.772C47.601 18.3267 47.489 19.0147 47.489 19.836V20.188C47.489 21.02 47.601 21.7133 47.825 22.268C48.0597 22.8227 48.4117 23.2387 48.881 23.516C49.361 23.7933 49.969 23.932 50.705 23.932C51.2597 23.932 51.745 23.8413 52.161 23.66C52.577 23.468 52.897 23.1907 53.121 22.828C53.3557 22.4547 53.473 22.0013 53.473 21.468H55.521C55.521 22.428 55.3077 23.2227 54.881 23.852C54.4543 24.4707 53.873 24.9347 53.137 25.244C52.4117 25.5427 51.5903 25.692 50.673 25.692ZM57.0523 25.5V14.524H64.9403V16.3H59.1323V19.244H64.3643V21.02H59.1323V25.5H57.0523ZM71.5223 25.692C70.3809 25.692 69.3943 25.4893 68.5623 25.084C67.7303 24.668 67.0903 24.0387 66.6423 23.196C66.2049 22.3533 65.9863 21.292 65.9863 20.012C65.9863 18.7213 66.2049 17.66 66.6423 16.828C67.0903 15.9853 67.7303 15.3613 68.5623 14.956C69.3943 14.54 70.3809 14.332 71.5223 14.332C72.6743 14.332 73.6609 14.54 74.4823 14.956C75.3143 15.3613 75.9489 15.9853 76.3863 16.828C76.8343 17.66 77.0583 18.7213 77.0583 20.012C77.0583 21.292 76.8343 22.3533 76.3863 23.196C75.9489 24.0387 75.3143 24.668 74.4823 25.084C73.6609 25.4893 72.6743 25.692 71.5223 25.692ZM71.5223 23.932C72.0769 23.932 72.5623 23.852 72.9783 23.692C73.4049 23.532 73.7623 23.2973 74.0503 22.988C74.3383 22.668 74.5569 22.2787 74.7063 21.82C74.8556 21.3507 74.9303 20.812 74.9303 20.204V19.852C74.9303 19.2333 74.8556 18.6893 74.7063 18.22C74.5569 17.7507 74.3383 17.3613 74.0503 17.052C73.7623 16.732 73.4049 16.492 72.9783 16.332C72.5623 16.172 72.0769 16.092 71.5223 16.092C70.9676 16.092 70.4769 16.172 70.0503 16.332C69.6343 16.492 69.2823 16.732 68.9943 17.052C68.7063 17.3613 68.4876 17.7507 68.3383 18.22C68.1996 18.6893 68.1303 19.2333 68.1303 19.852V20.204C68.1303 20.812 68.1996 21.3507 68.3383 21.82C68.4876 22.2787 68.7063 22.668 68.9943 22.988C69.2823 23.2973 69.6343 23.532 70.0503 23.692C70.4769 23.852 70.9676 23.932 71.5223 23.932ZM82.7739 25.692C82.1659 25.692 81.5845 25.628 81.0299 25.5C80.4752 25.3613 79.9845 25.1533 79.5579 24.876C79.1312 24.588 78.7952 24.236 78.5499 23.82C78.3045 23.3933 78.1819 22.892 78.1819 22.316C78.1819 22.252 78.1819 22.188 78.1819 22.124C78.1925 22.06 78.1979 22.012 78.1979 21.98H80.2939C80.2939 22.0013 80.2885 22.044 80.2779 22.108C80.2779 22.1613 80.2779 22.2093 80.2779 22.252C80.2779 22.604 80.3792 22.908 80.5819 23.164C80.7845 23.4093 81.0779 23.6013 81.4619 23.74C81.8459 23.868 82.2992 23.932 82.8219 23.932C83.1739 23.932 83.4832 23.9107 83.7499 23.868C84.0272 23.8253 84.2619 23.7667 84.4539 23.692C84.6565 23.6067 84.8219 23.5107 84.9499 23.404C85.0779 23.2867 85.1685 23.1587 85.2219 23.02C85.2859 22.8813 85.3179 22.732 85.3179 22.572C85.3179 22.2627 85.2219 22.0067 85.0299 21.804C84.8379 21.6013 84.5765 21.4307 84.2459 21.292C83.9259 21.1533 83.5579 21.0307 83.1419 20.924C82.7365 20.8067 82.3152 20.6893 81.8779 20.572C81.4512 20.4547 81.0299 20.316 80.6139 20.156C80.2085 19.9853 79.8405 19.7827 79.5099 19.548C79.1899 19.3133 78.9339 19.02 78.7419 18.668C78.5499 18.3053 78.4539 17.8733 78.4539 17.372C78.4539 16.86 78.5605 16.412 78.7739 16.028C78.9979 15.644 79.3072 15.3293 79.7019 15.084C80.1072 14.828 80.5765 14.6413 81.1099 14.524C81.6432 14.396 82.2245 14.332 82.8539 14.332C83.4405 14.332 83.9899 14.396 84.5019 14.524C85.0245 14.6413 85.4832 14.8333 85.8779 15.1C86.2725 15.356 86.5819 15.6867 86.8059 16.092C87.0299 16.4867 87.1419 16.9613 87.1419 17.516V17.708H85.0779V17.548C85.0779 17.2387 84.9819 16.9773 84.7899 16.764C84.6085 16.5507 84.3472 16.3853 84.0059 16.268C83.6752 16.1507 83.2859 16.092 82.8379 16.092C82.3579 16.092 81.9472 16.14 81.6059 16.236C81.2645 16.3213 81.0032 16.4547 80.8219 16.636C80.6405 16.8067 80.5499 17.02 80.5499 17.276C80.5499 17.5427 80.6459 17.7667 80.8379 17.948C81.0299 18.1293 81.2859 18.284 81.6059 18.412C81.9365 18.54 82.3045 18.6573 82.7099 18.764C83.1259 18.8707 83.5472 18.988 83.9739 19.116C84.4112 19.2333 84.8325 19.372 85.2379 19.532C85.6539 19.692 86.0219 19.8947 86.3419 20.14C86.6725 20.3747 86.9339 20.668 87.1259 21.02C87.3179 21.372 87.4139 21.7933 87.4139 22.284C87.4139 23.1053 87.2112 23.7667 86.8059 24.268C86.4112 24.7693 85.8619 25.132 85.1579 25.356C84.4645 25.58 83.6699 25.692 82.7739 25.692Z" fill="#DAE8E8"/>
</svg>
