<svg width="116" height="40" viewBox="0 0 116 40" fill="none" xmlns="http://www.w3.org/2000/svg">
<path opacity="0.3" d="M27.9888 17.4612C30.125 17.4612 32.5416 19.1929 32.5416 21.329V28.0978C32.5416 30.234 32.0178 30.9583 30.5069 30.9583C28.996 30.9583 27.9888 29.951 27.9888 28.0978C27.9888 26.2445 27.9888 17.4612 27.9888 17.4612Z" fill="white"/>
<path fill-rule="evenodd" clip-rule="evenodd" d="M13.3669 7.79175C11.4292 7.79175 9.8584 9.52345 9.8584 11.6596V25.9223C9.8584 28.0585 12.1609 30.9586 14.4451 30.9586H30.5071C29.4998 30.9586 27.989 30.4549 27.989 27.9368V11.8208C27.989 9.6846 25.8459 7.79175 23.9082 7.79175H13.3669ZM18.3481 12.828H19.4993V15.2454H22.9527V16.4541H16.0458V18.2672H22.9527V21.2889V22.4976H19.4993V24.9151H18.3481V22.4976H14.8947V21.2889H21.8015V19.4759H14.8947V18.2672V15.2454H18.3481V12.828Z" fill="white"/>
<path d="M50.187 25.692C49.579 25.692 48.9977 25.628 48.443 25.5C47.8883 25.3613 47.3977 25.1533 46.971 24.876C46.5443 24.588 46.2083 24.236 45.963 23.82C45.7177 23.3933 45.595 22.892 45.595 22.316C45.595 22.252 45.595 22.188 45.595 22.124C45.6057 22.06 45.611 22.012 45.611 21.98H47.707C47.707 22.0013 47.7017 22.044 47.691 22.108C47.691 22.1613 47.691 22.2093 47.691 22.252C47.691 22.604 47.7923 22.908 47.995 23.164C48.1977 23.4093 48.491 23.6013 48.875 23.74C49.259 23.868 49.7123 23.932 50.235 23.932C50.587 23.932 50.8963 23.9107 51.163 23.868C51.4403 23.8253 51.675 23.7667 51.867 23.692C52.0697 23.6067 52.235 23.5107 52.363 23.404C52.491 23.2867 52.5817 23.1587 52.635 23.02C52.699 22.8813 52.731 22.732 52.731 22.572C52.731 22.2627 52.635 22.0067 52.443 21.804C52.251 21.6013 51.9897 21.4307 51.659 21.292C51.339 21.1533 50.971 21.0307 50.555 20.924C50.1497 20.8067 49.7283 20.6893 49.291 20.572C48.8643 20.4547 48.443 20.316 48.027 20.156C47.6217 19.9853 47.2537 19.7827 46.923 19.548C46.603 19.3133 46.347 19.02 46.155 18.668C45.963 18.3053 45.867 17.8733 45.867 17.372C45.867 16.86 45.9737 16.412 46.187 16.028C46.411 15.644 46.7203 15.3293 47.115 15.084C47.5203 14.828 47.9897 14.6413 48.523 14.524C49.0563 14.396 49.6377 14.332 50.267 14.332C50.8537 14.332 51.403 14.396 51.915 14.524C52.4377 14.6413 52.8963 14.8333 53.291 15.1C53.6857 15.356 53.995 15.6867 54.219 16.092C54.443 16.4867 54.555 16.9613 54.555 17.516V17.708H52.491V17.548C52.491 17.2387 52.395 16.9773 52.203 16.764C52.0217 16.5507 51.7603 16.3853 51.419 16.268C51.0883 16.1507 50.699 16.092 50.251 16.092C49.771 16.092 49.3603 16.14 49.019 16.236C48.6777 16.3213 48.4163 16.4547 48.235 16.636C48.0537 16.8067 47.963 17.02 47.963 17.276C47.963 17.5427 48.059 17.7667 48.251 17.948C48.443 18.1293 48.699 18.284 49.019 18.412C49.3497 18.54 49.7177 18.6573 50.123 18.764C50.539 18.8707 50.9603 18.988 51.387 19.116C51.8243 19.2333 52.2457 19.372 52.651 19.532C53.067 19.692 53.435 19.8947 53.755 20.14C54.0857 20.3747 54.347 20.668 54.539 21.02C54.731 21.372 54.827 21.7933 54.827 22.284C54.827 23.1053 54.6243 23.7667 54.219 24.268C53.8243 24.7693 53.275 25.132 52.571 25.356C51.8777 25.58 51.083 25.692 50.187 25.692ZM56.4429 25.5V14.524H65.0029V16.3H58.5229V19.004H64.2989V20.78H58.5229V23.724H65.0989V25.5H56.4429ZM66.8729 25.5V14.524H68.9529V23.692H74.4569V25.5H66.8729ZM75.6779 25.5V14.524H77.7579V23.692H83.2619V25.5H75.6779ZM84.4829 25.5V14.524H93.0429V16.3H86.5629V19.004H92.3389V20.78H86.5629V23.724H93.1389V25.5H84.4829ZM94.9129 25.5V14.524H100.689C101.5 14.524 102.172 14.6627 102.705 14.94C103.238 15.2173 103.638 15.612 103.905 16.124C104.172 16.636 104.305 17.2387 104.305 17.932C104.305 18.6467 104.145 19.2813 103.825 19.836C103.505 20.38 103.036 20.7907 102.417 21.068L104.689 25.5H102.417L100.401 21.42H96.9929V25.5H94.9129ZM96.9929 19.676H100.529C101.062 19.676 101.473 19.5213 101.761 19.212C102.049 18.9027 102.193 18.476 102.193 17.932C102.193 17.58 102.129 17.2867 102.001 17.052C101.873 16.8067 101.686 16.62 101.441 16.492C101.196 16.364 100.892 16.3 100.529 16.3H96.9929V19.676ZM110.158 25.692C109.55 25.692 108.968 25.628 108.414 25.5C107.859 25.3613 107.368 25.1533 106.942 24.876C106.515 24.588 106.179 24.236 105.934 23.82C105.688 23.3933 105.566 22.892 105.566 22.316C105.566 22.252 105.566 22.188 105.566 22.124C105.576 22.06 105.582 22.012 105.582 21.98H107.678C107.678 22.0013 107.672 22.044 107.662 22.108C107.662 22.1613 107.662 22.2093 107.662 22.252C107.662 22.604 107.763 22.908 107.966 23.164C108.168 23.4093 108.462 23.6013 108.846 23.74C109.23 23.868 109.683 23.932 110.206 23.932C110.558 23.932 110.867 23.9107 111.134 23.868C111.411 23.8253 111.646 23.7667 111.838 23.692C112.04 23.6067 112.206 23.5107 112.334 23.404C112.462 23.2867 112.552 23.1587 112.606 23.02C112.67 22.8813 112.702 22.732 112.702 22.572C112.702 22.2627 112.606 22.0067 112.414 21.804C112.222 21.6013 111.96 21.4307 111.63 21.292C111.31 21.1533 110.942 21.0307 110.526 20.924C110.12 20.8067 109.699 20.6893 109.262 20.572C108.835 20.4547 108.414 20.316 107.998 20.156C107.592 19.9853 107.224 19.7827 106.894 19.548C106.574 19.3133 106.318 19.02 106.126 18.668C105.934 18.3053 105.838 17.8733 105.838 17.372C105.838 16.86 105.944 16.412 106.158 16.028C106.382 15.644 106.691 15.3293 107.086 15.084C107.491 14.828 107.96 14.6413 108.494 14.524C109.027 14.396 109.608 14.332 110.238 14.332C110.824 14.332 111.374 14.396 111.886 14.524C112.408 14.6413 112.867 14.8333 113.262 15.1C113.656 15.356 113.966 15.6867 114.19 16.092C114.414 16.4867 114.526 16.9613 114.526 17.516V17.708H112.462V17.548C112.462 17.2387 112.366 16.9773 112.174 16.764C111.992 16.5507 111.731 16.3853 111.39 16.268C111.059 16.1507 110.67 16.092 110.222 16.092C109.742 16.092 109.331 16.14 108.99 16.236C108.648 16.3213 108.387 16.4547 108.206 16.636C108.024 16.8067 107.934 17.02 107.934 17.276C107.934 17.5427 108.03 17.7667 108.222 17.948C108.414 18.1293 108.67 18.284 108.99 18.412C109.32 18.54 109.688 18.6573 110.094 18.764C110.51 18.8707 110.931 18.988 111.358 19.116C111.795 19.2333 112.216 19.372 112.622 19.532C113.038 19.692 113.406 19.8947 113.726 20.14C114.056 20.3747 114.318 20.668 114.51 21.02C114.702 21.372 114.798 21.7933 114.798 22.284C114.798 23.1053 114.595 23.7667 114.19 24.268C113.795 24.7693 113.246 25.132 112.542 25.356C111.848 25.58 111.054 25.692 110.158 25.692Z" fill="#DAE8E8"/>
</svg>
