<svg width="83" height="38" viewBox="0 0 83 38" fill="none" xmlns="http://www.w3.org/2000/svg">
<g clip-path="url(#clip0_12887_24851)">
<path d="M75.6093 15.332V23.3109H79.0544C79.0544 23.3109 80.868 23.3109 81.9334 22.2909C81.9334 22.2909 82.9761 21.2255 82.9761 19.2988C82.9761 19.2988 82.9761 17.4401 81.9334 16.3974C81.9334 16.3974 80.868 15.332 79.0544 15.332H75.6093ZM77.6946 17.1228H78.6692C78.6692 17.1228 80.868 17.1228 80.868 19.2988C80.868 19.2988 80.868 20.4775 80.3465 20.9989C80.3465 20.9989 79.8481 21.5202 78.6692 21.5202H77.6946V17.1228Z" fill="#66687C"/>
<path d="M73.8183 15.332H71.8692V20.2508H71.8465L69.0811 15.332H66.9504V23.3109H68.8998V18.3468H68.9221L71.6876 23.3109H73.8183V15.332Z" fill="#66687C"/>
<path d="M65.1161 15.332H63.0531V23.3109H65.1161V15.332Z" fill="#66687C"/>
<path d="M56.5251 18.3921V15.332H54.4625V23.3109H56.5251V20.8628L57.4092 19.9562L59.5627 23.3109H62.1237L58.8144 18.4828L61.7611 15.332H59.177L56.5251 18.3921Z" fill="#66687C"/>
<path d="M46.3453 15.332V23.3109H48.4311V20.4095H49.9949C49.9949 20.4095 51.0375 20.4095 51.1511 22.0415C51.1511 22.0415 51.2415 23.0616 51.4001 23.3109H53.4631C53.4631 23.3109 53.191 23.0389 53.1228 21.5202C53.1228 21.5202 52.9416 19.8428 51.9443 19.5935C51.9443 19.5935 53.2364 19.0948 53.2364 17.5988C53.2364 17.5988 53.2364 16.4654 52.3296 15.8534C52.3296 15.8534 51.5818 15.332 50.4255 15.332H46.3453ZM48.4311 17.0094H50.063C50.063 17.0094 51.1284 17.0094 51.1284 17.8708C51.1284 17.8708 51.1284 18.8002 50.1534 18.8002H48.4311V17.0094Z" fill="#66687C"/>
<path d="M44.6693 15.332H38.3225V23.3109H44.8052V21.5202H40.4079V20.0015H44.3291V18.3921H40.4079V17.0094H44.6693V15.332Z" fill="#66687C"/>
<path d="M29.844 15.332V23.3109H33.2669C33.2669 23.3109 35.1032 23.3109 36.1231 22.2909C36.1231 22.2909 37.1658 21.2255 37.1658 19.2988C37.1658 19.2988 37.1658 17.4401 36.1459 16.3974C36.1459 16.3974 35.1032 15.332 33.2669 15.332H29.844ZM31.9071 17.1228H32.9043C32.9043 17.1228 35.1032 17.1228 35.1032 19.2988C35.1032 19.2988 35.1032 20.4775 34.6044 20.9989C34.6044 20.9989 34.0828 21.5202 32.9043 21.5202H31.9071V17.1228Z" fill="#66687C"/>
<path d="M28.0313 15.332H26.0591V20.2508L23.2937 15.332H21.1629V23.3109H23.1124V18.3468L25.9005 23.3109H28.0313V15.332Z" fill="#66687C"/>
<path d="M19.1921 15.332H17.1294V20.1375C17.1294 20.1375 17.1294 21.7015 15.7238 21.7015C15.7238 21.7015 14.3186 21.7015 14.3186 20.1375V15.332H12.256V20.0242C12.256 20.0242 12.256 23.4923 15.7238 23.4923C15.7238 23.4923 19.1921 23.4923 19.1921 20.0242V15.332Z" fill="#66687C"/>
<path d="M5.74956 17.8255L6.83757 23.3109H8.92297L11.1216 15.332H9.03628L7.90294 21.1802L6.72426 15.332H4.77487L3.59615 21.1802H3.57352L2.44014 15.332H0.377441L2.50815 23.3109H4.63885L5.72689 17.8255H5.74956Z" fill="#66687C"/>
</g>
<defs>
<clipPath id="clip0_12887_24851">
<rect width="83" height="8.67164" fill="white" transform="translate(0 15.1641)"/>
</clipPath>
</defs>
</svg>
