<svg width="81" height="38" viewBox="0 0 81 38" fill="none" xmlns="http://www.w3.org/2000/svg">
<g clip-path="url(#clip0_12887_24484)">
<path fill-rule="evenodd" clip-rule="evenodd" d="M2.71188 8C1.21416 8 0 9.21412 0 10.7119V26.9832C0 28.4808 1.21416 29.6948 2.71188 29.6948H18.9832C20.4808 29.6948 21.6948 28.4808 21.6948 26.9832V10.7119C21.6948 9.21412 20.4808 8 18.9832 8H2.71188ZM16.0814 13.4255H14.9162L13.0734 13.4289C12.9678 13.4289 12.8826 13.5141 12.8826 13.6198V14.5905C12.8826 14.6962 12.9678 14.7814 13.0734 14.7814H13.9682L5.4248 22.9171V24.0821C5.4248 24.1878 5.51 24.273 5.61564 24.273H9.30176C9.4074 24.273 9.49261 24.1878 9.49261 24.0821V23.108C9.49261 23.0022 9.4074 22.9171 9.30176 22.9171H7.37924L14.9162 15.7455V16.6244C14.9162 16.7301 15.0014 16.8153 15.1074 16.8153H16.085C16.1906 16.8119 16.2722 16.7267 16.2722 16.621V13.6164C16.2722 13.5107 16.187 13.4255 16.0814 13.4255ZM11.3358 14.7776L8.13669 14.7814L6.78073 14.781V16.624C6.78073 16.7297 6.69893 16.8149 6.59333 16.8149H5.62249C5.51681 16.8149 5.4316 16.7297 5.4316 16.624V13.616C5.4316 13.5103 5.51681 13.425 5.62249 13.425H11.339C11.4414 13.425 11.5266 13.5103 11.5266 13.616V14.5867C11.5266 14.6924 11.4414 14.7776 11.3358 14.7776ZM11.0394 22.9171H14.9162V21.0582C14.9162 20.9524 15.0014 20.8673 15.1074 20.8673H16.0814C16.187 20.8673 16.2722 20.9525 16.2722 21.0582V24.0821C16.2722 24.1878 16.187 24.273 16.0814 24.273H11.0394C10.9338 24.273 10.8486 24.1878 10.8486 24.0821V23.108C10.8486 23.0022 10.9338 22.9171 11.0394 22.9171Z" fill="#66687C"/>
<path d="M27.1187 23.6218V22.3837L31.7099 18.0765H28.4895V18.9255H27.1927V16.897H33.4391V18.1351L28.8847 22.4176H32.2163V21.5562H33.5131V23.6218H27.1187Z" fill="#66687C"/>
<path d="M37.4556 23.7771C36.7824 23.7771 36.1928 23.6258 35.6804 23.3263C35.1708 23.0268 34.7692 22.61 34.476 22.082C34.186 21.554 34.0376 20.9427 34.0376 20.2542C34.0376 19.5656 34.1796 18.9542 34.4668 18.4263C34.7536 17.8983 35.152 17.4815 35.6648 17.182C36.1772 16.8825 36.764 16.7312 37.4276 16.7312C38.0916 16.7312 38.678 16.8825 39.1908 17.182C39.7004 17.4815 40.1016 17.8983 40.3888 18.4263C40.676 18.9542 40.818 19.5656 40.818 20.2542C40.818 20.9427 40.676 21.554 40.3888 22.082C40.1016 22.61 39.7064 23.0268 39.2004 23.3263C38.6936 23.6258 38.1132 23.7771 37.4584 23.7771H37.4556ZM37.4556 22.6069C37.8604 22.6069 38.218 22.505 38.53 22.3044C38.8448 22.1036 39.0892 21.8258 39.262 21.4768C39.438 21.128 39.5244 20.7204 39.5244 20.2542C39.5244 19.7879 39.438 19.3804 39.262 19.0314C39.086 18.6826 38.8388 18.4047 38.5148 18.204C38.1904 18.0033 37.8292 17.9014 37.4248 17.9014C37.0204 17.9014 36.6496 18.0033 36.3348 18.204C36.02 18.4047 35.776 18.6826 35.5936 19.0314C35.4148 19.3804 35.3252 19.7879 35.3252 20.2542C35.3252 20.7204 35.4148 21.128 35.5936 21.4768C35.7728 21.8258 36.0228 22.1036 36.3468 22.3044C36.6712 22.505 37.0388 22.6069 37.4492 22.6069H37.4556Z" fill="#66687C"/>
<path d="M44.9429 23.7771C44.2697 23.7771 43.6805 23.6258 43.1677 23.3263C42.6585 23.0268 42.2569 22.61 41.9633 22.082C41.6733 21.554 41.5249 20.9427 41.5249 20.2542C41.5249 19.5656 41.6673 18.9542 41.9541 18.4263C42.2413 17.8983 42.6397 17.4815 43.1521 17.182C43.6649 16.8825 44.2517 16.7312 44.9153 16.7312C45.5789 16.7312 46.1657 16.8825 46.6785 17.182C47.1877 17.4815 47.5893 17.8983 47.8761 18.4263C48.1633 18.9542 48.3053 19.5656 48.3053 20.2542C48.3053 20.9427 48.1633 21.554 47.8761 22.082C47.5893 22.61 47.1941 23.0268 46.6873 23.3263C46.1813 23.6258 45.6005 23.7771 44.9461 23.7771H44.9429ZM44.9429 22.6069C45.3473 22.6069 45.7057 22.505 46.0177 22.3044C46.3325 22.1036 46.5761 21.8258 46.7493 21.4768C46.9253 21.128 47.0117 20.7204 47.0117 20.2542C47.0117 19.7879 46.9253 19.3804 46.7493 19.0314C46.5733 18.6826 46.3265 18.4047 46.0021 18.204C45.6781 18.0033 45.3165 17.9014 44.9121 17.9014C44.5077 17.9014 44.1373 18.0033 43.8225 18.204C43.5073 18.4047 43.2633 18.6826 43.0813 19.0314C42.9021 19.3804 42.8125 19.7879 42.8125 20.2542C42.8125 20.7204 42.9021 21.128 43.0813 21.4768C43.2605 21.8258 43.5105 22.1036 43.8345 22.3044C44.1585 22.505 44.5261 22.6069 44.9369 22.6069H44.9429Z" fill="#66687C"/>
<path d="M59.0021 17.4752C58.5393 16.9781 57.9061 16.728 57.1005 16.728C56.5537 16.728 56.0845 16.8639 55.6953 17.1325C55.3125 17.3949 55.0193 17.7747 54.8153 18.2657C54.7013 17.9538 54.5501 17.6883 54.3525 17.4752C53.8893 16.9781 53.2565 16.728 52.4505 16.728C51.9037 16.728 51.4349 16.8639 51.0457 17.1325C50.7769 17.3177 50.5577 17.5617 50.3753 17.8581L50.3137 16.8917H49.1157V23.6165H50.3941V20.1213C50.3941 19.4235 50.5453 18.8801 50.8509 18.4941C51.1569 18.1082 51.5829 17.9167 52.1293 17.9167C52.4533 17.9257 52.7373 17.9939 52.9845 18.1175C53.2317 18.244 53.4229 18.4663 53.5617 18.7843C53.7009 19.1024 53.7721 19.5655 53.7721 20.1769V23.6195H55.0505V20.1244C55.0505 19.4266 55.2013 18.8832 55.5073 18.4972C55.8125 18.1113 56.2389 17.9198 56.7857 17.9198C57.1097 17.9288 57.3905 17.9971 57.6313 18.1205C57.8725 18.2471 58.0669 18.4694 58.2085 18.7875C58.3505 19.1055 58.4249 19.5686 58.4249 20.1799V23.6227H59.6877V19.7755C59.6969 18.7442 59.4717 17.9816 59.0085 17.4814L59.0021 17.4752Z" fill="#66687C"/>
<path d="M61.1888 15.8114C60.9356 15.8114 60.7164 15.7157 60.5312 15.5243C60.346 15.3328 60.25 15.1105 60.25 14.8573C60.25 14.6041 60.3428 14.3725 60.5312 14.1904C60.7164 14.0082 60.9356 13.9187 61.1888 13.9187C61.442 13.9187 61.6732 14.0082 61.8556 14.1904C62.0376 14.3725 62.1272 14.5918 62.1272 14.8573C62.1272 15.1229 62.0376 15.3328 61.8556 15.5243C61.6732 15.7157 61.4544 15.8114 61.1888 15.8114ZM60.5436 23.6169L60.5712 16.892H61.834L61.822 23.6169H60.5436Z" fill="#66687C"/>
<path d="M68.0928 17.4752C67.63 16.9781 66.9964 16.728 66.1908 16.728C65.6444 16.728 65.1748 16.8639 64.786 17.1325C64.5172 17.3177 64.2984 17.5617 64.116 17.8581L64.0544 16.8917H62.8564V23.6165H64.1344V20.1213C64.1344 19.4235 64.2856 18.8801 64.5916 18.4941C64.8972 18.1082 65.3232 17.9167 65.87 17.9167C66.194 17.9257 66.478 17.9939 66.7252 18.1175C66.972 18.244 67.1632 18.4663 67.3024 18.7843C67.4412 19.1024 67.512 19.5655 67.512 20.1769V23.6195H68.7904V19.7724C68.7904 18.7411 68.5588 17.9785 68.0988 17.4783L68.0928 17.4752Z" fill="#66687C"/>
<path d="M71.6479 16.2847C71.6479 15.8802 71.7187 15.5838 71.8639 15.3893C72.0059 15.1979 72.2283 15.099 72.5215 15.099C72.6203 15.099 72.7379 15.1207 72.8767 15.1608C73.0155 15.2009 73.1795 15.2659 73.3675 15.3553L73.8371 14.3734C73.5867 14.2561 73.3399 14.1635 73.0959 14.0987C72.8551 14.0308 72.6295 13.9968 72.4227 13.9968C71.7311 13.9968 71.2155 14.179 70.8759 14.5402C70.5363 14.9046 70.3635 15.4387 70.3635 16.1458V16.8868H69.1655V17.949H70.3635V23.6116H71.6419V17.949H73.4975V16.8868H71.6419V16.2816L71.6479 16.2847Z" fill="#66687C"/>
<path d="M76.6402 23.7771C75.967 23.7771 75.3774 23.6258 74.8646 23.3263C74.3554 23.0268 73.9538 22.61 73.6602 22.082C73.3702 21.554 73.2222 20.9427 73.2222 20.2542C73.2222 19.5656 73.3642 18.9542 73.6514 18.4263C73.9382 17.8983 74.3366 17.4815 74.849 17.182C75.3618 16.8825 75.9486 16.7312 76.6122 16.7312C77.2758 16.7312 77.8626 16.8825 78.3754 17.182C78.8846 17.4815 79.2862 17.8983 79.5734 18.4263C79.8602 18.9542 80.0026 19.5656 80.0026 20.2542C80.0026 20.9427 79.8602 21.554 79.5734 22.082C79.2862 22.61 78.891 23.0268 78.3846 23.3263C77.8782 23.6258 77.2978 23.7771 76.643 23.7771H76.6402ZM76.6402 22.6069C77.0446 22.6069 77.4026 22.505 77.7146 22.3044C78.0294 22.1036 78.2734 21.8258 78.4466 21.4768C78.6226 21.128 78.709 20.7204 78.709 20.2542C78.709 19.7879 78.6226 19.3804 78.4466 19.0314C78.2702 18.6826 78.0234 18.4047 77.699 18.204C77.375 18.0033 77.0138 17.9014 76.6094 17.9014C76.2046 17.9014 75.8342 18.0033 75.5194 18.204C75.2046 18.4047 74.9602 18.6826 74.7782 19.0314C74.599 19.3804 74.5094 19.7879 74.5094 20.2542C74.5094 20.7204 74.599 21.128 74.7782 21.4768C74.9574 21.8258 75.2074 22.1036 75.5314 22.3044C75.8558 22.505 76.223 22.6069 76.6338 22.6069H76.6402Z" fill="#66687C"/>
</g>
<defs>
<clipPath id="clip0_12887_24484">
<rect width="80.4" height="22" fill="white" transform="translate(0 8)"/>
</clipPath>
</defs>
</svg>
