<svg width="91" height="38" viewBox="0 0 91 38" fill="none" xmlns="http://www.w3.org/2000/svg">
<g clip-path="url(#clip0_12887_24611)">
<path d="M14.6134 21.9278V21.7665L13.2475 20.5908H13.0884C12.7127 21.0058 12.1327 21.3168 11.484 21.3168C10.471 21.3168 9.67404 20.5445 9.67404 19.4844C9.67404 18.4242 10.471 17.652 11.484 17.652C12.1327 17.652 12.7127 17.963 13.0884 18.378H13.2475L14.6134 17.2023V17.041C13.8962 16.1652 12.7701 15.6005 11.4948 15.6005C9.15077 15.6005 7.37559 17.2601 7.37559 19.4844C7.37559 19.5706 7.39505 19.6499 7.40083 19.7345C8.3601 20.387 9.20698 20.9092 9.93619 21.3872C10.9874 22.0523 11.8359 22.6644 12.5348 23.2333C13.4058 23.0132 14.1118 22.5357 14.6134 21.9278ZM8.23037 21.8863C8.77776 22.5588 9.55058 23.041 10.4621 23.247C9.84636 22.9008 9.25006 22.5609 8.69478 22.1847C8.53192 22.0838 8.3869 21.9861 8.23037 21.8863Z" fill="#66687C"/>
<path d="M22.5186 22.8714L22.1775 21.3962L22.0524 21.3153C21.9838 21.35 21.9273 21.3962 21.7565 21.3962C21.4943 21.3962 21.3352 21.1193 21.1984 20.9008C20.9712 20.5546 20.7887 20.3702 20.6296 20.2898C21.4602 19.921 22.0183 19.2297 22.0183 18.2383C22.0183 16.7054 20.9712 15.7371 19.0252 15.7371H15.6335V23.2287H17.8866V20.6008H18.0919C18.5922 20.6008 19.2301 21.6841 19.5259 22.1685C20.1405 23.1483 20.6296 23.3668 21.5059 23.3668C21.9157 23.3668 22.2573 23.2171 22.4621 23.0327L22.5186 22.8714ZM19.7191 18.3649C19.7191 18.8609 19.3551 19.1025 18.9337 19.1025H17.8866V17.5811H18.9337C19.3551 17.5811 19.7191 17.858 19.7191 18.3649Z" fill="#66687C"/>
<path d="M31.226 19.488C31.226 17.2636 29.4508 15.604 27.0951 15.604C24.739 15.604 22.9638 17.2636 22.9638 19.488C22.9638 21.7123 24.739 23.3719 27.0951 23.3719C29.4508 23.3719 31.226 21.7008 31.226 19.488ZM28.9268 19.488C28.9268 20.5597 28.1073 21.3204 27.0951 21.3204C26.082 21.3204 25.2626 20.5597 25.2626 19.488C25.2626 18.4162 26.082 17.6555 27.0951 17.6555C28.1073 17.6555 28.9268 18.4162 28.9268 19.488Z" fill="#66687C"/>
<path d="M36.2456 15.7371L34.843 19.8606L33.5138 15.7371H31.3599L31.2599 15.91L34.0128 23.2281H35.3787L36.9288 19.1461L38.4839 23.2281H39.8498L42.6076 15.91L42.5027 15.7371H40.3541L39.0196 19.8869L37.6115 15.7371H36.2456Z" fill="#66687C"/>
<path d="M50.8564 19.4713C50.8564 17.2354 49.3654 15.7371 46.9416 15.7371H43.493V23.2287H46.9416C49.3654 23.2287 50.8564 21.7303 50.8564 19.4713ZM48.5576 19.4829C48.5576 20.7043 47.8404 21.3847 46.8506 21.3847H45.7465V17.5811H46.8506C47.8404 17.5811 48.5576 18.2615 48.5576 19.4829Z" fill="#66687C"/>
<path d="M58.3107 17.5811H60.5172V23.2281H62.7765V17.5811H65.0353V15.7371H58.3107V17.5811Z" fill="#66687C"/>
<path d="M72.232 18.2383C72.232 16.7054 71.1853 15.7371 69.2393 15.7371H65.8477V23.2287H68.1012V20.6008H68.636L70.0355 23.2287H72.2777L72.3804 23.0558L70.8778 20.2782C71.6856 19.8979 72.232 19.2181 72.232 18.2383ZM69.9333 18.3649C69.9333 18.8609 69.5693 19.1025 69.1479 19.1025H68.1012V17.5811H69.1479C69.5693 17.5811 69.9333 17.858 69.9333 18.3649Z" fill="#66687C"/>
<path d="M73.5942 23.2281H75.8531V15.7371H73.5942V23.2281Z" fill="#66687C"/>
<path d="M79.534 18.3996V15.7371H77.2751V23.2281H79.534V20.9218L79.9544 20.4385L81.8457 23.2281H84.2095L84.3148 23.0547L81.583 19.0883L84.1046 15.91L84.0521 15.7371H81.6355L79.534 18.3996Z" fill="#66687C"/>
<path d="M87.2042 21.3847V20.3497H89.7782V18.6187H87.2042V17.5816H90.5663V15.7371H84.9449V23.2287H90.6187V21.3847H87.2042Z" fill="#66687C"/>
<path d="M54.6849 23.3113C56.3355 23.3113 57.7681 22.5049 57.7681 20.9499C57.7681 19.2551 56.3242 18.8169 55.0493 18.4481C54.5482 18.2984 54.0358 18.1251 54.0358 17.7563C54.0358 17.4909 54.3205 17.3297 54.753 17.3297C55.4936 17.3297 56.1189 17.7909 56.4377 18.0909H56.5968L57.6547 16.8232V16.6619C57.0975 16.0284 55.9598 15.5445 54.7073 15.5445C52.955 15.5445 51.7384 16.4891 51.7384 17.8603C51.7384 19.336 53.0801 19.9816 54.2178 20.3042C54.9579 20.5117 55.46 20.5464 55.46 20.9499C55.46 21.2383 55.1063 21.4111 54.5594 21.4111C53.865 21.4111 53.0231 20.9614 52.6139 20.5579H52.4547L51.4084 21.8719V22.0331C52.0791 22.7818 53.2849 23.3113 54.6849 23.3113Z" fill="#66687C"/>
<path d="M15.8203 30.1976C15.2743 28.9487 14.1778 27.3456 9.8837 25.0566C7.90313 23.9555 4.51986 22.2602 1.47808 19.0361C1.75386 20.1992 3.1671 22.755 9.24276 25.9445C10.926 26.8654 13.7725 27.7291 15.8203 30.1935" fill="#66687C"/>
<path d="M15.5473 28.0601C15.0291 26.5839 14.094 24.6937 9.65788 21.8872C7.49817 20.4719 4.32559 18.6946 0.154297 14.1646C0.452669 15.386 1.77131 18.5623 8.41808 22.6857C10.6014 24.1651 13.4193 25.0777 15.5473 28.0601Z" fill="#66687C"/>
</g>
<defs>
<clipPath id="clip0_12887_24611">
<rect width="91" height="16.5862" fill="white" transform="translate(0 14)"/>
</clipPath>
</defs>
</svg>
