<svg width="48" height="38" viewBox="0 0 48 38" fill="none" xmlns="http://www.w3.org/2000/svg">
<g clip-path="url(#clip0_12887_24604)">
<path d="M0 16.0493C0.0416096 16.5871 0.491335 17.0071 1.03871 17.0071C1.58608 17.0071 2.03595 16.5871 2.0773 16.0525V16.0493V13.7534C2.05185 13.2028 1.59727 12.7653 1.03871 12.7653C0.480145 12.7653 0.0256193 13.2028 0 13.7518V13.7534V16.0493ZM5.75219 16.0493C5.80019 16.5823 6.24838 16.996 6.79258 16.996C7.33648 16.996 7.78467 16.5823 7.83267 16.0525V16.0477V10.9005C7.80723 10.35 7.35268 9.91246 6.79402 9.91246C6.23537 9.91246 5.78082 10.35 5.75537 10.8989V16.0477L5.75219 16.0493ZM11.4755 18.124C11.5009 18.6746 11.9555 19.1121 12.5141 19.1121C13.0728 19.1121 13.5273 18.6746 13.5528 18.1256V18.124V6.98808C13.5273 6.43755 13.0728 6 12.5141 6C11.9555 6 11.5009 6.43755 11.4755 6.98646V6.98808V18.124ZM17.2485 16.0493C17.2739 16.5998 17.7285 17.0373 18.2871 17.0373C18.8458 17.0373 19.3 16.5998 19.3258 16.0509V16.0493V10.9021C19.3 10.3516 18.8458 9.91405 18.2871 9.91405C17.7285 9.91405 17.2739 10.3516 17.2485 10.9005V10.9021V16.0493ZM22.9894 16.0493C23.0438 16.5775 23.487 16.9848 24.028 16.9848C24.5691 16.9848 25.0138 16.5759 25.0667 16.0525V16.0477V13.7518C25.0413 13.2012 24.5867 12.7637 24.028 12.7637C23.4694 12.7637 23.0148 13.2012 22.9894 13.7502V16.0493ZM28.7861 16.0493C28.8214 16.5934 29.2728 17.0214 29.8265 17.0214C30.3802 17.0214 30.8316 16.5934 30.8669 16.0525V16.0493V10.9021C30.8412 10.3516 30.3866 9.91405 29.8282 9.91405C29.2696 9.91405 28.815 10.3516 28.7893 10.9005V10.9021V16.0493H28.7861ZM34.4631 18.124C34.5048 18.6619 34.9544 19.0819 35.5018 19.0819C36.0492 19.0819 36.4991 18.6619 36.5404 18.1272V18.124V6.98808C36.515 6.43755 36.0604 6 35.5018 6C34.9434 6 34.4889 6.43755 34.4631 6.98646V6.98808V18.124ZM40.2344 16.0493C40.2778 16.5871 40.7274 17.0087 41.2748 17.0087C41.8222 17.0087 42.2735 16.5887 42.3152 16.0525V16.0493V10.9021C42.2799 10.358 41.8285 9.92999 41.2748 9.92999C40.7211 9.92999 40.2697 10.358 40.2344 10.8989V10.9021V16.0493ZM45.9227 16.0493C45.9481 16.5998 46.4027 17.0373 46.9613 17.0373C47.52 17.0373 47.9743 16.5998 48 16.0509V16.0493V13.7534C47.9743 13.2028 47.52 12.7653 46.9613 12.7653C46.4027 12.7653 45.9481 13.2028 45.9227 13.7518V13.7534V16.0493ZM34.8457 26.8543C34.8841 29.2329 36.8333 31.1471 39.231 31.1471C39.567 31.1471 39.8935 31.1089 40.2072 31.0389L40.1783 31.0436C42.1744 30.6587 43.6612 28.9339 43.6612 26.8655C43.6612 25.3238 42.8354 23.9728 41.5998 23.2268L41.5804 23.2155C40.9212 22.8035 40.1193 22.56 39.2597 22.56C36.8559 22.56 34.9 24.471 34.8471 26.8496V26.8543H34.8457ZM37.8946 25.1566C38.269 24.8513 38.7525 24.6665 39.279 24.6665C40.4889 24.6665 41.47 25.6418 41.47 26.8447C41.47 27.5242 41.1562 28.132 40.6667 28.5314L40.6635 28.5346L40.6297 28.5614C40.2648 28.8431 39.7992 29.012 39.2949 29.012C38.0851 29.012 37.1023 28.0366 37.1023 26.832C37.1023 26.1591 37.4096 25.5577 37.8914 25.1584L37.8946 25.1552V25.1566ZM13.5704 30.9944H15.6703V22.7096H13.5704V30.9944ZM18.5208 29.0151L18.5127 30.9181L18.652 30.9418C19.0233 31.0149 19.4793 31.0754 19.9402 31.1089L19.9787 31.1104C20.2028 31.1326 20.4636 31.1453 20.7279 31.1453C20.8765 31.1453 21.0254 31.1407 21.1744 31.1326L21.1535 31.1344C21.5584 31.104 21.9331 31.0294 22.2914 30.9181L22.2564 30.9276C22.6965 30.8018 23.079 30.5919 23.4023 30.3181L23.3974 30.3213C23.692 30.07 23.919 29.7502 24.0584 29.3873L24.0633 29.3714C24.1738 29.0929 24.2391 28.7717 24.2391 28.4342C24.2391 28.0843 24.1703 27.7501 24.0439 27.4447L24.0503 27.4621C23.9159 27.1345 23.7126 26.8592 23.4567 26.6412L23.4535 26.638C23.2086 26.42 22.9157 26.2465 22.5956 26.1369L22.5779 26.132L21.1345 25.599C20.9615 25.5241 20.8239 25.3937 20.7424 25.2298L20.7406 25.2252C20.7134 25.1662 20.6975 25.0962 20.6975 25.023C20.6975 24.9372 20.7198 24.8576 20.7583 24.7877L20.7565 24.7908C20.8317 24.6697 20.9358 24.5743 21.0607 24.5106L21.0656 24.5092C21.2143 24.4358 21.3889 24.3834 21.5714 24.3626H21.5792C21.7073 24.3435 21.8562 24.3325 22.0083 24.3325C22.1826 24.3325 22.3524 24.3467 22.5172 24.3753L22.4996 24.3721C22.9044 24.4167 23.2661 24.4838 23.6183 24.5743L23.5654 24.5633L23.6406 24.5792V22.8226L23.5029 22.7922C23.2068 22.7175 22.8387 22.6491 22.4628 22.6046L22.4163 22.5998C22.1954 22.5695 21.9395 22.552 21.6784 22.552C21.4352 22.552 21.1952 22.568 20.9598 22.5966L20.9887 22.5934C20.3613 22.6523 19.798 22.8911 19.3402 23.2537L19.3466 23.2491C19.0329 23.4954 18.7911 23.8216 18.6489 24.1958L18.644 24.2099C18.5448 24.4757 18.4872 24.7827 18.4872 25.104C18.4872 25.4255 18.5448 25.7326 18.6503 26.0157L18.644 25.9966C18.7576 26.2942 18.9288 26.5472 19.1465 26.7542H19.1482C19.3371 26.9355 19.5531 27.0914 19.7867 27.2154L19.8026 27.2235C20.0877 27.3779 20.4173 27.5098 20.7646 27.6038L20.7967 27.6116C20.9104 27.6451 21.024 27.6818 21.1359 27.7183L21.3056 27.7804L21.3536 27.7995C21.5297 27.8631 21.6801 27.9568 21.8065 28.078C21.8947 28.1589 21.9635 28.2593 22.0066 28.3723L22.0083 28.377C22.021 28.4264 22.0291 28.4819 22.0291 28.5409C22.0291 28.5964 22.0227 28.6508 22.0083 28.7017L22.0097 28.6968C21.9539 28.8685 21.8354 29.007 21.6818 29.0883L21.6784 29.0897C21.5185 29.1724 21.3328 29.2329 21.1376 29.26L21.1278 29.2618C20.9407 29.2919 20.723 29.3095 20.5021 29.3095C20.4223 29.3095 20.3422 29.3078 20.2621 29.3031H20.2733C19.8492 29.2696 19.4683 29.217 19.0936 29.1455L19.1592 29.1565C18.9672 29.1152 18.7758 29.0707 18.5847 29.0229L18.5208 29.0151ZM10.6719 30.8495V28.6413L10.6288 28.6603C10.1615 28.8908 9.61417 29.0357 9.03643 29.0628H9.0266C8.97224 29.0675 8.90834 29.0692 8.84414 29.0692C8.30487 29.0692 7.80723 28.8893 7.40848 28.5869L7.41513 28.5918C7.09185 28.342 6.84694 28.0048 6.71711 27.6165L6.71248 27.602C6.63557 27.3794 6.59248 27.1232 6.59248 26.856C6.59248 26.649 6.61793 26.4503 6.66766 26.2592L6.66448 26.2751C6.77176 25.8153 7.02622 25.4255 7.37494 25.1471L7.37812 25.1439C7.68405 24.8877 8.06949 24.7142 8.49224 24.6633L8.50178 24.6619C8.62496 24.6474 8.76896 24.6396 8.91296 24.6396C9.53899 24.6396 10.1277 24.794 10.6433 25.0658L10.6225 25.0563L10.6705 25.0817V22.8607L10.5681 22.8335C10.0479 22.6634 9.44935 22.5648 8.82824 22.5648C8.72906 22.5648 8.62988 22.568 8.53215 22.5727H8.5466C7.88877 22.5902 7.27084 22.7382 6.71075 22.9943L6.73966 22.9816C6.15065 23.2537 5.65619 23.6388 5.26554 24.1096L5.25918 24.116C4.66207 24.8623 4.30063 25.8185 4.30063 26.8592C4.30063 27.8519 4.63026 28.7685 5.18545 29.5067L5.17764 29.4954C5.75855 30.2322 6.56848 30.7668 7.50159 30.9927L7.53022 30.999C7.92087 31.0976 8.3705 31.1549 8.83316 31.1549C9.42997 31.1549 10.0045 31.0595 10.5441 30.8845L10.5056 30.8958L10.6719 30.8495ZM32.6626 30.8495V28.6413L32.6195 28.6603C32.1519 28.8908 31.6048 29.0357 31.0268 29.0628H31.0173C30.9629 29.0675 30.9004 29.0692 30.8365 29.0692C30.2955 29.0692 29.7979 28.8893 29.3991 28.5869L29.4055 28.5918C29.0822 28.342 28.8376 28.0048 28.7063 27.6165L28.7014 27.602C28.6262 27.3811 28.5828 27.1249 28.5828 26.8592C28.5828 26.6521 28.6086 26.4503 28.6583 26.2592L28.6551 26.2751C28.7639 25.8153 29.0183 25.4255 29.3656 25.1471L29.3688 25.1439C29.6744 24.8877 30.0601 24.7142 30.4826 24.6633L30.4924 24.6619C30.6156 24.6474 30.7596 24.6396 30.9036 24.6396C31.5293 24.6396 32.1184 24.794 32.6339 25.0658L32.6131 25.0563L32.6611 25.0817V22.8607L32.5585 22.8335C32.0386 22.6634 31.4397 22.5648 30.8189 22.5648C30.7197 22.5648 30.6205 22.568 30.5228 22.5727H30.5373C29.8794 22.5902 29.2615 22.7382 28.7014 22.9943L28.7303 22.9816C28.1413 23.2537 27.6483 23.6371 27.2576 24.1096L27.2513 24.1177C26.6527 24.864 26.2927 25.8185 26.2927 26.8592C26.2927 27.8536 26.6224 28.7699 27.181 29.5081L27.1729 29.4972C27.7538 30.2339 28.5638 30.7668 29.4937 30.9944L29.5223 31.0008C29.913 31.0994 30.3626 31.1566 30.8253 31.1566C31.4224 31.1566 31.9969 31.0612 32.5362 30.8863L32.4977 30.8973L32.6611 30.8513L32.6626 30.8495Z" fill="#66687C"/>
</g>
<defs>
<clipPath id="clip0_12887_24604">
<rect width="48" height="25.1566" fill="white" transform="translate(0 6)"/>
</clipPath>
</defs>
</svg>
