<svg width="90" height="38" viewBox="0 0 90 38" fill="none" xmlns="http://www.w3.org/2000/svg">
<g clip-path="url(#clip0_12415_46268)">
<path d="M29.1012 23.5535H24.929V13.9465H29.1012C32.1065 13.9465 33.6114 15.4606 33.6114 18.4878C33.6103 21.8642 32.1065 23.5535 29.1012 23.5535ZM26.7117 22.007H28.8312C30.8281 22.007 31.8254 20.8343 31.8254 18.4867C31.8254 16.4883 30.827 15.4885 28.8312 15.4885H26.7117V22.007ZM35.4789 23.5535H33.6471L37.7335 13.9465H39.6511L43.8244 23.5535H41.9068L40.6953 20.9336H37.613L38.2254 19.3882H40.2245L38.6493 15.7797L35.4789 23.5535ZM42.8171 13.9465H50.1196V15.4908H47.3608V23.5535H45.5781V15.4908H42.8171V13.9465ZM51.0366 23.5535H49.2048L53.2911 13.9465H55.2088L59.3821 23.5535H57.4622L56.2507 20.9336H53.1684L53.7809 19.3882H55.78L54.2059 15.7797L51.0366 23.5535ZM64.7379 23.5535H60.5657V13.9465H64.7379C67.7455 13.9465 69.2482 15.4606 69.2482 18.4878C69.2482 21.8642 67.7455 23.5535 64.7379 23.5535ZM62.3495 22.007H64.4691C66.4648 22.007 67.4655 20.8343 67.4655 18.4867C67.4655 16.4883 66.466 15.4885 64.4691 15.4885H62.3495V22.007ZM70.4563 18.7634C70.4563 15.5053 72.0683 13.8773 75.2901 13.8773C78.4627 13.8773 80.0468 15.5053 80.0468 18.7634C80.0468 22.0025 78.4616 23.6227 75.2901 23.6227C72.2111 23.6227 70.6002 22.0025 70.4563 18.7634ZM75.2901 22.0739C77.2267 22.0739 78.1961 20.957 78.1961 18.721C78.1961 16.5206 77.2267 15.4193 75.2901 15.4193C73.3021 15.4193 72.3082 16.5206 72.3082 18.721C72.3082 20.957 73.3021 22.0739 75.2901 22.0739ZM87.4888 19.6661V21.9155C87.0771 22.0226 86.709 22.0762 86.3844 22.0762C84.2034 22.0762 83.1147 20.9224 83.1147 18.6161C83.1147 16.486 84.2704 15.4227 86.5807 15.4227C87.5457 15.4227 88.4426 15.6023 89.2726 15.9605V14.3471C88.4426 14.0346 87.4999 13.8773 86.4457 13.8773C82.9908 13.8773 81.2628 15.4562 81.2628 18.6161C81.2628 21.9523 82.9607 23.6227 86.3576 23.6227C87.5256 23.6227 88.4961 23.4531 89.2726 23.1116V18.085H86.3922L85.7898 19.6649L87.4888 19.6661ZM17.7224 23.4988L15.8405 22.258L14.2709 24.8802L12.4458 24.3468L10.8383 26.8004L10.9208 27.5726L19.6591 25.9625L19.1515 20.5018L17.7224 23.4988ZM9.57324 21.1456L10.9755 20.9526C11.202 21.0541 11.3604 21.0932 11.6326 21.1623C12.0565 21.2728 12.5462 21.3788 13.2725 21.0128C13.4409 20.9291 13.7934 20.6067 13.9351 20.4237L19.6791 19.3815L20.2648 26.4746L10.4244 28.2487L9.57324 21.1456ZM20.2425 18.5893L19.6758 18.6975L18.587 7.44141L0.0273438 9.59377L2.31425 28.1528L4.48626 27.837C4.31335 27.5893 4.04226 27.2892 3.58154 26.9053C2.9412 26.3742 3.16766 25.4704 3.54584 24.9002C4.04449 23.9373 6.6181 22.7122 6.47196 21.1724C6.41953 20.6122 6.33029 19.8836 5.81043 19.3838C5.79147 19.5913 5.82605 19.791 5.82605 19.791C5.82605 19.791 5.61298 19.5188 5.50589 19.1472C5.39991 19.0044 5.31735 18.9598 5.20468 18.769C5.12436 18.9888 5.13552 19.2443 5.13552 19.2443C5.13552 19.2443 4.96149 18.8314 4.93248 18.4833C4.82874 18.6395 4.80308 18.9352 4.80308 18.9352C4.80308 18.9352 4.57662 18.2847 4.62794 17.9343C4.52419 17.6297 4.21741 17.025 4.30442 15.6503C4.87113 16.0475 6.11833 15.9527 6.6036 15.2363C6.76536 14.9987 6.8758 14.3515 6.52328 13.0762C6.29682 12.2583 5.73681 11.0398 5.51816 10.5768L5.4925 10.5958C5.6074 10.9684 5.84502 11.7484 5.93649 12.1277C6.21204 13.2759 6.28567 13.6754 6.15626 14.2042C6.04582 14.6639 5.78255 14.9652 5.11321 15.3022C4.44387 15.6403 3.55588 14.8179 3.49898 14.7733C2.84861 14.2556 2.34549 13.4098 2.28971 12.9992C2.2317 12.5495 2.54852 12.2795 2.70916 11.9124C2.48047 11.9782 2.22501 12.0943 2.22501 12.0943C2.22501 12.0943 2.52956 11.7785 2.9055 11.5062C3.06168 11.4036 3.15204 11.3378 3.31603 11.2016C3.07841 11.1983 2.88542 11.2039 2.88542 11.2039C2.88542 11.2039 3.28145 10.9896 3.69198 10.8345C3.39189 10.8211 3.10407 10.8323 3.10407 10.8323C3.10407 10.8323 3.9876 10.4373 4.68483 10.1472C5.16452 9.95083 5.63306 10.0089 5.89633 10.3893C6.24216 10.8881 6.60472 11.1592 7.37446 11.3277C7.84746 11.118 7.99025 11.0108 8.58373 10.849C9.10581 10.2744 9.51634 10.1997 9.51634 10.1997C9.51634 10.1997 9.31331 10.386 9.25865 10.6794C9.55539 10.4462 9.88002 10.251 9.88002 10.251C9.88002 10.251 9.75396 10.4061 9.63682 10.6527L9.6636 10.6928C10.0094 10.4853 10.4155 10.3224 10.4155 10.3224C10.4155 10.3224 10.2995 10.4697 10.1634 10.6594C10.4244 10.6571 10.9532 10.6705 11.1573 10.6939C12.3688 10.7207 12.6198 9.39963 13.085 9.23449C13.6674 9.02695 13.9273 8.90087 14.919 9.87495C15.7702 10.7118 16.4351 12.2081 16.1049 12.5439C15.8282 12.8218 15.2816 12.4357 14.6769 11.6803C14.3568 11.2809 14.1158 10.8089 14.002 10.2086C13.9061 9.70201 13.5346 9.40855 13.5346 9.40855C13.5346 9.40855 13.7499 9.88946 13.7499 10.3135C13.7499 10.5455 13.7789 11.4114 14.1504 11.8968C14.1136 11.9682 14.0969 12.2483 14.0556 12.3018C13.6239 11.7796 12.6957 11.4058 12.5451 11.2954C13.0571 11.7149 14.2341 12.6789 14.6859 13.6028C15.1131 14.4765 14.861 15.2776 15.0774 15.4852C15.1388 15.5443 15.9967 16.6132 16.1618 17.1511C16.4496 18.0872 16.1785 19.0713 15.8026 19.6817L14.7506 19.8457C14.5966 19.8033 14.4929 19.781 14.3545 19.7018C14.4304 19.5667 14.5821 19.2309 14.5832 19.1617L14.5241 19.0579C14.1961 19.5221 13.6484 19.9729 13.1921 20.2318C12.5953 20.5698 11.9081 20.5174 11.4608 20.379C10.1901 19.9874 8.98868 19.1282 8.69975 18.9029C8.69975 18.9029 8.69082 19.0825 8.74549 19.1238C9.06565 19.4853 9.7997 20.1392 10.5092 20.5944L8.99761 20.7606L9.71268 26.3273C9.39586 26.3731 9.34678 26.3954 8.99984 26.4445C8.69417 25.3644 8.10962 24.6581 7.4704 24.2475C6.90704 23.8849 6.12949 23.8034 5.38429 23.9507L5.33632 24.0065C5.85394 23.9529 6.46527 24.0277 7.09222 24.4249C7.70801 24.8143 8.20444 25.8208 8.38739 26.4267C8.62166 27.201 8.78342 28.0289 8.15312 28.9071C7.70466 29.5308 6.39722 29.8756 5.33967 29.1302C5.6219 29.5844 6.00343 29.9559 6.51659 30.0251C7.27963 30.1289 8.00364 29.9961 8.50118 29.485C8.92621 29.0477 9.15267 28.1327 9.09243 27.1698L9.76511 27.0727L10.0083 28.8011L21.1506 27.4588L20.2425 18.5893ZM13.4632 13.894C13.432 13.9655 13.3829 14.0112 13.4565 14.2422L13.461 14.2556L13.4721 14.2857L13.5023 14.3549C13.635 14.6249 13.78 14.8804 14.0221 15.011C14.0846 15.0009 14.1504 14.9931 14.2173 14.9898C14.4449 14.9797 14.5888 15.0154 14.6803 15.0656C14.6881 15.0199 14.6903 14.9541 14.6848 14.8559C14.6669 14.5133 14.7528 13.9309 14.0946 13.624C13.8459 13.5091 13.4978 13.5437 13.3818 13.6887C13.403 13.691 13.4219 13.6954 13.4364 13.701C13.6138 13.7613 13.4956 13.8215 13.4632 13.894ZM15.3084 17.0908C15.2225 17.0428 14.8186 17.0618 14.5353 17.0953C13.9953 17.1589 13.4119 17.3463 13.2836 17.4456C13.0516 17.6253 13.1564 17.9388 13.3282 18.0671C13.8102 18.4264 14.2318 18.6685 14.6769 18.6094C14.9503 18.5737 15.1912 18.1408 15.3619 17.7469C15.4802 17.4769 15.4802 17.1856 15.3084 17.0908ZM10.5259 14.318C10.6788 14.173 9.76735 13.9833 9.06008 14.4653C8.53911 14.8213 8.52237 15.5845 9.02103 16.0163C9.07123 16.0587 9.11251 16.0899 9.15044 16.1145C9.29658 16.0453 9.4628 15.9761 9.65356 15.9148C9.97707 15.8099 10.2448 15.7552 10.4657 15.7273C10.5717 15.609 10.6944 15.4015 10.6631 15.0255C10.6219 14.5133 10.2348 14.5948 10.5259 14.318Z" fill="#66687C"/>
</g>
<defs>
<clipPath id="clip0_12415_46268">
<rect width="89.3023" height="22.6875" fill="white" transform="translate(0 7.44141)"/>
</clipPath>
</defs>
</svg>
