<svg width="57" height="38" viewBox="0 0 57 38" fill="none" xmlns="http://www.w3.org/2000/svg">
<g clip-path="url(#clip0_12887_24522)">
<path d="M4.06601 28.4561C1.653 28.4561 0.70301 27.0787 1.1115 24.7796L2.18501 18.7186H0L0.418009 16.3531H2.60299L3.25849 12.6101H6.1275L5.472 16.3531H8.4836L8.0655 18.7186H5.05402L4.03751 24.5231C3.876 25.4445 4.218 25.8341 5.13952 25.8341C5.73802 25.8341 6.22252 25.8056 7.02041 25.7201L6.59302 28.1332C5.74751 28.3421 4.91152 28.4561 4.06601 28.4561Z" fill="#66687C"/>
<path d="M8.16016 28.2272L10.2501 16.3618H13.1477L11.0575 28.2272H8.16016Z" fill="#66687C"/>
<path d="M46.8427 28.4561C44.4299 28.4561 43.4797 27.0787 43.8884 24.7796L44.9617 18.7186H42.7769L43.1947 16.3531H45.3798L46.0353 12.6101H48.9044L48.2489 16.3531H51.2508L50.8327 18.7186H47.8214L46.7954 24.5231C46.6338 25.4445 46.9758 25.8341 47.8972 25.8341C48.4957 25.8341 48.9802 25.8056 49.7782 25.7201L49.3507 28.1332C48.5148 28.3421 47.6977 28.4561 46.8427 28.4561Z" fill="#66687C"/>
<path d="M50.939 28.2272L53.0292 16.3618H55.9265L53.8366 28.2272H50.939Z" fill="#66687C"/>
<path d="M21.5254 19.4605C21.2119 18.938 20.661 18.52 19.7678 18.52C17.5354 18.52 16.6995 20.6385 16.3954 22.358C16.0913 24.0681 16.1768 26.1674 18.4189 26.1674C19.3118 26.1674 19.9958 25.759 20.4994 25.2269C21.231 24.448 21.5824 23.3744 21.7534 22.3485C21.9529 21.332 21.9814 20.2395 21.5254 19.4605ZM21.6203 27.6115C20.7844 28.21 19.7584 28.5711 18.552 28.5711C17.1364 28.5711 16.0819 28.0675 15.6544 27.4026L14.7045 32.8079H11.8545L14.7518 16.4015H17.4214L17.1743 17.703C18.0769 16.6105 19.4828 16.126 20.7844 16.126C21.972 16.126 22.8555 16.5345 23.4825 17.133C24.6889 18.3015 25.0785 20.078 24.6889 22.3105C24.2614 24.6381 23.2354 26.443 21.6203 27.6115Z" fill="#66687C"/>
<path d="M32.669 22.9923L29.6195 23.2203C28.7457 23.2867 27.8052 23.8188 27.6342 24.7687C27.4726 25.6807 28.166 26.2507 29.0592 26.2507C30.8356 26.2507 32.27 25.2911 32.5741 23.5338L32.669 22.9923ZM34.1037 28.4452C32.8685 28.4452 32.327 27.6663 32.3937 26.7828C31.6715 27.7421 30.161 28.5592 28.4701 28.5592C25.6392 28.5592 24.4895 26.7828 24.8315 24.8351C25.2305 22.5742 27.2161 21.2727 29.5055 21.1112L33.0395 20.8547L33.1726 20.1232C33.3721 19.0022 33.1156 18.2517 31.4911 18.2517C30.1707 18.2517 29.2872 18.8502 29.021 19.9427H26.2662C26.8932 17.2732 29.2302 16.0857 31.8807 16.0857C33.9136 16.0857 35.5287 16.7222 35.9086 18.5082C36.0702 19.2587 35.9656 20.1042 35.8325 20.9022L35.0536 25.3102C34.9587 25.8611 35.1012 26.0606 35.5857 26.0606C35.7661 26.0606 35.9562 26.0133 35.9562 26.0133L35.5857 28.1126C35.0536 28.3312 34.7877 28.4452 34.1037 28.4452Z" fill="#66687C"/>
<path d="M40.06 28.3893C38.122 28.3893 36.982 27.4488 37.381 25.1973L39.5946 12.6191H42.4731L40.345 24.7222C40.2216 25.4062 40.3071 25.8622 41.2855 25.8622C41.542 25.8622 41.6084 25.8337 41.77 25.8337L41.3519 28.2277C40.7534 28.3417 40.63 28.3893 40.06 28.3893Z" fill="#66687C"/>
<path d="M56.8562 10.6908C56.8941 11.9448 55.9157 12.9993 54.652 13.0373C54.2342 13.0563 53.8255 12.9518 53.4835 12.7618C53.4456 12.7333 53.4077 12.7143 53.3601 12.6953C53.3601 12.6858 53.3507 12.6858 53.3507 12.6858C47.3657 9.17084 40.345 7.24233 32.8877 7.48934C25.2497 7.74584 18.2102 10.2443 12.3865 14.3198C12.358 14.3388 12.3295 14.3578 12.301 14.3863C12.2537 14.4148 12.1967 14.4338 12.13 14.4338C11.902 14.4433 11.7122 14.2628 11.7025 14.0348C11.6931 13.9588 11.7216 13.8828 11.7501 13.8258C11.8165 13.7593 11.8832 13.7023 11.9496 13.6453C18.343 7.91684 26.7126 4.32584 35.956 4.02183C43.024 3.78434 49.7027 5.49434 55.4785 8.67685C55.4785 8.67685 55.4882 8.67685 55.4882 8.68634C55.5452 8.71484 55.5925 8.74334 55.6495 8.77184C55.8966 8.90485 56.1152 9.07585 56.2956 9.28484C56.6376 9.67435 56.8465 10.1588 56.8562 10.6908Z" fill="#66687C"/>
<path d="M56.2484 27.2394C56.2293 27.2585 56.1914 27.2776 56.125 27.2776H55.9825V27.0496H56.1059C56.1723 27.0496 56.2105 27.059 56.239 27.0781C56.2675 27.0969 56.2769 27.1254 56.2769 27.1539C56.2769 27.1921 56.2675 27.2206 56.2484 27.2394ZM56.3433 27.3819C56.4003 27.344 56.4288 27.3155 56.4479 27.2776C56.467 27.2394 56.4764 27.1921 56.4764 27.1351C56.4764 27.1066 56.467 27.0684 56.4573 27.0399C56.4479 27.0114 56.4288 26.9829 56.4003 26.9641C56.3718 26.9356 56.3339 26.9165 56.2863 26.9071C56.239 26.888 56.1723 26.888 56.0965 26.888H55.7733V27.7336H55.9728V27.4295H56.1438V27.4389L56.2863 27.7336H56.5143L56.3433 27.3819ZM56.2484 27.2394C56.2293 27.2585 56.1914 27.2776 56.125 27.2776H55.9825V27.0496H56.1059C56.1723 27.0496 56.2105 27.059 56.239 27.0781C56.2675 27.0969 56.2769 27.1254 56.2769 27.1539C56.2769 27.1921 56.2675 27.2206 56.2484 27.2394ZM56.3433 27.3819C56.4003 27.344 56.4288 27.3155 56.4479 27.2776C56.467 27.2394 56.4764 27.1921 56.4764 27.1351C56.4764 27.1066 56.467 27.0684 56.4573 27.0399C56.4479 27.0114 56.4288 26.9829 56.4003 26.9641C56.3718 26.9356 56.3339 26.9165 56.2863 26.9071C56.239 26.888 56.1723 26.888 56.0965 26.888H55.7733V27.7336H55.9728V27.4295H56.1438V27.4389L56.2863 27.7336H56.5143L56.3433 27.3819ZM56.2484 27.2394C56.2293 27.2585 56.1914 27.2776 56.125 27.2776H55.9825V27.0496H56.1059C56.1723 27.0496 56.2105 27.059 56.239 27.0781C56.2675 27.0969 56.2769 27.1254 56.2769 27.1539C56.2769 27.1921 56.2675 27.2206 56.2484 27.2394ZM56.3433 27.3819C56.4003 27.344 56.4288 27.3155 56.4479 27.2776C56.467 27.2394 56.4764 27.1921 56.4764 27.1351C56.4764 27.1066 56.467 27.0684 56.4573 27.0399C56.4479 27.0114 56.4288 26.9829 56.4003 26.9641C56.3718 26.9356 56.3339 26.9165 56.2863 26.9071C56.239 26.888 56.1723 26.888 56.0965 26.888H55.7733V27.7336H55.9728V27.4295H56.1438V27.4389L56.2863 27.7336H56.5143L56.3433 27.3819ZM56.2484 27.2394C56.2293 27.2585 56.1914 27.2776 56.125 27.2776H55.9825V27.0496H56.1059C56.1723 27.0496 56.2105 27.059 56.239 27.0781C56.2675 27.0969 56.2769 27.1254 56.2769 27.1539C56.2769 27.1921 56.2675 27.2206 56.2484 27.2394ZM56.3433 27.3819C56.4003 27.344 56.4288 27.3155 56.4479 27.2776C56.467 27.2394 56.4764 27.1921 56.4764 27.1351C56.4764 27.1066 56.467 27.0684 56.4573 27.0399C56.4479 27.0114 56.4288 26.9829 56.4003 26.9641C56.3718 26.9356 56.3339 26.9165 56.2863 26.9071C56.239 26.888 56.1723 26.888 56.0965 26.888H55.7733V27.7336H55.9728V27.4295H56.1438V27.4389L56.2863 27.7336H56.5143L56.3433 27.3819ZM56.2484 27.2394C56.2293 27.2585 56.1914 27.2776 56.125 27.2776H55.9825V27.0496H56.1059C56.1723 27.0496 56.2105 27.059 56.239 27.0781C56.2675 27.0969 56.2769 27.1254 56.2769 27.1539C56.2769 27.1921 56.2675 27.2206 56.2484 27.2394ZM56.353 27.3819C56.4003 27.3534 56.4385 27.3249 56.4573 27.287C56.4764 27.2491 56.4858 27.2015 56.4858 27.1445C56.4858 27.116 56.4764 27.0781 56.467 27.0496C56.4573 27.0211 56.4385 26.9926 56.41 26.9735C56.3815 26.945 56.3433 26.9259 56.296 26.9165C56.2484 26.8974 56.182 26.8974 56.1059 26.8974H55.783V27.743H55.9825V27.4389H56.1535V27.4486L56.296 27.743H56.524L56.353 27.3819ZM56.5998 27.8476C56.4764 27.971 56.3245 28.028 56.125 28.028C55.9349 28.028 55.7733 27.971 55.6593 27.8476C55.5359 27.7239 55.4789 27.5529 55.4789 27.3249C55.4789 27.0969 55.5359 26.9259 55.6593 26.8025C55.783 26.6791 55.9349 26.6221 56.125 26.6221C56.3148 26.6221 56.4764 26.6791 56.5998 26.8025C56.7235 26.9259 56.7805 27.0969 56.7805 27.3249C56.7805 27.5529 56.7138 27.7239 56.5998 27.8476ZM56.9324 26.9641C56.8945 26.8595 56.8375 26.7646 56.7614 26.6885C56.6853 26.6124 56.5998 26.5554 56.4858 26.5081C56.3815 26.4699 56.2675 26.4414 56.125 26.4414C56.0013 26.4414 55.8873 26.4605 55.7924 26.5081C55.6878 26.546 55.6023 26.603 55.5168 26.6885C55.441 26.7646 55.3743 26.8595 55.3364 26.9641C55.2888 27.0684 55.27 27.2015 55.27 27.3346C55.27 27.4771 55.2888 27.6005 55.3364 27.7051C55.3743 27.8094 55.4313 27.9046 55.5074 27.9804C55.5835 28.0565 55.669 28.1135 55.783 28.1514C55.8873 28.1896 56.0013 28.2084 56.1344 28.2084C56.2578 28.2084 56.3718 28.1896 56.4764 28.1514C56.581 28.1135 56.6759 28.0565 56.752 27.9804C56.8278 27.9046 56.8945 27.8094 56.9324 27.7051C56.98 27.6005 56.9988 27.4674 56.9988 27.3346C56.9894 27.1921 56.9703 27.0684 56.9324 26.9641ZM56.2484 27.2394C56.2293 27.2585 56.1914 27.2776 56.125 27.2776H55.9825V27.0496H56.1059C56.1723 27.0496 56.2105 27.059 56.239 27.0781C56.2675 27.0969 56.2769 27.1254 56.2769 27.1539C56.2769 27.1921 56.2675 27.2206 56.2484 27.2394ZM56.3433 27.3819C56.4003 27.344 56.4288 27.3155 56.4479 27.2776C56.467 27.2394 56.4764 27.1921 56.4764 27.1351C56.4764 27.1066 56.467 27.0684 56.4573 27.0399C56.4479 27.0114 56.4288 26.9829 56.4003 26.9641C56.3718 26.9356 56.3339 26.9165 56.2863 26.9071C56.239 26.888 56.1723 26.888 56.0965 26.888H55.7733V27.7336H55.9728V27.4295H56.1438V27.4389L56.2863 27.7336H56.5143L56.3433 27.3819ZM56.2484 27.2394C56.2293 27.2585 56.1914 27.2776 56.125 27.2776H55.9825V27.0496H56.1059C56.1723 27.0496 56.2105 27.059 56.239 27.0781C56.2675 27.0969 56.2769 27.1254 56.2769 27.1539C56.2769 27.1921 56.2675 27.2206 56.2484 27.2394ZM56.3433 27.3819C56.4003 27.344 56.4288 27.3155 56.4479 27.2776C56.467 27.2394 56.4764 27.1921 56.4764 27.1351C56.4764 27.1066 56.467 27.0684 56.4573 27.0399C56.4479 27.0114 56.4288 26.9829 56.4003 26.9641C56.3718 26.9356 56.3339 26.9165 56.2863 26.9071C56.239 26.888 56.1723 26.888 56.0965 26.888H55.7733V27.7336H55.9728V27.4295H56.1438V27.4389L56.2863 27.7336H56.5143L56.3433 27.3819ZM56.2484 27.2394C56.2293 27.2585 56.1914 27.2776 56.125 27.2776H55.9825V27.0496H56.1059C56.1723 27.0496 56.2105 27.059 56.239 27.0781C56.2675 27.0969 56.2769 27.1254 56.2769 27.1539C56.2769 27.1921 56.2675 27.2206 56.2484 27.2394ZM56.3433 27.3819C56.4003 27.344 56.4288 27.3155 56.4479 27.2776C56.467 27.2394 56.4764 27.1921 56.4764 27.1351C56.4764 27.1066 56.467 27.0684 56.4573 27.0399C56.4479 27.0114 56.4288 26.9829 56.4003 26.9641C56.3718 26.9356 56.3339 26.9165 56.2863 26.9071C56.239 26.888 56.1723 26.888 56.0965 26.888H55.7733V27.7336H55.9728V27.4295H56.1438V27.4389L56.2863 27.7336H56.5143L56.3433 27.3819ZM56.2484 27.2394C56.2293 27.2585 56.1914 27.2776 56.125 27.2776H55.9825V27.0496H56.1059C56.1723 27.0496 56.2105 27.059 56.239 27.0781C56.2675 27.0969 56.2769 27.1254 56.2769 27.1539C56.2769 27.1921 56.2675 27.2206 56.2484 27.2394ZM56.3433 27.3819C56.4003 27.344 56.4288 27.3155 56.4479 27.2776C56.467 27.2394 56.4764 27.1921 56.4764 27.1351C56.4764 27.1066 56.467 27.0684 56.4573 27.0399C56.4479 27.0114 56.4288 26.9829 56.4003 26.9641C56.3718 26.9356 56.3339 26.9165 56.2863 26.9071C56.239 26.888 56.1723 26.888 56.0965 26.888H55.7733V27.7336H55.9728V27.4295H56.1438V27.4389L56.2863 27.7336H56.5143L56.3433 27.3819Z" fill="#66687C"/>
</g>
<defs>
<clipPath id="clip0_12887_24522">
<rect width="57" height="29.07" fill="white" transform="translate(0 4)"/>
</clipPath>
</defs>
</svg>
