<svg width="43" height="38" viewBox="0 0 43 38" fill="none" xmlns="http://www.w3.org/2000/svg">
<g clip-path="url(#clip0_12887_24706)">
<path d="M5.40725 15.6335C2.41875 15.6335 0 18.0523 0 21.0408C0 24.0293 2.41875 26.448 5.40725 26.448C8.39575 26.448 10.8145 24.0293 10.8145 21.0408C10.8145 18.0523 8.39575 15.6335 5.40725 15.6335ZM5.40725 23.7498C3.913 23.7498 2.69825 22.535 2.69825 21.0408C2.69825 19.5465 3.913 18.3318 5.40725 18.3318C6.9015 18.3318 8.11625 19.5465 8.11625 21.0408C8.11625 22.535 6.9015 23.7498 5.40725 23.7498Z" fill="#66687C"/>
<path d="M14.9107 22.8575C14.9107 22.4275 15.4267 22.2232 15.7277 22.5242C17.0822 23.9002 19.3182 26.2652 19.3289 26.276C19.3612 26.3082 19.3934 26.362 19.5224 26.405C19.5762 26.4265 19.6622 26.4265 19.7589 26.4265H22.1992C22.6399 26.4265 22.7689 25.9212 22.5647 25.6632L18.5227 21.5245L18.3077 21.3095C17.8454 20.7612 17.8992 20.5462 18.4259 19.9872L21.6294 16.4075C21.8337 16.1495 21.7047 15.655 21.2532 15.655H19.0387C18.9527 15.655 18.8882 15.655 18.8237 15.6765C18.6947 15.7195 18.6409 15.7625 18.6087 15.8055C18.5979 15.8162 16.8242 17.7297 15.7277 18.9015C15.4267 19.224 14.8892 19.009 14.8892 18.5682V12.43C14.8892 12.1182 14.6312 12 14.4269 12H12.6209C12.3092 12 12.1587 12.2042 12.1587 12.387V25.9965C12.1587 26.3082 12.4167 26.3942 12.6317 26.3942H14.4377C14.7172 26.3942 14.8999 26.19 14.8999 25.9857V25.846V22.8575H14.9107Z" fill="#66687C"/>
<path d="M29.6595 25.932L29.466 24.126C29.4445 23.8787 29.208 23.7067 28.9608 23.7497C28.821 23.7712 28.6813 23.782 28.5415 23.782C27.101 23.782 25.9293 22.6532 25.8433 21.2235C25.8433 21.1805 25.8433 21.1267 25.8433 21.073V18.8585C25.8433 18.5682 26.0583 18.3317 26.3485 18.3317H28.7673C28.9393 18.3317 29.1973 18.1812 29.1973 17.8695V16.1602C29.1973 15.827 28.9823 15.655 28.7888 15.655H26.3485C26.069 15.655 25.8433 15.4507 25.8325 15.1712V12.43C25.8325 12.258 25.7035 12 25.3703 12H23.575C23.3493 12 23.1343 12.1398 23.1343 12.4192C23.1343 12.4192 23.1343 21.1805 23.1343 21.2235C23.2095 24.1475 25.6068 26.4802 28.5415 26.4802C28.7888 26.4802 29.0253 26.4587 29.2618 26.4265C29.5198 26.3942 29.6918 26.1792 29.6595 25.932Z" fill="#66687C"/>
<path d="M42.6883 23.6638C41.1618 23.6638 40.9253 23.1156 40.9253 21.0623C40.9253 21.0516 40.9253 21.0516 40.9253 21.0408V16.1066C40.9253 15.9346 40.7963 15.6443 40.4523 15.6443H38.6463C38.4206 15.6443 38.1733 15.8271 38.1733 16.1066V16.3323C37.3886 15.8808 36.4748 15.6228 35.5073 15.6228C32.5188 15.6228 30.1001 18.0416 30.1001 21.0301C30.1001 24.0186 32.5188 26.4373 35.5073 26.4373C36.8511 26.4373 38.0766 25.9428 39.0226 25.1366C39.5278 25.9106 40.3448 26.4266 41.6241 26.4373C41.8391 26.4373 43.0001 26.4803 43.0001 25.9321V24.0078C43.0001 23.8466 42.8711 23.6638 42.6883 23.6638ZM35.5181 23.7498C34.0238 23.7498 32.8091 22.5351 32.8091 21.0408C32.8091 19.5466 34.0238 18.3318 35.5181 18.3318C37.0123 18.3318 38.2271 19.5466 38.2271 21.0408C38.2163 22.5351 37.0016 23.7498 35.5181 23.7498Z" fill="#66687C"/>
</g>
<defs>
<clipPath id="clip0_12887_24706">
<rect width="43" height="14.4802" fill="white" transform="translate(0 12)"/>
</clipPath>
</defs>
</svg>
