<svg width="67" height="38" viewBox="0 0 67 38" fill="none" xmlns="http://www.w3.org/2000/svg">
<g clip-path="url(#clip0_12887_24823)">
<path d="M29.347 23.4105L26.4593 15.3803C26.4211 15.2663 26.3704 15.127 26.3704 14.9877C26.3704 14.6457 26.6619 14.3037 27.0925 14.3037C27.4598 14.3037 27.7006 14.5444 27.8146 14.8864L30.2082 21.8146L32.6149 14.8737C32.729 14.5444 32.9443 14.3037 33.3115 14.3037H33.3873C33.7801 14.3037 34.0081 14.5444 34.1222 14.8737L36.5158 21.8146L38.9477 14.8611C39.0365 14.5697 39.2391 14.3037 39.6319 14.3037C40.037 14.3037 40.3284 14.6204 40.3284 14.9624C40.3284 15.089 40.2778 15.241 40.2396 15.355L37.3392 23.4105C37.1872 23.8284 36.8958 24.0565 36.5665 24.0565H36.5158C36.1486 24.0565 35.8699 23.8412 35.7434 23.4105L33.3749 16.5836L30.981 23.4105C30.8542 23.8284 30.5758 24.0565 30.2082 24.0565H30.1703C29.7903 24.0437 29.4865 23.8284 29.347 23.4105Z" fill="#66687C"/>
<path d="M50.3725 15.013C50.3725 14.6203 50.6891 14.291 51.0691 14.291C51.4746 14.291 51.7912 14.6077 51.7912 15.013V16.6469C52.4878 15.0636 54.0456 14.3163 55.0716 14.3163C55.5022 14.3163 55.7682 14.633 55.7682 15.0383C55.7682 15.4309 55.5149 15.6969 55.135 15.7602C53.2984 15.9756 51.7784 17.3688 51.7784 20.1046V23.3344C51.7784 23.7271 51.487 24.0565 51.0818 24.0565C50.6764 24.0565 50.3598 23.7397 50.3598 23.3344L50.3725 15.013Z" fill="#66687C"/>
<path d="M60.3402 24.145C57.7819 24.145 55.6921 22.1566 55.6921 19.2434V19.2054C55.6921 16.4949 57.5918 14.3037 60.1631 14.3037C62.9244 14.3037 64.4946 16.5836 64.4946 19.0788C64.4946 19.4588 64.1908 19.7374 63.8487 19.7374H57.1105C57.3134 21.7766 58.7317 22.9292 60.3912 22.9292C61.5436 22.9292 62.3921 22.4732 63.0763 21.8399C63.1903 21.7513 63.3168 21.6753 63.469 21.6753C63.8108 21.6753 64.0768 21.9539 64.0768 22.2832C64.0768 22.4479 64.0009 22.6126 63.8614 22.7392C62.975 23.5878 61.9363 24.145 60.3402 24.145ZM63.1014 18.6988C62.9623 16.9889 61.987 15.4943 60.1249 15.4943C58.504 15.4943 57.2752 16.8623 57.0981 18.6988H63.1014Z" fill="#66687C"/>
<path d="M40.3663 21.2069V21.169C40.3663 19.1677 42.0131 18.1038 44.4195 18.1038C45.6356 18.1038 46.4968 18.2685 47.3453 18.5091V18.1798C47.3453 16.4699 46.2942 15.5959 44.5207 15.5959C43.5709 15.5959 43.0135 15.7226 42.3169 16.0266C42.2284 16.0646 42.1398 16.0773 42.0637 16.0773C41.7344 16.0773 41.4429 15.7986 41.4429 15.4693C41.4429 15.178 41.5697 15.0007 41.8357 14.8867C42.773 14.4814 43.4696 14.342 44.6854 14.342C46.028 14.342 47.0539 14.684 47.7508 15.3933C48.3968 16.0393 48.7258 16.9512 48.7258 18.1671V23.4108C48.7258 23.816 48.4347 24.1075 48.0419 24.1075C47.6368 24.1075 47.3708 23.816 47.3708 23.4488V22.5495C46.7121 23.4108 45.6101 24.1833 43.9382 24.1833C42.1523 24.1708 40.3663 23.1575 40.3663 21.2069ZM47.3581 20.4723V19.5604C46.6615 19.3577 45.7241 19.1551 44.5714 19.1551C42.7982 19.1551 41.7977 19.9277 41.7977 21.1183V21.1563C41.7977 22.3469 42.8995 23.0435 44.179 23.0435C45.9267 23.0435 47.3581 21.9795 47.3581 20.4723Z" fill="#66687C"/>
<path d="M3.66086 14.9229C3.34422 14.2389 2.58427 13.935 1.86232 14.2516C1.14037 14.5683 0.874381 15.3662 1.20369 16.0502L4.21816 22.5984C4.68679 23.6244 5.19343 24.1565 6.13072 24.1565C7.13131 24.1565 7.57462 23.5737 8.04325 22.5984C8.04325 22.5984 10.6652 16.8735 10.7031 16.8101C10.7283 16.7468 10.8171 16.5695 11.0831 16.5695C11.3112 16.5695 11.501 16.7468 11.501 16.9875V22.5858C11.501 23.4471 11.9823 24.1565 12.8942 24.1565C13.8188 24.1565 14.3129 23.4471 14.3129 22.5858V18.0007C14.3129 17.1141 14.9461 16.5441 15.8073 16.5441C16.6686 16.5441 17.2388 17.1394 17.2388 18.0007V22.5858C17.2388 23.4471 17.72 24.1565 18.6319 24.1565C19.5566 24.1565 20.0506 23.4471 20.0506 22.5858V18.0007C20.0506 17.1141 20.6838 16.5441 21.5451 16.5441C22.4064 16.5441 22.9762 17.1394 22.9762 18.0007V22.5858C22.9762 23.4471 23.4578 24.1565 24.3697 24.1565C25.2943 24.1565 25.788 23.4471 25.788 22.5858V17.3674C25.788 15.4549 24.2429 14.1123 22.3936 14.1123C20.5446 14.1123 19.3792 15.3915 19.3792 15.3915C18.7587 14.5936 17.9099 14.1123 16.4788 14.1123C14.9588 14.1123 13.629 15.3915 13.629 15.3915C13.0082 14.5936 11.9571 14.1123 11.0959 14.1123C9.75331 14.1123 8.68924 14.7076 8.03061 16.1895L6.10537 20.7239L3.66086 14.9229Z" fill="#66687C"/>
<path d="M64.6109 15.5071C64.6109 14.8611 65.1301 14.3165 65.7888 14.3165C66.4472 14.3165 66.9667 14.8485 66.9667 15.4944C66.9667 16.1404 66.4472 16.6724 65.7888 16.6724C65.1174 16.6724 64.6109 16.1404 64.6109 15.5071ZM66.7259 15.4944C66.7259 14.9625 66.3207 14.5318 65.776 14.5318C65.2441 14.5318 64.8262 14.9751 64.8262 15.4944C64.8262 16.0137 65.2314 16.457 65.776 16.457C66.3207 16.457 66.7259 16.0137 66.7259 15.4944Z" fill="#66687C"/>
<path d="M65.3435 15.0124C65.3435 14.9364 65.3942 14.8857 65.47 14.8857H65.8627C66.0146 14.8857 66.1287 14.9237 66.192 14.9997C66.2554 15.0631 66.2933 15.1517 66.2933 15.2531C66.2933 15.4304 66.2048 15.5444 66.0653 15.595L66.2427 15.8104C66.2682 15.8357 66.2806 15.8737 66.2806 15.9117C66.2806 15.975 66.2172 16.0257 66.1666 16.0257C66.1159 16.0257 66.078 16.0004 66.0401 15.9624L65.7993 15.6584H65.5967V15.9117C65.5967 15.9877 65.5461 16.0384 65.47 16.0384C65.3942 16.0384 65.3435 15.9877 65.3435 15.9117V15.0124ZM65.85 15.4431C65.9767 15.4431 66.0401 15.3797 66.0401 15.2784C66.0401 15.1771 65.964 15.1137 65.85 15.1137H65.5967V15.4431H65.85Z" fill="#66687C"/>
</g>
<defs>
<clipPath id="clip0_12887_24823">
<rect width="66" height="10.4554" fill="white" transform="translate(1 14)"/>
</clipPath>
</defs>
</svg>
