<svg width="33" height="38" viewBox="0 0 33 38" fill="none" xmlns="http://www.w3.org/2000/svg">
<path fill-rule="evenodd" clip-rule="evenodd" d="M17.7981 8.71656C16.1719 8.71656 14.6996 9.39842 13.642 10.4995L13.6431 10.5058C12.4867 8.98183 10.6434 8 8.5834 8C5.06579 8 2.2107 10.8431 2.2107 14.3608C2.20971 15.2311 2.388 16.0923 2.7347 16.8907C1.10109 17.8544 0 19.6374 0 21.6853C0 24.7331 2.44559 27.2148 5.46928 27.2148C5.84744 27.2152 6.22461 27.1758 6.59446 27.0979C7.42577 29.3506 9.58213 30.9529 12.124 30.9529C14.5576 30.9529 16.6476 29.4711 17.5452 27.3628C18.2505 27.7068 19.0252 27.8849 19.81 27.8833C21.7374 27.8833 23.4302 26.8111 24.3155 25.233C24.771 25.3234 25.2359 25.3715 25.713 25.3715C29.6163 25.3715 32.7846 22.179 32.7846 18.2397C32.7846 14.3003 29.6163 11.1079 25.713 11.1079C24.7291 11.1074 23.7561 11.3147 22.8579 11.7163C21.8459 9.92125 19.9666 8.71656 17.7981 8.71656ZM19.3816 16.026C19.4449 16.0371 19.5076 16.052 19.5694 16.0706C19.5828 16.0759 19.6192 16.094 19.6044 16.1369L19.459 16.5359C19.4469 16.5659 19.4386 16.5842 19.3766 16.5653C19.3612 16.5607 19.3382 16.5541 19.2795 16.5415C19.2365 16.5326 19.1805 16.5258 19.1233 16.5258C19.0541 16.5248 18.9854 16.5347 18.9193 16.5552C18.8592 16.5749 18.8045 16.6089 18.7602 16.6542C18.7127 16.7018 18.6567 16.771 18.6268 16.8569C18.567 17.0299 18.5382 17.2121 18.5293 17.2686L18.5293 17.2686L18.5293 17.2687L18.5293 17.2688C18.5286 17.2733 18.528 17.277 18.5275 17.2799C18.5271 17.2827 18.5267 17.2846 18.5265 17.2856H19.134C19.1849 17.2853 19.2011 17.3089 19.1962 17.3468L19.1253 17.7419C19.1144 17.7991 19.0616 17.7972 19.0616 17.7972H18.4357L18.0075 20.2197C17.9625 20.4702 17.9063 20.6851 17.8404 20.8582C17.774 21.0329 17.7043 21.161 17.5935 21.2832C17.4912 21.3966 17.3754 21.4803 17.2424 21.5284C17.1103 21.5761 16.9508 21.6007 16.7758 21.6007C16.6925 21.6007 16.6033 21.5991 16.4976 21.5742C16.4214 21.5562 16.3799 21.5434 16.3239 21.5234C16.3001 21.5149 16.2811 21.4853 16.2946 21.4477C16.3078 21.4096 16.4198 21.1018 16.4357 21.0614C16.455 21.012 16.5043 21.0308 16.5043 21.0308L16.5072 21.0321L16.5073 21.0321C16.5395 21.0456 16.5628 21.0554 16.6068 21.0641C16.6519 21.0731 16.7131 21.0808 16.7592 21.0808C16.8417 21.0808 16.9173 21.0707 16.9828 21.0487C17.0622 21.022 17.1081 20.9764 17.1568 20.9144C17.2068 20.8503 17.2476 20.762 17.2891 20.6441C17.3315 20.5248 17.3697 20.3672 17.4031 20.1756L17.8292 17.7972H17.4093C17.3586 17.7974 17.3424 17.7738 17.3473 17.736L17.4182 17.3409C17.4292 17.2834 17.4819 17.2856 17.4819 17.2856H17.9133L17.9364 17.1568C18.0009 16.7753 18.1296 16.4853 18.3183 16.2949C18.5087 16.1032 18.7796 16.0061 19.1233 16.0061C19.2098 16.0051 19.2963 16.0118 19.3816 16.026ZM11.0249 20.2384C11.0567 20.2384 11.0793 20.2125 11.0793 20.1807V16.1247C11.0793 16.093 11.0567 16.0674 11.0249 16.0674H10.5211C10.489 16.0674 10.4664 16.093 10.4664 16.1247V20.1807C10.4664 20.2125 10.489 20.2384 10.5211 20.2384H11.0249ZM4.78426 19.9657C4.77447 19.9563 4.75841 19.9409 4.7754 19.8966L4.77481 19.8956L4.90739 19.5269C4.92837 19.4638 4.97646 19.4849 4.99585 19.4966C5.01048 19.5055 5.0236 19.5141 5.03714 19.5229C5.0573 19.5361 5.07837 19.5498 5.10667 19.5663C5.49808 19.8138 5.85942 19.8157 5.97281 19.8157C6.2643 19.8157 6.44635 19.6603 6.44635 19.4519V19.4406C6.44635 19.2141 6.16674 19.1278 5.84399 19.0286L5.77255 19.0064C5.32929 18.8799 4.85456 18.6968 4.85456 18.1354V18.124C4.85456 17.5915 5.28476 17.2192 5.90038 17.2192L5.96747 17.219C6.32881 17.219 6.67827 17.3238 6.93117 17.478C6.95412 17.4917 6.97649 17.5184 6.96382 17.5537C6.95175 17.5874 6.83935 17.8882 6.82649 17.9223C6.80274 17.9853 6.73744 17.9431 6.73744 17.9431C6.51699 17.8213 6.17248 17.7251 5.88337 17.7251C5.62315 17.7251 5.45435 17.8636 5.45435 18.0516V18.0628C5.45435 18.282 5.74227 18.3762 6.07611 18.4844L6.13369 18.5031C6.57478 18.6416 7.04693 18.8356 7.04693 19.368V19.3794C7.04693 19.9552 6.629 20.313 5.95678 20.313C5.62651 20.313 5.31088 20.2612 4.97606 20.0841C4.96159 20.0758 4.94714 20.0676 4.9327 20.0595C4.88454 20.0323 4.83661 20.0053 4.78926 19.971C4.78872 19.9702 4.78804 19.9694 4.78725 19.9686C4.78637 19.9677 4.78536 19.9667 4.78426 19.9657ZM14.6265 19.9648C14.6165 19.9555 14.6002 19.9402 14.6172 19.8956L14.6159 19.8946L14.7482 19.526C14.7676 19.4657 14.8244 19.4879 14.8367 19.4956L14.8595 19.5105C14.8857 19.5276 14.9107 19.5439 14.9475 19.5654C15.3379 19.8128 15.7001 19.8148 15.8137 19.8148C16.1053 19.8148 16.2872 19.6594 16.2872 19.4509V19.4396C16.2872 19.2131 16.009 19.1269 15.6848 19.0276L15.6136 19.0054C15.1703 18.879 14.6956 18.6958 14.6956 18.1344V18.123C14.6956 17.5905 15.1258 17.2183 15.7414 17.2183L15.8085 17.218C16.17 17.218 16.5193 17.3228 16.7724 17.477C16.7952 17.4908 16.8177 17.5174 16.8049 17.5527C16.794 17.5864 16.6816 17.8872 16.6687 17.9213C16.6448 17.9843 16.5795 17.9422 16.5795 17.9422C16.3578 17.8204 16.0145 17.7241 15.7254 17.7241C15.4652 17.7241 15.2966 17.8627 15.2966 18.0506V18.0618C15.2966 18.2811 15.5845 18.3753 15.9181 18.4834L15.9759 18.5021C16.418 18.6407 16.889 18.8346 16.889 19.3671V19.3784C16.889 19.9543 16.471 20.312 15.7988 20.312C15.4687 20.312 15.1531 20.2603 14.8181 20.0832C14.8032 20.0745 14.7882 20.0661 14.7733 20.0577L14.7733 20.0576L14.7733 20.0576L14.7733 20.0576C14.7257 20.0308 14.6782 20.004 14.6315 19.97C14.6303 19.9684 14.6285 19.9668 14.6265 19.9648ZM21.1585 19.5308C21.2772 19.349 21.338 19.0926 21.338 18.7676C21.338 18.4427 21.278 18.1874 21.1585 18.0081C21.0404 17.8306 20.8621 17.7442 20.6116 17.7442C20.3611 17.7442 20.1836 17.8298 20.067 18.0081C19.9497 18.1876 19.8899 18.443 19.8899 18.7682C19.8899 19.0935 19.9493 19.3513 20.067 19.532C20.184 19.711 20.3623 19.7982 20.6116 19.7982C20.8609 19.7982 21.04 19.7103 21.1585 19.5308ZM21.644 17.6768C21.7585 17.8141 21.844 17.978 21.8994 18.1647H21.8982C21.9529 18.3502 21.9808 18.5538 21.9808 18.7682C21.9808 18.9839 21.9529 19.1863 21.8982 19.3718C21.8428 19.5585 21.7571 19.7224 21.6428 19.8597C21.5284 19.997 21.3826 20.1069 21.2116 20.185C21.0404 20.263 20.838 20.3028 20.6104 20.3028C20.3826 20.3028 20.1802 20.263 20.008 20.185C19.8369 20.1067 19.6912 19.997 19.5766 19.8597C19.4623 19.7224 19.3764 19.5585 19.3214 19.3718C19.2666 19.1863 19.2387 18.9839 19.2387 18.7682C19.2387 18.5526 19.2666 18.3502 19.3214 18.1647C19.3768 17.978 19.4625 17.8141 19.5766 17.6768C19.6912 17.5394 19.8369 17.4291 20.008 17.3491C20.1802 17.2692 20.3814 17.2286 20.6104 17.2286C20.8392 17.2286 21.0416 17.269 21.2128 17.3491C21.3849 17.4286 21.5294 17.5394 21.644 17.6768ZM26.4405 19.6727C26.4405 19.6727 26.4937 19.6521 26.5121 19.7067L26.6513 20.0874C26.6689 20.1346 26.6283 20.1541 26.6283 20.1541C26.4164 20.2381 26.1211 20.2963 25.8332 20.2963C25.3466 20.2963 24.973 20.1565 24.7248 19.8794C24.4767 19.6036 24.3514 19.2265 24.3514 18.7615C24.3514 18.5459 24.3821 18.3422 24.443 18.1567C24.5044 17.97 24.596 17.8062 24.7165 17.6688C24.8368 17.5315 24.9886 17.421 25.1683 17.3411C25.3478 17.2612 25.5573 17.2208 25.7934 17.2208C25.9525 17.2208 26.0934 17.2304 26.2151 17.249C26.3451 17.2686 26.5169 17.3152 26.5897 17.3437C26.6032 17.3489 26.6398 17.3669 26.6247 17.4097C26.5893 17.51 26.5612 17.587 26.5316 17.6679L26.5316 17.668L26.4862 17.7928C26.4652 17.8507 26.4213 17.8316 26.4213 17.8316C26.2357 17.7735 26.0586 17.7467 25.8273 17.7467C25.5502 17.7467 25.3407 17.8406 25.2045 18.0213C25.0666 18.2044 24.9896 18.443 24.9888 18.761C24.9876 19.1104 25.0743 19.3682 25.2298 19.5284C25.384 19.6885 25.6009 19.7693 25.8718 19.7693C25.9814 19.7693 26.0855 19.762 26.1791 19.7473C26.2719 19.7328 26.359 19.7039 26.4405 19.6727ZM27.4945 18.4536L27.4944 18.4538L27.4885 18.4536L27.4945 18.4536ZM27.4945 18.4536C27.5214 18.273 27.5709 18.1225 27.6486 18.0057C27.7652 17.8274 27.9427 17.7298 28.192 17.7298C28.4413 17.7298 28.6064 17.8278 28.7245 18.0057C28.8029 18.1231 28.8369 18.2791 28.8498 18.4538L27.4945 18.4536ZM29.1424 17.6117C29.2196 17.6948 29.3379 17.8768 29.3858 18.0563L29.3884 18.0566C29.5027 18.4575 29.4544 18.8078 29.4462 18.8667L29.4452 18.8746C29.4399 18.9235 29.3898 18.924 29.3898 18.924L27.4863 18.9225C27.4972 19.2117 27.5671 19.4153 27.7068 19.555C27.8441 19.6915 28.0622 19.7786 28.3574 19.7791C28.7692 19.7802 28.9658 19.7044 29.1005 19.6525L29.1381 19.6381C29.1381 19.6381 29.1905 19.6193 29.2095 19.6713L29.3336 20.0194C29.3585 20.0781 29.3385 20.0985 29.3176 20.1103C29.1994 20.1765 28.9103 20.2988 28.361 20.3006C28.0948 20.3015 27.8623 20.263 27.6708 20.1889C27.478 20.1142 27.3177 20.0082 27.1925 19.8721C27.0672 19.7372 26.9742 19.5745 26.9166 19.389C26.8594 19.2047 26.8305 19.0011 26.8305 18.7819C26.8305 18.5674 26.8584 18.3626 26.9138 18.1759C26.9693 17.9867 27.0561 17.8217 27.1717 17.682C27.2873 17.5422 27.4343 17.4304 27.609 17.3482C27.7836 17.2667 27.9993 17.2266 28.2365 17.2266C28.4237 17.2263 28.6089 17.2638 28.7811 17.337C28.9004 17.3876 29.0195 17.4804 29.1424 17.6117ZM12.2793 18.4536L12.2792 18.4538L12.2731 18.4536L12.2793 18.4536ZM13.6345 18.4538L12.2793 18.4536C12.306 18.273 12.3556 18.1225 12.4334 18.0057C12.5499 17.8274 12.7272 17.7298 12.9768 17.7298C13.2261 17.7298 13.3911 17.8278 13.5091 18.0057C13.5874 18.1231 13.6215 18.2791 13.6345 18.4538ZM13.9272 17.6117C14.0044 17.6948 14.1229 17.8768 14.1706 18.0563L14.1718 18.0566C14.2862 18.4575 14.238 18.8078 14.2298 18.8667L14.2288 18.8746C14.2236 18.9235 14.1734 18.924 14.1734 18.924L12.2699 18.9225C12.2808 19.2117 12.3507 19.4153 12.4906 19.555C12.6279 19.6915 12.8472 19.7786 13.141 19.7791C13.5528 19.7802 13.7494 19.7044 13.8841 19.6525L13.9217 19.6381C13.9217 19.6381 13.9741 19.6193 13.9933 19.6713L14.1174 20.0194C14.1423 20.0781 14.1223 20.0985 14.1014 20.1103C13.9834 20.1765 13.6943 20.2988 13.1448 20.3006C12.8774 20.3015 12.6461 20.263 12.4545 20.1889C12.2618 20.1142 12.1015 20.0082 11.9763 19.8721C11.8522 19.7372 11.7592 19.5745 11.7016 19.389C11.6442 19.2047 11.6153 19.0011 11.6153 18.7819C11.6153 18.5674 11.6432 18.3626 11.6984 18.1759C11.7538 17.9867 11.8411 17.8217 11.9563 17.682C12.072 17.5422 12.2189 17.4304 12.3936 17.3482C12.5683 17.2667 12.784 17.2266 13.0213 17.2266C13.2083 17.2263 13.3935 17.2638 13.5659 17.337C13.685 17.3876 13.8043 17.4804 13.9272 17.6117ZM8.06149 19.5819C8.08623 19.6205 8.09652 19.6351 8.17112 19.6946L8.17231 19.6953C8.17112 19.6949 8.34209 19.8295 8.72876 19.8062C9.00105 19.7898 9.24168 19.7379 9.24168 19.7379V18.8741C9.0711 18.8479 8.89874 18.8332 8.72619 18.8302C8.33833 18.8253 8.1733 18.9677 8.17448 18.9675C8.05991 19.0482 8.0045 19.1687 8.0045 19.3349C8.0045 19.4409 8.02389 19.5237 8.06149 19.5819ZM8.6314 18.349C8.75053 18.349 8.85066 18.3518 8.92764 18.3574L8.92942 18.3619C8.92942 18.3619 9.08001 18.3755 9.24267 18.3991V18.3188C9.24267 18.0658 9.18983 17.9454 9.08614 17.8658C8.98007 17.7845 8.82117 17.7429 8.61636 17.7429C8.61636 17.7429 8.15371 17.7369 7.78861 17.9357C7.77179 17.9457 7.75754 17.9513 7.75754 17.9513C7.75754 17.9513 7.71183 17.9674 7.69501 17.9205L7.56005 17.5591C7.53967 17.5067 7.57726 17.4835 7.57726 17.4835C7.74824 17.3496 8.16281 17.2691 8.16281 17.2691C8.30014 17.2415 8.53009 17.2222 8.67237 17.2222C9.05171 17.2222 9.34458 17.3102 9.54445 17.4849C9.7453 17.6595 9.84682 17.9427 9.84682 18.3233L9.848 20.0581C9.848 20.0581 9.85157 20.1083 9.80467 20.1203C9.80467 20.1203 9.73422 20.1394 9.67089 20.154C9.51219 20.1884 9.3527 20.2194 9.19261 20.247C9.00461 20.2787 8.81069 20.2951 8.61557 20.2951C8.42996 20.2951 8.26136 20.2778 8.11195 20.2437C7.96136 20.21 7.83095 20.1532 7.72528 20.0763C7.61902 19.9993 7.53373 19.897 7.47714 19.7787C7.41935 19.6595 7.39007 19.5137 7.39007 19.345C7.39007 19.1788 7.4243 19.0318 7.49178 18.9065C7.55847 18.7823 7.65286 18.6752 7.76763 18.5933C7.88201 18.5109 8.01578 18.449 8.164 18.409C8.31083 18.3692 8.46874 18.349 8.6314 18.349ZM24.2315 17.3579C24.2315 17.3648 24.2301 17.3717 24.2274 17.378L24.2285 17.3702C24.2105 17.422 24.1179 17.6821 24.0853 17.7689C24.0728 17.8019 24.0524 17.8244 24.0158 17.8203C24.0158 17.8203 23.9068 17.7947 23.8074 17.7947C23.721 17.7947 23.6351 17.8068 23.552 17.8306C23.4635 17.8581 23.383 17.9064 23.3171 17.9716C23.248 18.039 23.192 18.1331 23.1509 18.2511C23.1091 18.3703 23.0881 18.5595 23.0881 18.7498V20.1713C23.0881 20.1866 23.082 20.2013 23.0711 20.2121C23.0604 20.2229 23.0458 20.229 23.0305 20.229H22.5317C22.5164 20.229 22.5018 20.2229 22.4909 20.2121C22.4802 20.2013 22.4741 20.1866 22.4741 20.1713V17.3403C22.4741 17.3085 22.4968 17.2828 22.5285 17.2828H23.0151C23.0472 17.2828 23.0697 17.3085 23.0697 17.3403L23.0699 17.5716C23.1423 17.4728 23.2726 17.3874 23.3905 17.3343C23.5096 17.2808 23.6422 17.2406 23.8807 17.2555C24.0049 17.2632 24.1664 17.2973 24.1989 17.3096C24.2052 17.3121 24.2111 17.3159 24.2161 17.3207C24.221 17.3256 24.225 17.3314 24.2276 17.3377C24.2303 17.3441 24.2315 17.351 24.2315 17.3579Z" fill="#66687C"/>
</svg>
