<svg width="42" height="38" viewBox="0 0 42 38" fill="none" xmlns="http://www.w3.org/2000/svg">
<mask id="mask0_12894_25139" style="mask-type:luminance" maskUnits="userSpaceOnUse" x="1" y="9" width="41" height="21">
<path d="M1 8.99995V29.26H41.7602V8.99995" fill="white"/>
</mask>
<g mask="url(#mask0_12894_25139)">
<path d="M6.61119 21.1629C5.77845 22.6718 5.46275 24.1534 6.04667 25.2985C7.86667 28.8709 16.3218 28.8201 24.4479 25.4162C26.492 24.5607 28.3448 23.5621 29.9454 22.4899C34.707 19.3001 36.5524 15.7016 35.1899 13.0274C33.3693 9.45498 25.9809 9.07573 17.8555 12.4789C16.9853 12.8435 16.1506 13.2307 15.3553 13.6361L14.6724 13.6408C15.8309 13.004 17.1258 12.3512 18.4341 11.8034C27.6718 7.93397 36.8388 8.08982 38.9082 12.1512C40.462 15.2006 38.0955 19.4606 32.6496 23.0932C30.8416 24.2992 28.5762 25.5326 26.2746 26.4971C17.0362 30.3658 7.78033 30.1271 5.71085 26.0657C4.97777 24.6276 5.10423 22.9414 6.07476 21.1569L6.61119 21.1629ZM8.50472 18.575C9.03313 17.9884 9.58229 17.5209 10.2665 16.9517L10.2839 16.5156C9.42912 17.1958 8.66391 17.8921 7.99972 18.5911L8.50472 18.575Z" fill="#66687C"/>
<path d="M40.8959 13.9664V13.7858H41.0671C41.1427 13.7858 41.225 13.7858 41.225 13.8674C41.225 13.947 41.1935 13.9684 41.1059 13.9664H40.8959ZM40.8959 14.1129H41.0102L41.1855 14.438H41.3862L41.1935 14.1129C41.334 14.0949 41.4096 14.0367 41.4096 13.8908C41.4096 13.8086 41.3882 13.721 41.3166 13.6761C41.2577 13.6414 41.1701 13.6393 41.1019 13.6393H40.7206V14.438H40.8959V14.1129ZM41.0276 14.7925C41.429 14.7925 41.76 14.4634 41.76 14.0601C41.76 13.6567 41.429 13.3277 41.0276 13.3277C40.623 13.3277 40.2959 13.6567 40.2959 14.0601C40.2959 14.4634 40.623 14.7925 41.0276 14.7925ZM41.0276 13.5223C41.3106 13.5223 41.5654 13.7464 41.5654 14.0601C41.5654 14.3718 41.3106 14.5978 41.0276 14.5978C40.742 14.5978 40.4905 14.3718 40.4905 14.0601C40.4905 13.7464 40.742 13.5223 41.0276 13.5223Z" fill="#66687C"/>
<path d="M9.19944 18.3376C8.5319 20.8586 6.49985 21.8525 4.45244 21.8525C1.55891 21.8525 0.594424 20.0934 1.14892 17.4842C1.61378 14.9197 3.51602 13.184 6.30587 13.184C8.38806 13.184 9.97191 14.0288 9.43214 16.8601H6.43227C6.62223 15.5137 6.31796 15.3311 5.91731 15.3364C5.07186 15.3364 4.8083 16.1999 4.52805 17.5183C4.26251 18.7684 4.13269 19.7001 4.9554 19.7001C5.37812 19.7001 5.71662 19.45 6.13066 18.3376H9.19944Z" fill="#66687C"/>
</g>
<path d="M13.4927 15.2676H13.8118C14.3368 15.2676 14.6037 15.4616 14.7388 15.7927C14.8826 16.1358 14.8271 16.7184 14.6572 17.5184C14.4873 18.3183 14.2953 18.9009 14.005 19.2434C13.7295 19.5752 13.3803 19.7691 12.8553 19.7691H12.5355L13.4927 15.2676ZM8.94238 21.6406H13.0051C15.5428 21.6406 17.4952 20.1002 18.0243 17.6093C18.544 15.1646 17.8671 13.3961 14.5635 13.3961H10.6948L8.94238 21.6406Z" fill="#66687C"/>
<path d="M18.7471 13.3959H21.6714L21.2681 18.5703H21.2908L23.1563 13.3959H26.5375L26.203 18.5703H26.2257L28.0223 13.3959H30.9466L27.4123 21.6384H23.8713L24.2425 16.2908H24.2198L22.3182 21.6384H18.7772L18.7471 13.3959Z" fill="#66687C"/>
</svg>
