<svg width="42" height="38" viewBox="0 0 42 38" fill="none" xmlns="http://www.w3.org/2000/svg">
<g clip-path="url(#clip0_12894_24846)">
<g clip-path="url(#clip1_12894_24846)">
<mask id="mask0_12894_24846" style="mask-type:luminance" maskUnits="userSpaceOnUse" x="0" y="12" width="42" height="14">
<path d="M41.86 12H0.209961V26H41.86V12Z" fill="white"/>
</mask>
<g mask="url(#mask0_12894_24846)">
<path d="M16.6252 15.6751C13.7902 15.6751 11.4802 17.9851 11.4802 20.8201C11.4802 23.6551 13.7902 25.9651 16.6252 25.9651C19.4602 25.9651 21.7702 23.6551 21.7702 20.8201C21.7352 17.9851 19.4602 15.6751 16.6252 15.6751ZM18.8302 20.8201C18.8302 22.0451 17.8502 23.0251 16.6252 23.0251C15.4002 23.0251 14.4202 22.0451 14.4202 20.8201C14.4202 19.5951 15.4002 18.6151 16.6252 18.6151C17.8152 18.6151 18.8302 19.5951 18.8302 20.8201ZM9.10015 12.0701C8.26015 12.0701 7.63015 12.7351 7.63015 13.6801V16.0601C7.42015 15.9901 7.24515 15.9201 7.10515 15.8851C4.62015 15.0101 1.85514 16.1301 0.700144 18.5451C-0.454857 20.8901 0.315143 23.7601 2.59015 25.1601C4.30515 26.2101 6.12515 26.3151 7.87515 25.3351C9.66015 24.3201 10.5702 22.7101 10.6052 20.7151C10.6402 17.9151 10.6052 16.4451 10.6052 13.7151C10.6052 12.7351 10.0102 12.0701 9.10015 12.0701ZM6.96515 22.3951C6.09015 23.2001 4.65515 23.1651 3.85015 22.2901C3.04515 21.4151 3.08015 19.9451 3.92015 19.1751C4.83015 18.3351 6.26515 18.3701 7.07015 19.2801C7.87515 20.1551 7.84015 21.5551 6.96515 22.3951Z" fill="#66687C"/>
<path d="M41.7898 20.82C41.7898 22.185 41.2298 23.515 40.2498 24.495C38.2198 26.4901 34.9648 26.4551 32.9698 24.425C31.9898 25.405 30.6947 25.9651 29.2947 25.9651C26.4597 25.9651 24.1497 23.655 24.1497 20.82V17.145C24.1497 16.34 24.8147 15.675 25.6197 15.675C26.4247 15.675 27.0897 16.34 27.0897 17.145V20.82C27.0897 22.01 28.0697 22.99 29.2597 22.99C30.4848 22.99 31.4648 22.01 31.4648 20.82V13.54C31.4648 12.735 32.1298 12.07 32.9348 12.07C33.7398 12.07 34.4048 12.735 34.4048 13.54V15.675H36.9598C37.7648 15.675 38.4298 16.34 38.4298 17.145C38.4298 17.95 37.7648 18.615 36.9598 18.615H34.4048V20.82V20.855C34.4048 22.08 35.4198 23.06 36.6098 23.025C37.8348 23.025 38.8148 22.01 38.7798 20.82C38.7798 20.015 39.4448 19.35 40.2498 19.35C41.1248 19.35 41.7548 20.015 41.7898 20.82ZM24.2197 14.1C24.2547 14.205 24.2897 14.275 24.3597 14.345C24.4297 14.415 24.4647 14.485 24.5347 14.555C24.6047 14.625 24.6747 14.695 24.7447 14.73C24.8147 14.765 24.8847 14.835 24.9897 14.87C25.0947 14.905 25.1647 14.94 25.2697 14.94C25.3747 14.94 25.4447 14.975 25.5497 14.975C25.9347 14.975 26.3197 14.835 26.5647 14.52C26.6347 14.45 26.6697 14.38 26.7397 14.31C26.7747 14.24 26.8447 14.17 26.8797 14.065C27.0197 13.995 27.0547 13.89 27.0547 13.785C27.0547 13.68 27.0897 13.61 27.0897 13.505C27.0897 13.4 27.0897 13.295 27.0547 13.225C27.0197 13.155 27.0197 13.05 26.9847 12.945C26.9497 12.84 26.9147 12.77 26.8447 12.7C26.7747 12.63 26.7397 12.56 26.6697 12.49C26.3547 12.175 25.8297 11.965 25.3397 12.07C25.2347 12.105 25.1647 12.105 25.0597 12.14C24.9547 12.175 24.8847 12.21 24.8147 12.28C24.6747 12.315 24.6047 12.35 24.5347 12.42C24.4647 12.49 24.4297 12.56 24.3597 12.63C24.2897 12.7 24.2547 12.805 24.2197 12.875C24.1847 12.98 24.1497 13.05 24.1497 13.155C24.1497 13.26 24.1147 13.33 24.1147 13.435C24.1147 13.54 24.1147 13.645 24.1497 13.715C24.1497 13.89 24.1847 13.995 24.2197 14.1Z" fill="#66687C"/>
</g>
</g>
</g>
<defs>
<clipPath id="clip0_12894_24846">
<rect width="42" height="14" fill="white" transform="translate(0 12)"/>
</clipPath>
<clipPath id="clip1_12894_24846">
<rect width="41.86" height="14" fill="white" transform="translate(0 12)"/>
</clipPath>
</defs>
</svg>
