<svg width="91" height="40" viewBox="0 0 91 40" fill="none" xmlns="http://www.w3.org/2000/svg">
<path d="M14.625 27.5C14.2935 27.5 13.9755 27.3683 13.7411 27.1339C13.5067 26.8995 13.375 26.5815 13.375 26.25V21.25C13.375 20.9185 13.5067 20.6005 13.7411 20.3661C13.9755 20.1317 14.2935 20 14.625 20C14.9565 20 15.2745 20.1317 15.5089 20.3661C15.7433 20.6005 15.875 20.9185 15.875 21.25V26.25C15.875 26.5815 15.7433 26.8995 15.5089 27.1339C15.2745 27.3683 14.9565 27.5 14.625 27.5ZM20.875 27.5C20.5435 27.5 20.2255 27.3683 19.9911 27.1339C19.7567 26.8995 19.625 26.5815 19.625 26.25V13.75C19.625 13.4185 19.7567 13.1005 19.9911 12.8661C20.2255 12.6317 20.5435 12.5 20.875 12.5C21.2065 12.5 21.5245 12.6317 21.7589 12.8661C21.9933 13.1005 22.125 13.4185 22.125 13.75V26.25C22.125 26.5815 21.9933 26.8995 21.7589 27.1339C21.5245 27.3683 21.2065 27.5 20.875 27.5ZM27.125 27.5C26.7935 27.5 26.4755 27.3683 26.2411 27.1339C26.0067 26.8995 25.875 26.5815 25.875 26.25V18.75C25.875 18.4185 26.0067 18.1005 26.2411 17.8661C26.4755 17.6317 26.7935 17.5 27.125 17.5C27.4565 17.5 27.7745 17.6317 28.0089 17.8661C28.2433 18.1005 28.375 18.4185 28.375 18.75V26.25C28.375 26.5815 28.2433 26.8995 28.0089 27.1339C27.7745 27.3683 27.4565 27.5 27.125 27.5Z" fill="#DAE8E8"/>
<path opacity="0.3" d="M29.625 7.5H12.125C11.1304 7.5 10.1766 7.89509 9.47335 8.59835C8.77009 9.30161 8.375 10.2554 8.375 11.25V28.75C8.375 29.7446 8.77009 30.6984 9.47335 31.4017C10.1766 32.1049 11.1304 32.5 12.125 32.5H29.625C30.6196 32.5 31.5734 32.1049 32.2767 31.4017C32.9799 30.6984 33.375 29.7446 33.375 28.75V11.25C33.375 10.2554 32.9799 9.30161 32.2767 8.59835C31.5734 7.89509 30.6196 7.5 29.625 7.5ZM15.875 26.25C15.875 26.5815 15.7433 26.8995 15.5089 27.1339C15.2745 27.3683 14.9565 27.5 14.625 27.5C14.2935 27.5 13.9755 27.3683 13.7411 27.1339C13.5067 26.8995 13.375 26.5815 13.375 26.25V21.25C13.375 20.9185 13.5067 20.6005 13.7411 20.3661C13.9755 20.1317 14.2935 20 14.625 20C14.9565 20 15.2745 20.1317 15.5089 20.3661C15.7433 20.6005 15.875 20.9185 15.875 21.25V26.25ZM22.125 26.25C22.125 26.5815 21.9933 26.8995 21.7589 27.1339C21.5245 27.3683 21.2065 27.5 20.875 27.5C20.5435 27.5 20.2255 27.3683 19.9911 27.1339C19.7567 26.8995 19.625 26.5815 19.625 26.25V13.75C19.625 13.4185 19.7567 13.1005 19.9911 12.8661C20.2255 12.6317 20.5435 12.5 20.875 12.5C21.2065 12.5 21.5245 12.6317 21.7589 12.8661C21.9933 13.1005 22.125 13.4185 22.125 13.75V26.25ZM28.375 26.25C28.375 26.5815 28.2433 26.8995 28.0089 27.1339C27.7745 27.3683 27.4565 27.5 27.125 27.5C26.7935 27.5 26.4755 27.3683 26.2411 27.1339C26.0067 26.8995 25.875 26.5815 25.875 26.25V18.75C25.875 18.4185 26.0067 18.1005 26.2411 17.8661C26.4755 17.6317 26.7935 17.5 27.125 17.5C27.4565 17.5 27.7745 17.6317 28.0089 17.8661C28.2433 18.1005 28.375 18.4185 28.375 18.75V26.25Z" fill="#DAE8E8"/>
<path d="M50.923 25.692C49.803 25.692 48.843 25.4947 48.043 25.1C47.2537 24.7053 46.6457 24.092 46.219 23.26C45.803 22.4173 45.595 21.3347 45.595 20.012C45.595 18.0813 46.0643 16.652 47.003 15.724C47.9417 14.796 49.2483 14.332 50.923 14.332C51.8297 14.332 52.6457 14.4867 53.371 14.796C54.107 15.1053 54.6883 15.5747 55.115 16.204C55.5523 16.8227 55.771 17.612 55.771 18.572H53.643C53.643 18.0387 53.5257 17.5907 53.291 17.228C53.067 16.8547 52.7523 16.572 52.347 16.38C51.9417 16.188 51.4777 16.092 50.955 16.092C50.2297 16.092 49.627 16.236 49.147 16.524C48.667 16.8013 48.3097 17.2173 48.075 17.772C47.851 18.3267 47.739 19.0147 47.739 19.836V20.188C47.739 21.02 47.851 21.7133 48.075 22.268C48.3097 22.8227 48.6617 23.2387 49.131 23.516C49.611 23.7933 50.219 23.932 50.955 23.932C51.5097 23.932 51.995 23.8413 52.411 23.66C52.827 23.468 53.147 23.1907 53.371 22.828C53.6057 22.4547 53.723 22.0013 53.723 21.468H55.771C55.771 22.428 55.5577 23.2227 55.131 23.852C54.7043 24.4707 54.123 24.9347 53.387 25.244C52.6617 25.5427 51.8403 25.692 50.923 25.692ZM57.3023 25.5V14.524H63.0783C63.8889 14.524 64.5609 14.6627 65.0943 14.94C65.6276 15.2173 66.0276 15.612 66.2943 16.124C66.5609 16.636 66.6943 17.2387 66.6943 17.932C66.6943 18.6467 66.5343 19.2813 66.2143 19.836C65.8943 20.38 65.4249 20.7907 64.8063 21.068L67.0783 25.5H64.8063L62.7903 21.42H59.3823V25.5H57.3023ZM59.3823 19.676H62.9183C63.4516 19.676 63.8623 19.5213 64.1503 19.212C64.4383 18.9027 64.5823 18.476 64.5823 17.932C64.5823 17.58 64.5183 17.2867 64.3903 17.052C64.2623 16.8067 64.0756 16.62 63.8303 16.492C63.5849 16.364 63.2809 16.3 62.9183 16.3H59.3823V19.676ZM73.4129 25.692C72.2715 25.692 71.2849 25.4893 70.4529 25.084C69.6209 24.668 68.9809 24.0387 68.5329 23.196C68.0955 22.3533 67.8769 21.292 67.8769 20.012C67.8769 18.7213 68.0955 17.66 68.5329 16.828C68.9809 15.9853 69.6209 15.3613 70.4529 14.956C71.2849 14.54 72.2715 14.332 73.4129 14.332C74.5649 14.332 75.5515 14.54 76.3729 14.956C77.2049 15.3613 77.8395 15.9853 78.2769 16.828C78.7249 17.66 78.9489 18.7213 78.9489 20.012C78.9489 21.292 78.7249 22.3533 78.2769 23.196C77.8395 24.0387 77.2049 24.668 76.3729 25.084C75.5515 25.4893 74.5649 25.692 73.4129 25.692ZM73.4129 23.932C73.9675 23.932 74.4529 23.852 74.8689 23.692C75.2955 23.532 75.6529 23.2973 75.9409 22.988C76.2289 22.668 76.4475 22.2787 76.5969 21.82C76.7462 21.3507 76.8209 20.812 76.8209 20.204V19.852C76.8209 19.2333 76.7462 18.6893 76.5969 18.22C76.4475 17.7507 76.2289 17.3613 75.9409 17.052C75.6529 16.732 75.2955 16.492 74.8689 16.332C74.4529 16.172 73.9675 16.092 73.4129 16.092C72.8582 16.092 72.3675 16.172 71.9409 16.332C71.5249 16.492 71.1729 16.732 70.8849 17.052C70.5969 17.3613 70.3782 17.7507 70.2289 18.22C70.0902 18.6893 70.0209 19.2333 70.0209 19.852V20.204C70.0209 20.812 70.0902 21.3507 70.2289 21.82C70.3782 22.2787 70.5969 22.668 70.8849 22.988C71.1729 23.2973 71.5249 23.532 71.9409 23.692C72.3675 23.852 72.8582 23.932 73.4129 23.932ZM84.6645 25.692C84.0565 25.692 83.4752 25.628 82.9205 25.5C82.3658 25.3613 81.8752 25.1533 81.4485 24.876C81.0218 24.588 80.6858 24.236 80.4405 23.82C80.1952 23.3933 80.0725 22.892 80.0725 22.316C80.0725 22.252 80.0725 22.188 80.0725 22.124C80.0832 22.06 80.0885 22.012 80.0885 21.98H82.1845C82.1845 22.0013 82.1792 22.044 82.1685 22.108C82.1685 22.1613 82.1685 22.2093 82.1685 22.252C82.1685 22.604 82.2698 22.908 82.4725 23.164C82.6752 23.4093 82.9685 23.6013 83.3525 23.74C83.7365 23.868 84.1898 23.932 84.7125 23.932C85.0645 23.932 85.3738 23.9107 85.6405 23.868C85.9178 23.8253 86.1525 23.7667 86.3445 23.692C86.5472 23.6067 86.7125 23.5107 86.8405 23.404C86.9685 23.2867 87.0592 23.1587 87.1125 23.02C87.1765 22.8813 87.2085 22.732 87.2085 22.572C87.2085 22.2627 87.1125 22.0067 86.9205 21.804C86.7285 21.6013 86.4672 21.4307 86.1365 21.292C85.8165 21.1533 85.4485 21.0307 85.0325 20.924C84.6272 20.8067 84.2058 20.6893 83.7685 20.572C83.3418 20.4547 82.9205 20.316 82.5045 20.156C82.0992 19.9853 81.7312 19.7827 81.4005 19.548C81.0805 19.3133 80.8245 19.02 80.6325 18.668C80.4405 18.3053 80.3445 17.8733 80.3445 17.372C80.3445 16.86 80.4512 16.412 80.6645 16.028C80.8885 15.644 81.1978 15.3293 81.5925 15.084C81.9978 14.828 82.4672 14.6413 83.0005 14.524C83.5338 14.396 84.1152 14.332 84.7445 14.332C85.3312 14.332 85.8805 14.396 86.3925 14.524C86.9152 14.6413 87.3738 14.8333 87.7685 15.1C88.1632 15.356 88.4725 15.6867 88.6965 16.092C88.9205 16.4867 89.0325 16.9613 89.0325 17.516V17.708H86.9685V17.548C86.9685 17.2387 86.8725 16.9773 86.6805 16.764C86.4992 16.5507 86.2378 16.3853 85.8965 16.268C85.5658 16.1507 85.1765 16.092 84.7285 16.092C84.2485 16.092 83.8378 16.14 83.4965 16.236C83.1552 16.3213 82.8938 16.4547 82.7125 16.636C82.5312 16.8067 82.4405 17.02 82.4405 17.276C82.4405 17.5427 82.5365 17.7667 82.7285 17.948C82.9205 18.1293 83.1765 18.284 83.4965 18.412C83.8272 18.54 84.1952 18.6573 84.6005 18.764C85.0165 18.8707 85.4378 18.988 85.8645 19.116C86.3018 19.2333 86.7232 19.372 87.1285 19.532C87.5445 19.692 87.9125 19.8947 88.2325 20.14C88.5632 20.3747 88.8245 20.668 89.0165 21.02C89.2085 21.372 89.3045 21.7933 89.3045 22.284C89.3045 23.1053 89.1018 23.7667 88.6965 24.268C88.3018 24.7693 87.7525 25.132 87.0485 25.356C86.3552 25.58 85.5605 25.692 84.6645 25.692Z" fill="#DAE8E8"/>
</svg>
