<svg width="110" height="40" viewBox="0 0 110 40" fill="none" xmlns="http://www.w3.org/2000/svg">
<path fill-rule="evenodd" clip-rule="evenodd" d="M11.875 12.8125C9.97653 12.8125 8.4375 14.3515 8.4375 16.25V27.5C8.4375 29.3985 9.97653 30.9375 11.875 30.9375H29.375C31.2735 30.9375 32.8125 29.3985 32.8125 27.5V16.25C32.8125 14.3515 31.2735 12.8125 29.375 12.8125H11.875ZM26.25 20.3125C25.3871 20.3125 24.6875 21.0121 24.6875 21.875C24.6875 22.7379 25.3871 23.4375 26.25 23.4375C27.1129 23.4375 27.8125 22.7379 27.8125 21.875C27.8125 21.0121 27.1129 20.3125 26.25 20.3125Z" fill="white"/>
<path opacity="0.3" d="M26.2309 8.83578C27.818 8.41255 29.375 9.60879 29.375 11.2514H16.875L26.2309 8.83578Z" fill="white"/>
<path d="M45.841 25.5V14.524H51.825C52.4117 14.524 52.9343 14.636 53.393 14.86C53.8623 15.084 54.2303 15.3987 54.497 15.804C54.7637 16.2093 54.897 16.684 54.897 17.228C54.897 17.644 54.817 18.0227 54.657 18.364C54.497 18.7053 54.2783 18.9933 54.001 19.228C53.7343 19.452 53.4303 19.6227 53.089 19.74V19.804C53.4943 19.8893 53.857 20.0547 54.177 20.3C54.497 20.5347 54.7477 20.8387 54.929 21.212C55.1103 21.5747 55.201 21.996 55.201 22.476C55.201 23.1587 55.0463 23.724 54.737 24.172C54.4383 24.62 54.033 24.956 53.521 25.18C53.0197 25.3933 52.4543 25.5 51.825 25.5H45.841ZM47.921 23.724H51.553C51.9903 23.724 52.3477 23.6067 52.625 23.372C52.913 23.1267 53.057 22.748 53.057 22.236C53.057 21.9373 52.9983 21.676 52.881 21.452C52.7637 21.228 52.5823 21.0573 52.337 20.94C52.1023 20.812 51.7983 20.748 51.425 20.748H47.921V23.724ZM47.921 19.004H51.281C51.601 19.004 51.8677 18.9453 52.081 18.828C52.305 18.7107 52.4703 18.5507 52.577 18.348C52.6943 18.1453 52.753 17.9213 52.753 17.676C52.753 17.2067 52.625 16.86 52.369 16.636C52.1237 16.412 51.7983 16.3 51.393 16.3H47.921V19.004ZM61.3779 25.692C60.4179 25.692 59.5912 25.5373 58.8979 25.228C58.2045 24.9187 57.6712 24.4493 57.2979 23.82C56.9352 23.18 56.7539 22.3853 56.7539 21.436V14.524H58.8339V21.372C58.8339 22.2147 59.0525 22.8547 59.4899 23.292C59.9379 23.7187 60.5672 23.932 61.3779 23.932C62.1885 23.932 62.8179 23.7187 63.2659 23.292C63.7245 22.8547 63.9539 22.2147 63.9539 21.372V14.524H66.0339V21.436C66.0339 22.3853 65.8472 23.18 65.4739 23.82C65.1005 24.4493 64.5672 24.9187 63.8739 25.228C63.1805 25.5373 62.3485 25.692 61.3779 25.692ZM71.244 25.5V21.036L67.02 14.524H69.42L72.316 19.164H72.396L75.26 14.524H77.532L73.324 21.036V25.5H71.244ZM78.5841 25.5V14.524H87.1441V16.3H80.6641V19.004H86.4401V20.78H80.6641V23.724H87.2401V25.5H78.5841ZM89.0141 25.5V14.524H94.7901C95.6008 14.524 96.2728 14.6627 96.8061 14.94C97.3395 15.2173 97.7395 15.612 98.0061 16.124C98.2728 16.636 98.4061 17.2387 98.4061 17.932C98.4061 18.6467 98.2461 19.2813 97.9261 19.836C97.6061 20.38 97.1368 20.7907 96.5181 21.068L98.7901 25.5H96.5181L94.5021 21.42H91.0941V25.5H89.0141ZM91.0941 19.676H94.6301C95.1635 19.676 95.5741 19.5213 95.8621 19.212C96.1501 18.9027 96.2941 18.476 96.2941 17.932C96.2941 17.58 96.2301 17.2867 96.1021 17.052C95.9741 16.8067 95.7875 16.62 95.5421 16.492C95.2968 16.364 94.9928 16.3 94.6301 16.3H91.0941V19.676ZM104.259 25.692C103.651 25.692 103.07 25.628 102.515 25.5C101.96 25.3613 101.47 25.1533 101.043 24.876C100.616 24.588 100.28 24.236 100.035 23.82C99.7895 23.3933 99.6669 22.892 99.6669 22.316C99.6669 22.252 99.6669 22.188 99.6669 22.124C99.6775 22.06 99.6829 22.012 99.6829 21.98H101.779C101.779 22.0013 101.774 22.044 101.763 22.108C101.763 22.1613 101.763 22.2093 101.763 22.252C101.763 22.604 101.864 22.908 102.067 23.164C102.27 23.4093 102.563 23.6013 102.947 23.74C103.331 23.868 103.784 23.932 104.307 23.932C104.659 23.932 104.968 23.9107 105.235 23.868C105.512 23.8253 105.747 23.7667 105.939 23.692C106.142 23.6067 106.307 23.5107 106.435 23.404C106.563 23.2867 106.654 23.1587 106.707 23.02C106.771 22.8813 106.803 22.732 106.803 22.572C106.803 22.2627 106.707 22.0067 106.515 21.804C106.323 21.6013 106.062 21.4307 105.731 21.292C105.411 21.1533 105.043 21.0307 104.627 20.924C104.222 20.8067 103.8 20.6893 103.363 20.572C102.936 20.4547 102.515 20.316 102.099 20.156C101.694 19.9853 101.326 19.7827 100.995 19.548C100.675 19.3133 100.419 19.02 100.227 18.668C100.035 18.3053 99.9389 17.8733 99.9389 17.372C99.9389 16.86 100.046 16.412 100.259 16.028C100.483 15.644 100.792 15.3293 101.187 15.084C101.592 14.828 102.062 14.6413 102.595 14.524C103.128 14.396 103.71 14.332 104.339 14.332C104.926 14.332 105.475 14.396 105.987 14.524C106.51 14.6413 106.968 14.8333 107.363 15.1C107.758 15.356 108.067 15.6867 108.291 16.092C108.515 16.4867 108.627 16.9613 108.627 17.516V17.708H106.563V17.548C106.563 17.2387 106.467 16.9773 106.275 16.764C106.094 16.5507 105.832 16.3853 105.491 16.268C105.16 16.1507 104.771 16.092 104.323 16.092C103.843 16.092 103.432 16.14 103.091 16.236C102.75 16.3213 102.488 16.4547 102.307 16.636C102.126 16.8067 102.035 17.02 102.035 17.276C102.035 17.5427 102.131 17.7667 102.323 17.948C102.515 18.1293 102.771 18.284 103.091 18.412C103.422 18.54 103.79 18.6573 104.195 18.764C104.611 18.8707 105.032 18.988 105.459 19.116C105.896 19.2333 106.318 19.372 106.723 19.532C107.139 19.692 107.507 19.8947 107.827 20.14C108.158 20.3747 108.419 20.668 108.611 21.02C108.803 21.372 108.899 21.7933 108.899 22.284C108.899 23.1053 108.696 23.7667 108.291 24.268C107.896 24.7693 107.347 25.132 106.643 25.356C105.95 25.58 105.155 25.692 104.259 25.692Z" fill="#DAE8E8"/>
</svg>
