<svg width="48" height="49" viewBox="0 0 48 49" fill="none" xmlns="http://www.w3.org/2000/svg">
<rect y="0.379395" width="48" height="48" rx="8" fill="#1E86E1"/>
<path opacity="0.5" fill-rule="evenodd" clip-rule="evenodd" d="M21.7792 18.1933C22.75 20.0153 25.2596 20.0153 26.2304 18.1933C27.021 16.7096 27.4691 15.0157 27.4691 13.2171C27.4691 11.4186 27.021 9.72469 26.2304 8.24098C25.2596 6.41902 22.75 6.41902 21.7792 8.24098C20.9886 9.72469 20.5405 11.4186 20.5405 13.2171C20.5405 15.0157 20.9886 16.7096 21.7792 18.1933Z" fill="white"/>
<path fill-rule="evenodd" clip-rule="evenodd" d="M27.1595 18.5776C26.5574 20.5525 28.3321 22.3272 30.307 21.7252C31.9149 21.2351 33.4293 20.3542 34.7009 19.0826C35.9725 17.811 36.8533 16.2967 37.3435 14.6887C37.9455 12.7139 36.1708 10.9392 34.1959 11.5412C32.588 12.0313 31.0736 12.9122 29.8021 14.1838C28.5305 15.4554 27.6496 16.9697 27.1595 18.5776Z" fill="white"/>
<path opacity="0.5" fill-rule="evenodd" clip-rule="evenodd" d="M30.6924 22.6537C28.8704 23.6246 28.8704 26.1341 30.6924 27.105C32.1761 27.8956 33.87 28.3437 35.6686 28.3437C37.4671 28.3437 39.161 27.8956 40.6448 27.105C42.4667 26.1341 42.4667 23.6246 40.6448 22.6537C39.161 21.8631 37.4671 21.415 35.6686 21.415C33.87 21.415 32.1761 21.8631 30.6924 22.6537Z" fill="white"/>
<path fill-rule="evenodd" clip-rule="evenodd" d="M30.3065 28.0335C28.3318 27.4317 26.5573 29.2062 27.159 31.1809C27.649 32.7893 28.53 34.3042 29.802 35.5761C31.0738 36.8479 32.5885 37.7289 34.1967 38.219C36.1715 38.8208 37.946 37.0463 37.3443 35.0716C36.8542 33.4631 35.9732 31.9483 34.7013 30.6764C33.4294 29.4045 31.9148 28.5236 30.3065 28.0335Z" fill="white"/>
<path opacity="0.5" fill-rule="evenodd" clip-rule="evenodd" d="M21.7797 41.5185C22.7505 43.3404 25.2601 43.3404 26.2309 41.5185C27.0215 40.0348 27.4696 38.3409 27.4696 36.5423C27.4696 34.7438 27.0215 33.0499 26.2309 31.5662C25.2601 29.7442 22.7505 29.7442 21.7797 31.5662C20.9891 33.0499 20.541 34.7438 20.541 36.5423C20.541 38.3409 20.9891 40.0348 21.7797 41.5185Z" fill="white"/>
<path fill-rule="evenodd" clip-rule="evenodd" d="M10.6654 35.0708C10.0635 37.0456 11.838 38.8202 13.8129 38.2184C15.4211 37.7283 16.9356 36.8473 18.2074 35.5756C19.479 34.304 20.3599 32.7896 20.85 31.1816C21.452 29.2068 19.6774 27.4321 17.7026 28.034C16.0944 28.5241 14.5798 29.405 13.3081 30.6768C12.0365 31.9484 11.1556 33.4628 10.6654 35.0708Z" fill="white"/>
<path opacity="0.5" fill-rule="evenodd" clip-rule="evenodd" d="M7.36668 22.6537C5.54473 23.6246 5.54473 26.1341 7.36669 27.105C8.85041 27.8956 10.5443 28.3437 12.3429 28.3437C14.1414 28.3437 15.8354 27.8956 17.3191 27.105C19.141 26.1341 19.141 23.6246 17.3191 22.6537C15.8354 21.8631 14.1414 21.415 12.3429 21.415C10.5443 21.415 8.85041 21.8631 7.36668 22.6537Z" fill="white"/>
<path fill-rule="evenodd" clip-rule="evenodd" d="M13.8129 11.5413C11.8381 10.9395 10.0636 12.714 10.6653 14.6887C11.1554 16.2972 12.0364 17.812 13.3083 19.0839C14.5801 20.3558 16.0948 21.2367 17.7031 21.7268C19.6778 22.3286 21.4523 20.5542 20.8506 18.5794C20.3606 16.971 19.4796 15.4561 18.2076 14.1842C16.9358 12.9124 15.4211 12.0314 13.8129 11.5413Z" fill="white"/>
</svg>
