<svg width="48" height="49" viewBox="0 0 48 49" fill="none" xmlns="http://www.w3.org/2000/svg">
<g clip-path="url(#clip0_10946_8073)">
<rect y="0.379395" width="48" height="48" rx="8" fill="#BB3E6C"/>
<path opacity="0.5" fill-rule="evenodd" clip-rule="evenodd" d="M9.88235 9.37939H8V11.0447C8 15.3722 8.96678 18.8347 11.6101 21.1733C13.9051 23.2036 17.1578 24.116 21.1765 24.3212V42.6855H24.9412V32.6612C29.7841 32.4867 33.5693 31.5788 36.1545 29.2916C39.0658 26.7161 40 22.7941 40 17.7059V16.0406H38.1176C32.3663 16.0406 27.9332 16.8672 25.0219 19.4427C24.9318 19.5224 24.8437 19.6034 24.7573 19.6856C24.368 16.7479 23.3278 14.3399 21.331 12.5733C18.6876 10.2347 14.7739 9.37939 9.88235 9.37939Z" fill="white"/>
<path fill-rule="evenodd" clip-rule="evenodd" d="M21.1758 29.2915V50.6854H24.9405V32.6611C29.7834 32.4866 33.5686 31.5787 36.1539 29.2915C39.0651 26.716 39.9993 22.794 39.9993 17.7058V16.0405H38.117C32.3656 16.0405 27.9325 16.8671 25.0212 19.4426C24.9311 19.5223 24.843 19.6033 24.7566 19.6855C23.4995 20.8826 21.1758 24.8794 21.1758 29.2915Z" fill="white"/>
</g>
<defs>
<clipPath id="clip0_10946_8073">
<rect y="0.379395" width="48" height="48" rx="8" fill="white"/>
</clipPath>
</defs>
</svg>
