<svg width="28" height="38" viewBox="0 0 28 38" fill="none" xmlns="http://www.w3.org/2000/svg">
<path d="M14.0008 6.51304C10.554 6.51304 7.43222 7.91119 5.17211 10.173C2.91124 12.4297 1.51404 15.553 1.51404 19.0017C1.51404 22.4478 2.91124 25.5691 5.17211 27.8266C7.43222 30.0855 10.554 31.4862 14.0008 31.4862C17.4486 31.4862 20.5721 30.0855 22.8287 27.8266C25.0888 25.5691 26.4832 22.4478 26.4832 19.0017C26.4832 15.553 25.0888 12.4297 22.8287 10.173C20.5721 7.91119 17.4486 6.51304 14.0008 6.51304ZM14.0008 5C21.7318 5 28 11.2691 28 19.0017C28 26.7318 21.7318 33 14.0008 33C6.27073 33 0 26.7318 0 19.0017C0 11.2691 6.27073 5 14.0008 5Z" fill="#66687C"/>
<path d="M7.37955 18.8861C7.37955 18.0702 6.83839 17.6067 6.07196 17.6067H5.60283V20.1664H6.05846C6.77119 20.1664 7.37955 19.7791 7.37955 18.8861ZM15.7233 19.807L12.2678 22.528L9.1097 20.0416C8.65381 21.1363 7.55264 21.8967 6.2845 21.8967H3.58148V15.8755H6.2845C7.70155 15.8755 8.72279 16.7766 9.10868 17.7367L12.2678 15.2528L13.438 16.1737L10.5425 18.4493L11.099 18.8848L13.9934 16.6105L15.1653 17.5289L12.2704 19.807L12.8261 20.2434L15.7233 17.9648V15.8755H17.8238V20.1392H19.9192V21.904H15.7233V19.807ZM22.58 20.1401H24.6744V21.904H20.4772V15.8755H22.58V20.1401Z" fill="#66687C"/>
</svg>
