<svg width="65" height="38" viewBox="0 0 65 38" fill="none" xmlns="http://www.w3.org/2000/svg">
<g clip-path="url(#clip0_12887_24739)">
<path d="M27.2748 17.1636C26.4456 17.1636 25.5844 17.3905 24.5183 17.9638L25.1107 19.4344C26.0363 18.9153 26.8012 18.6884 27.361 18.6884C27.9964 18.6884 28.2765 18.9262 28.2765 19.2398V19.2612C28.2765 19.4777 28.1038 19.5966 27.6841 19.6399L26.9521 19.7156C25.1215 19.9101 24.3677 20.7104 24.3677 21.8132V21.8888C24.3677 22.9379 25.2292 23.7595 26.4456 23.7595C27.2467 23.7595 27.9427 23.4198 28.3659 22.8204L28.5023 23.6515H30.1605V19.8778C30.1605 18.0937 29.1377 17.1636 27.2748 17.1636ZM27.1131 22.3208C26.4996 22.3208 26.2087 22.0829 26.2087 21.7152V21.6938C26.2087 21.3693 26.3916 21.1314 27.0591 21.0344L27.35 20.9911C27.775 20.9316 28.0362 20.8531 28.2765 20.707V21.1857C28.2765 21.9102 27.824 22.3208 27.1131 22.3208Z" fill="#66687C"/>
<path d="M6.36392 22.5464L11.6843 17.2064L9.56189 15.0764L7.43941 17.2064L8.49579 18.2664L3.17773 23.6073L5.29791 25.7387L7.42043 23.6073L6.36392 22.5464Z" fill="#66687C"/>
<path d="M5.31998 15.0754L0 20.4176L2.12128 22.5478L7.44126 17.2056L5.31998 15.0754Z" fill="#66687C"/>
<path d="M12.7385 18.2681L7.41846 23.6103L9.53987 25.7404L14.8597 20.3982L12.7385 18.2681Z" fill="#66687C"/>
<path d="M33.1202 15H31.2358V23.6493H33.1202V15Z" fill="#66687C"/>
<path d="M21.2024 17.163C20.3457 17.163 19.6579 17.5436 19.2793 18.1398L19.1353 17.271H17.4771V25.811H19.3611V22.8503C19.7198 23.4055 20.3984 23.7566 21.2024 23.7566C22.71 23.7566 23.9375 22.4159 23.9375 20.5666V20.3502C23.9375 18.5023 22.71 17.1611 21.2024 17.1611M21.9992 20.5133C21.9992 21.4863 21.4933 22.1894 20.6533 22.1894C19.8133 22.1894 19.3071 21.4868 19.3071 20.5133V20.4053C19.3071 19.4319 19.8133 18.7292 20.6533 18.7292C21.4933 18.7292 21.9992 19.4319 21.9992 20.4053V20.5133Z" fill="#66687C"/>
<path d="M58.5596 17.1636C56.6323 17.1636 55.2754 18.5043 55.2754 20.3536V20.57C55.2754 22.4188 56.6323 23.76 58.5596 23.76C60.4869 23.76 61.8438 22.4193 61.8438 20.57V20.3536C61.8438 18.5047 60.4869 17.1636 58.5596 17.1636ZM59.9058 20.5158C59.9058 21.4887 59.3996 22.1919 58.5596 22.1919C57.7196 22.1919 57.2137 21.4892 57.2137 20.5158V20.4078C57.2137 19.4344 57.7196 18.7317 58.5596 18.7317C59.3996 18.7317 59.9058 19.4344 59.9058 20.4078V20.5158Z" fill="#66687C"/>
<path d="M63.5814 17.5515V17.5191C63.5814 17.3355 63.4415 17.2056 63.1939 17.2056H62.7632V18.2004H62.9678V17.865H63.1952L63.3663 18.2004H63.5924L63.3818 17.8069C63.5097 17.7674 63.5814 17.6713 63.5814 17.5515ZM62.9675 17.3892H63.1933C63.3228 17.3892 63.3761 17.4325 63.3761 17.53V17.541C63.3761 17.6276 63.3221 17.6813 63.1933 17.6813H62.9675V17.3892Z" fill="#66687C"/>
<path d="M63.1542 16.6777C62.5728 16.6777 62.1313 17.1211 62.1313 17.7049C62.1313 18.2887 62.5728 18.7321 63.1542 18.7321C63.7356 18.7321 64.177 18.2887 64.177 17.7049C64.177 17.1211 63.7356 16.6777 63.1542 16.6777ZM63.1542 18.5913C62.6483 18.5913 62.282 18.2235 62.282 17.7044C62.282 17.1854 62.6483 16.8176 63.1542 16.8176C63.6601 16.8176 64.0264 17.1854 64.0264 17.7044C64.0264 18.2235 63.6601 18.5913 63.1542 18.5913Z" fill="#66687C"/>
<path d="M49.7364 15H47.8521V23.6493H49.7364V15Z" fill="#66687C"/>
<path d="M53.4433 22.1893C52.8941 22.1893 52.6895 21.9191 52.6895 21.3353V18.7291H54.9076V17.2694H52.6895V15.8093L50.8052 16.0905V21.519C50.8052 23.0005 51.559 23.7574 53.0665 23.7574C53.7341 23.7574 54.5201 23.5519 55.1662 23.1841L54.6281 21.8434C54.2504 22.0489 53.7231 22.1898 53.4433 22.1898" fill="#66687C"/>
<path d="M43.8686 17.1636C43.0393 17.1636 42.1782 17.3905 41.1121 17.9638L41.7042 19.4344C42.6301 18.9153 43.3949 18.6884 43.9548 18.6884C44.5902 18.6884 44.87 18.9262 44.87 19.2398V19.2612C44.87 19.4777 44.6975 19.5966 44.2778 19.6399L43.5458 19.7156C41.7152 19.9101 40.9614 20.7104 40.9614 21.8132V21.8888C40.9614 22.9379 41.8229 23.7595 43.0393 23.7595C43.8402 23.7595 44.5365 23.4198 44.9596 22.8204L45.0961 23.6515H46.7543V19.8778C46.7543 18.0937 45.7314 17.1636 43.8686 17.1636ZM43.7069 22.3208C43.093 22.3208 42.8025 22.0829 42.8025 21.7152V21.6938C42.8025 21.3693 42.9853 21.1314 43.6529 21.0344L43.9437 20.9911C44.3688 20.9316 44.63 20.8531 44.8696 20.707V21.1857C44.8696 21.9102 44.4177 22.3208 43.7069 22.3208Z" fill="#66687C"/>
<path d="M37.2437 17.1636C35.3164 17.1636 33.9595 18.5043 33.9595 20.3536V20.57C33.9595 22.4188 35.3164 23.76 37.2437 23.76C39.1709 23.76 40.5279 22.4193 40.5279 20.57V20.3536C40.5276 18.5047 39.1709 17.1636 37.2437 17.1636ZM38.5893 20.5158C38.5893 21.4887 38.0834 22.1919 37.2434 22.1919C36.4034 22.1919 35.8972 21.4892 35.8972 20.5158V20.4078C35.8972 19.4344 36.4034 18.7317 37.2434 18.7317C38.0834 18.7317 38.5893 19.4344 38.5893 20.4078V20.5158Z" fill="#66687C"/>
<path d="M46.0904 26.7424L45.408 25.8386H45.4033V26.7424H44.958V25.1868H45.4412L46.1094 26.0669H46.1141V25.1868H46.5594V26.7424H46.0904Z" fill="#66687C"/>
<path d="M47.6154 26.1194V26.3619H48.5631L48.5157 26.7424H47.1465V25.1868H48.5157V25.5626H47.6154V25.7767H48.3263V26.1194H47.6154Z" fill="#66687C"/>
<path d="M49.5111 26.7424V25.5863H48.9424V25.1868H50.4585L50.5059 25.5863H49.9374V26.7424H49.5111Z" fill="#66687C"/>
<path d="M52.7788 26.2668L53.0157 25.1868H53.4894L53.0631 26.7424H52.4946L52.2104 25.8004H52.1631L51.8785 26.7424H51.2627L50.8838 25.1868H51.3575L51.6417 26.2668L51.9736 25.1868H52.4473L52.7315 26.2668H52.7788Z" fill="#66687C"/>
<path d="M53.8223 25.9624C53.8223 25.4553 54.1652 25.1375 54.7077 25.1375C55.25 25.1375 55.5935 25.4553 55.5935 25.9624C55.5935 26.4696 55.2506 26.7873 54.7077 26.7873C54.1652 26.7873 53.8223 26.4689 53.8223 25.9624ZM55.1306 25.9624C55.1306 25.6937 54.9758 25.5333 54.7077 25.5333C54.4393 25.5333 54.2846 25.6937 54.2846 25.9624C54.2846 26.2318 54.4393 26.3916 54.7052 26.3916C54.9733 26.3916 55.1306 26.2312 55.1306 25.9624Z" fill="#66687C"/>
<path d="M56.0972 25.1868H57.0006C57.4121 25.1868 57.6142 25.3823 57.6142 25.7448C57.6142 25.9937 57.5122 26.1629 57.3126 26.2428L57.6805 26.7434H57.1535L56.868 26.3344H56.5623V26.7434H56.0972V25.1868ZM56.9403 25.9694C57.0954 25.9694 57.1506 25.8828 57.1506 25.7647C57.1506 25.6469 57.0954 25.5626 56.9403 25.5626H56.5617V25.9694H56.9403Z" fill="#66687C"/>
<path d="M59.2706 25.9337L59.8867 26.7377V26.7424H59.3654L58.8917 26.143H58.7022V26.7424H58.2285V25.1868H58.7022V25.7578H58.8917L59.318 25.1868H59.8867L59.2706 25.9337Z" fill="#66687C"/>
<path d="M60.2655 26.6366V26.21H60.268C60.527 26.341 60.7796 26.4055 60.9984 26.4055C61.1649 26.4055 61.2486 26.3653 61.2486 26.2873C61.2486 26.2093 61.1933 26.1895 60.8611 26.1361C60.4982 26.0786 60.2563 25.969 60.2563 25.6558C60.2563 25.3644 60.5115 25.1399 61.0092 25.1399C61.2088 25.1399 61.4169 25.1822 61.6095 25.2645V25.687L61.6073 25.6892C61.4235 25.5828 61.1756 25.5159 60.976 25.5159C60.7989 25.5159 60.7285 25.5582 60.7285 25.6289C60.7285 25.7202 60.8368 25.729 61.1093 25.7761C61.4721 25.8383 61.7137 25.9406 61.7137 26.27C61.7137 26.5255 61.5233 26.7812 60.9767 26.7812C60.7067 26.7812 60.4916 26.7257 60.2655 26.6366Z" fill="#66687C"/>
</g>
<defs>
<clipPath id="clip0_12887_24739">
<rect width="64.4211" height="12" fill="white" transform="translate(0 15)"/>
</clipPath>
</defs>
</svg>
