<svg width="52" height="38" viewBox="0 0 52 38" fill="none" xmlns="http://www.w3.org/2000/svg">
<g clip-path="url(#clip0_12887_24659)">
<path d="M5.6317 14.4402V18.5977H1.81215V14.4402H0V24.3648H1.81264V20.3422H5.63121V24.3648H7.44434V14.4402H5.6317ZM13.2463 21.157C13.2463 21.5548 13.0882 21.9363 12.807 22.2176C12.5257 22.4989 12.1442 22.6569 11.7464 22.6569C11.3486 22.6569 10.9671 22.4989 10.6858 22.2176C10.4045 21.9363 10.2465 21.5548 10.2465 21.157V16.9058H8.52702V21.157C8.52702 22.01 8.86586 22.828 9.46901 23.4312C10.0722 24.0343 10.8902 24.3732 11.7432 24.3732C12.5961 24.3732 13.4142 24.0343 14.0173 23.4312C14.6205 22.828 14.9593 22.01 14.9593 21.157V16.9058H13.2463V21.157ZM25.9868 17.3438C25.9868 16.4721 26.5632 16.1959 27.1945 16.1959C27.7037 16.1959 28.3758 16.5835 28.8159 17.0534L29.9417 15.726C29.3795 14.9656 28.2394 14.4402 27.3059 14.4402C25.4403 14.4402 24.0912 15.5327 24.0912 17.3438C24.0912 20.7042 28.1982 19.6377 28.1982 21.5186C28.1982 22.0984 27.6351 22.6106 26.9905 22.6106C25.9735 22.6106 25.6438 22.1136 25.1768 21.5877L23.9269 22.8872C24.7265 23.8684 25.7125 24.3668 26.8933 24.3668C28.6657 24.3668 30.0913 23.2611 30.0913 21.5323C30.0913 17.802 25.9838 18.9612 25.9838 17.3438M51.3951 22.7793C50.3792 22.7793 50.0902 22.3398 50.0902 21.6667V18.6865H51.6699V17.1766H50.0902V15.1844L48.3468 15.9668V22.0371C48.3468 23.5897 49.4182 24.3722 50.8869 24.3722C51.1175 24.3761 51.348 24.3575 51.5747 24.3172L52 22.7514C51.8082 22.7646 51.5879 22.7778 51.3951 22.7778M19.7914 16.9553C18.9398 16.9553 18.3452 17.2026 17.7703 17.7662V14.4995H16.0484V20.5546C16.0484 22.821 17.6869 24.3741 19.5285 24.3741C21.5712 24.3741 23.3681 22.7935 23.3681 20.6655C23.3681 18.5639 21.7144 16.9568 19.7914 16.9568M19.7806 22.641C19.524 22.641 19.2699 22.5904 19.0328 22.4922C18.7957 22.394 18.5803 22.2501 18.3988 22.0686C18.2173 21.8872 18.0734 21.6717 17.9752 21.4346C17.877 21.1975 17.8264 20.9434 17.8264 20.6868C17.8264 20.4302 17.877 20.1761 17.9752 19.939C18.0734 19.7019 18.2173 19.4865 18.3988 19.305C18.5803 19.1235 18.7957 18.9796 19.0328 18.8814C19.2699 18.7832 19.524 18.7326 19.7806 18.7326C20.2989 18.7326 20.7959 18.9385 21.1624 19.305C21.5289 19.6715 21.7348 20.1685 21.7348 20.6868C21.7348 21.2051 21.5289 21.7021 21.1624 22.0686C20.7959 22.4351 20.2989 22.641 19.7806 22.641ZM38.4918 20.5752C38.4918 18.4432 36.6988 16.8665 34.6521 16.8665C32.811 16.8665 31.172 18.4192 31.172 20.6861V26.7446H32.8939V23.4735C33.4679 24.0361 34.0634 24.2844 34.9141 24.2844C36.8371 24.2844 38.4918 22.6773 38.4918 20.5752ZM36.8611 20.5536C36.8611 21.0719 36.6552 21.5689 36.2888 21.9354C35.9223 22.3019 35.4252 22.5078 34.907 22.5078C34.3887 22.5078 33.8916 22.3019 33.5252 21.9354C33.1587 21.5689 32.9528 21.0719 32.9528 20.5536C32.9528 20.0353 33.1587 19.5383 33.5252 19.1718C33.8916 18.8053 34.3887 18.5994 34.907 18.5994C35.4252 18.5994 35.9223 18.8053 36.2888 19.1718C36.6552 19.5383 36.8611 20.0353 36.8611 20.5536Z" fill="#66687C"/>
<path d="M44.056 16.783V15.0528C44.2846 14.9459 44.4782 14.7763 44.6142 14.5637C44.7502 14.3511 44.823 14.1043 44.8242 13.8519V13.8122C44.8242 13.0763 44.2277 12.4798 43.4918 12.4798H43.4521C43.0987 12.4798 42.7598 12.6202 42.51 12.87C42.2601 13.1199 42.1197 13.4588 42.1197 13.8122V13.8519C42.1209 14.1043 42.1937 14.3511 42.3297 14.5637C42.4657 14.7763 42.6593 14.9459 42.8879 15.0528V16.783C42.2308 16.8836 41.6119 17.1561 41.0939 17.5728L36.3487 13.8769C36.3825 13.7548 36.4002 13.6292 36.4022 13.5031C36.4027 13.2062 36.3153 12.9157 36.1507 12.6685C35.9862 12.4213 35.7521 12.2285 35.478 12.1143C35.2039 12.0002 34.902 11.9699 34.6107 12.0274C34.3194 12.0848 34.0516 12.2273 33.8413 12.437C33.631 12.6466 33.4876 12.9139 33.4292 13.205C33.3708 13.4962 33.4001 13.7981 33.5133 14.0726C33.6266 14.3471 33.8187 14.5818 34.0653 14.7471C34.312 14.9125 34.6021 15.0009 34.8991 15.0013C35.1588 15.0001 35.4138 14.9307 35.6384 14.8002L40.311 18.4362C39.8912 19.0704 39.6722 19.8163 39.6826 20.5767C39.6929 21.3371 39.9321 22.0767 40.3689 22.6992L38.9477 24.1209C38.8328 24.0842 38.7131 24.0647 38.5925 24.063C38.3488 24.0632 38.1106 24.1357 37.908 24.2712C37.7054 24.4067 37.5476 24.5993 37.4544 24.8245C37.3612 25.0497 37.3369 25.2975 37.3845 25.5366C37.4321 25.7756 37.5495 25.9952 37.7218 26.1675C37.8942 26.3399 38.1137 26.4573 38.3528 26.5049C38.5918 26.5525 38.8396 26.5281 39.0648 26.435C39.2901 26.3418 39.4826 26.1839 39.6181 25.9813C39.7537 25.7787 39.8261 25.5405 39.8263 25.2968C39.8247 25.1762 39.8052 25.0565 39.7684 24.9416L41.1744 23.5352C41.6329 23.8881 42.1661 24.1315 42.7331 24.2466C43.3001 24.3616 43.886 24.3454 44.4458 24.1991C45.0056 24.0527 45.5245 23.7802 45.9627 23.4024C46.4009 23.0245 46.7468 22.5514 46.9739 22.0193C47.201 21.4871 47.3033 20.91 47.2729 20.3322C47.2426 19.7544 47.0803 19.1912 46.7987 18.6858C46.517 18.1803 46.1234 17.7461 45.648 17.4163C45.1726 17.0865 44.628 16.8699 44.056 16.783ZM43.4732 22.4736C43.2133 22.4807 42.9547 22.4357 42.7126 22.3412C42.4704 22.2467 42.2497 22.1047 42.0633 21.9234C41.877 21.7421 41.7289 21.5254 41.6278 21.2859C41.5267 21.0465 41.4746 20.7892 41.4746 20.5292C41.4746 20.2693 41.5267 20.012 41.6278 19.7725C41.7289 19.5331 41.877 19.3163 42.0633 19.1351C42.2497 18.9538 42.4704 18.8117 42.7126 18.7172C42.9547 18.6227 43.2133 18.5777 43.4732 18.5849C43.9768 18.6025 44.4539 18.8149 44.804 19.1773C45.1541 19.5397 45.35 20.0239 45.3502 20.5278C45.3505 21.0317 45.1551 21.5161 44.8054 21.8788C44.4556 22.2416 43.9787 22.4545 43.4751 22.4726" fill="#66687C"/>
</g>
<defs>
<clipPath id="clip0_12887_24659">
<rect width="52" height="15.2075" fill="white" transform="translate(0 12)"/>
</clipPath>
</defs>
</svg>
