<svg width="64" height="38" viewBox="0 0 64 38" fill="none" xmlns="http://www.w3.org/2000/svg">
<g clip-path="url(#clip0_12887_24726)">
<path fill-rule="evenodd" clip-rule="evenodd" d="M44.7765 17.1187H46.0915V23.8556H51.7923L50.9552 25.1717H44.7765V17.1187ZM34.4512 25.1717L29.5875 17.4974C29.2885 16.9993 28.4915 16.9993 28.1523 17.5175L23.3288 25.1717H24.9232L26.3784 22.8593H29.488L30.3056 21.5436H27.196L28.8904 18.8929L32.8573 25.1717H34.4512ZM37.4107 17.1213C35.1885 17.1213 33.7259 18.9227 33.7259 21.1452C33.7259 23.3673 35.1888 25.1696 37.4107 25.1696L42.8141 25.1629L43.6597 23.8586H37.4504C35.9525 23.8586 35.076 22.6437 35.076 21.1452C35.076 19.6467 35.9523 18.4319 37.4504 18.4319H42.9816L43.7979 17.1173L37.4107 17.1213ZM3.68528 18.4319H9.38581C10.8843 18.4319 11.7605 19.6467 11.7605 21.1452C11.7605 22.6437 10.8847 23.8586 9.38581 23.8586H3.68528C2.18677 23.8586 1.31096 22.6437 1.31096 21.1452C1.31096 19.6467 2.18677 18.4319 3.68528 18.4319ZM3.68528 17.1213C1.46283 17.1213 0 18.9227 0 21.1452C0 23.3673 1.46283 25.1696 3.68528 25.1696H9.38581C11.6083 25.1696 13.0712 23.3673 13.0712 21.1452C13.0712 18.9227 11.6083 17.1213 9.38581 17.1213H3.68528ZM53.1976 21.7832C53.4117 22.974 54.2312 23.8586 55.5101 23.8586H61.7192L60.8731 25.1629L55.4704 25.1696C53.2475 25.1696 51.7853 23.3673 51.7853 21.1452C51.7853 18.9227 53.248 17.1213 55.4704 17.1213L61.8573 17.1176L61.0416 18.4322H55.5104C54.2493 18.4322 53.4264 19.3018 53.1979 20.4679H61.0019L60.1648 21.7836L53.1976 21.7832ZM20.5083 21.8997C21.1347 21.8888 21.7317 21.6323 22.1709 21.1854C22.6101 20.7385 22.8563 20.137 22.8563 19.5105C22.8563 18.884 22.6101 18.2825 22.1709 17.8356C21.7317 17.3887 21.1347 17.1322 20.5083 17.1213L13.8008 17.1183V25.1715H15.276V18.4322H20.5083C20.7941 18.4322 21.0685 18.5458 21.2707 18.7481C21.4731 18.9503 21.5867 19.2245 21.5867 19.5105C21.5867 19.7965 21.4731 20.0707 21.2707 20.273C21.0685 20.4752 20.7941 20.5888 20.5083 20.5888H16.3125L21.0459 25.1621H22.9499L19.5613 21.9027L20.5083 21.8997ZM63.2352 17.126C63.5773 17.126 63.8477 17.3962 63.8477 17.7545C63.8477 18.1187 63.5776 18.3867 63.2352 18.3867C62.8891 18.3867 62.6195 18.1187 62.6195 17.7545C62.6195 17.3962 62.8891 17.126 63.2352 17.126V17C62.8189 17 62.4672 17.3201 62.4672 17.7542C62.4672 18.1926 62.8195 18.5127 63.2352 18.5127C63.6477 18.5127 64 18.1926 64 17.7542C64 17.3201 63.6477 17 63.2352 17V17.126Z" fill="#66687C"/>
</g>
<defs>
<clipPath id="clip0_12887_24726">
<rect width="64" height="8.26667" fill="white" transform="translate(0 17)"/>
</clipPath>
</defs>
</svg>
