<svg width="68" height="38" viewBox="0 0 68 38" fill="none" xmlns="http://www.w3.org/2000/svg">
<g clip-path="url(#clip0_12887_24801)">
<path d="M13.8344 23.0407L10.5094 21.12C10.0424 20.8511 9.44505 21.011 9.17471 21.4781C9.07005 21.6621 9.02905 21.8645 9.04871 22.0612V25.8149C9.04871 26.3512 9.48471 26.7872 10.0227 26.7872C10.559 26.7872 10.995 26.3512 10.995 25.8149V23.6564L12.8577 24.7322C13.3247 25.0026 13.9234 24.8412 14.1924 24.3739C14.4627 23.9069 14.3027 23.3096 13.8344 23.0407Z" fill="#66687C"/>
<path d="M5.56403 18.9266C5.56969 18.5798 5.38713 18.2571 5.08706 18.083L1.76226 16.1637C1.61789 16.0802 1.4523 16.0364 1.2867 16.0364C0.945563 16.0364 0.628529 16.2189 0.458696 16.5133C0.195429 16.9691 0.352528 17.5537 0.808295 17.8169L2.72473 18.9224L0.808295 20.0292C0.587495 20.1566 0.428962 20.3618 0.363862 20.6081C0.297329 20.8544 0.331296 21.112 0.458696 21.3328C0.628529 21.6272 0.945562 21.8098 1.28526 21.8098C1.45229 21.8098 1.61789 21.7659 1.76226 21.6824L5.08706 19.7631C5.3843 19.5904 5.56686 19.2706 5.56403 18.9266Z" fill="#66687C"/>
<path d="M2.5151 14.8013L5.8399 16.7206C6.2277 16.9457 6.7061 16.8721 7.01184 16.5734C7.20577 16.3951 7.32607 16.1403 7.32607 15.8572V12.0102C7.32607 11.4723 6.89014 11.0364 6.35367 11.0364C5.81584 11.0364 5.37987 11.4723 5.37987 12.0102V14.1998L3.49174 13.1099C3.02464 12.8396 2.42734 12.9995 2.157 13.4666C1.88667 13.9337 2.04804 14.531 2.5151 14.8013Z" fill="#66687C"/>
<path d="M9.99016 19.0803C9.99016 19.1539 9.94783 19.2558 9.89549 19.3096L8.5775 20.6273C8.52516 20.6797 8.42183 20.7222 8.3485 20.7222H8.01283C7.9393 20.7222 7.836 20.6797 7.7836 20.6273L6.46446 19.3096C6.4121 19.2558 6.36963 19.1539 6.36963 19.0803V18.7448C6.36963 18.6698 6.4121 18.5679 6.46446 18.5156L7.7836 17.1964C7.836 17.144 7.9393 17.1016 8.01283 17.1016H8.3485C8.42183 17.1016 8.52516 17.144 8.5775 17.1964L9.89549 18.5156C9.94783 18.5679 9.99016 18.6698 9.99016 18.7448V19.0803ZM8.81416 18.9189V18.9048C8.81416 18.851 8.78283 18.776 8.74483 18.7364L8.3555 18.3485C8.31716 18.3089 8.24216 18.2778 8.18716 18.2778H8.17283C8.11916 18.2778 8.04416 18.3089 8.0045 18.3485L7.6166 18.7364C7.57836 18.7746 7.54723 18.8496 7.54723 18.9048V18.9189C7.54723 18.9741 7.57836 19.0492 7.6166 19.0874L8.0045 19.4766C8.04416 19.5148 8.11916 19.546 8.17283 19.546H8.18716C8.24216 19.546 8.31716 19.5148 8.3555 19.4766L8.74483 19.0874C8.78283 19.0492 8.81416 18.9741 8.81416 18.9189Z" fill="#66687C"/>
<path d="M10.509 16.7206L13.834 14.8013C14.301 14.5324 14.4623 13.9337 14.192 13.4666C13.9217 12.9995 13.3243 12.8396 12.8573 13.1099L10.9947 14.1856V12.0102C10.9947 11.4723 10.5587 11.0364 10.0223 11.0364C9.48435 11.0364 9.04835 11.4723 9.04835 12.0102V15.7808C9.03002 15.9761 9.06835 16.1799 9.17435 16.3639C9.44468 16.831 10.042 16.991 10.509 16.7206Z" fill="#66687C"/>
<path d="M6.50654 21.0067C6.28574 20.9643 6.04937 20.9997 5.8399 21.12L2.5151 23.0407C2.04804 23.3096 1.88667 23.9069 2.157 24.3739C2.42734 24.8426 3.02464 25.0023 3.49174 24.7319L5.37987 23.6422V25.8149C5.37987 26.3513 5.81584 26.7873 6.35367 26.7873C6.89014 26.7873 7.32607 26.3513 7.32607 25.8149V21.9678C7.32607 21.4823 6.9708 21.0803 6.50654 21.0067Z" fill="#66687C"/>
<path d="M15.9081 16.5C15.6391 16.0315 15.0404 15.8716 14.5734 16.1419L11.2487 18.0612C10.9301 18.2452 10.7547 18.5821 10.7604 18.9246C10.7574 19.2657 10.9331 19.5983 11.2487 19.7795L14.5734 21.7002C15.0404 21.9691 15.6377 21.8092 15.9081 21.3421C16.1784 20.875 16.0171 20.2778 15.5501 20.0074L13.6674 18.9204L15.5501 17.8333C16.0184 17.5644 16.1784 16.9671 15.9081 16.5Z" fill="#66687C"/>
<path d="M67.0014 18.694V18.6954V18.7308C67.0014 18.912 66.8497 19.0465 66.6631 19.0465H61.9921C62.0007 19.1569 62.0147 19.2644 62.0374 19.3706C62.2541 20.3826 63.1204 21.1356 64.1494 21.1441C64.1521 21.1441 64.2044 21.1441 64.2851 21.1441C64.2977 21.1441 64.3107 21.1441 64.3234 21.1441H64.4211C64.4424 21.1441 64.4634 21.1441 64.4861 21.1427C64.5061 21.1427 64.5257 21.1413 64.5457 21.1398C64.5471 21.1398 64.5484 21.1398 64.5497 21.1384C64.8911 21.1115 65.2347 20.9742 65.5421 20.7534C65.5421 20.7534 65.5421 20.7534 65.5434 20.7534C65.5591 20.7421 65.5761 20.7294 65.5914 20.7166C65.5944 20.7152 65.5971 20.7124 65.6014 20.7096C65.6141 20.6997 65.6284 20.6883 65.6424 20.677C65.6481 20.6728 65.6524 20.6685 65.6581 20.6643C65.6694 20.6558 65.6807 20.6459 65.6921 20.636C65.6991 20.6303 65.7077 20.6232 65.7147 20.6176C65.7231 20.6091 65.7317 20.6006 65.7417 20.5935C65.7501 20.585 65.7601 20.5765 65.7684 20.568C65.7754 20.5624 65.7827 20.5553 65.7897 20.5482C65.8011 20.5383 65.8111 20.5284 65.8224 20.5185C65.8281 20.5128 65.8337 20.5057 65.8394 20.5001C65.8507 20.4888 65.8621 20.4774 65.8731 20.4661C65.8787 20.4605 65.8831 20.4562 65.8887 20.4505C65.9001 20.4378 65.9114 20.4251 65.9227 20.4123C65.9284 20.4081 65.9327 20.4024 65.9371 20.3968C65.9497 20.384 65.9611 20.3713 65.9724 20.3585C65.9764 20.3529 65.9821 20.3472 65.9864 20.3416C65.9977 20.3274 66.0077 20.3147 66.0191 20.3019C66.0247 20.2949 66.0304 20.2878 66.0361 20.2807C66.0461 20.268 66.0557 20.2566 66.0644 20.2453C66.0727 20.234 66.0797 20.2241 66.0871 20.2142C66.0941 20.2043 66.1011 20.1958 66.1081 20.1859C66.1194 20.1703 66.1307 20.1547 66.1407 20.1392C66.1451 20.1335 66.1477 20.1292 66.1507 20.125C66.1791 20.084 66.2057 20.0415 66.2327 19.9976C66.2327 19.9976 66.2327 19.9962 66.2341 19.9948C66.2397 19.9849 66.2467 19.9764 66.2541 19.9665C66.2567 19.9622 66.2597 19.958 66.2637 19.9552C66.2681 19.9481 66.2737 19.9438 66.2781 19.9382C66.2824 19.9339 66.2864 19.9297 66.2907 19.9254C66.2964 19.9212 66.3007 19.9169 66.3064 19.9127C66.3107 19.9084 66.3147 19.9042 66.3204 19.9014C66.3277 19.8957 66.3361 19.89 66.3444 19.8858C66.3501 19.8816 66.3574 19.8773 66.3631 19.8745C66.3701 19.8716 66.3757 19.8688 66.3814 19.866C66.3871 19.8632 66.3927 19.8617 66.3971 19.8589C66.4054 19.8561 66.4124 19.8547 66.4211 19.8518C66.4254 19.8504 66.4281 19.849 66.4324 19.8476C66.4591 19.8419 66.4874 19.8377 66.5144 19.8377C66.5441 19.8377 66.5754 19.8419 66.6037 19.8504C66.6051 19.8504 66.6051 19.8504 66.6064 19.8504C66.6177 19.8547 66.6304 19.8575 66.6417 19.8632C66.6447 19.8646 66.6474 19.8646 66.6504 19.866C66.6631 19.8716 66.6744 19.8773 66.6857 19.8844L66.6914 19.8872C66.8471 20.0004 66.8951 20.1986 66.8004 20.3614L66.7991 20.3628C66.7877 20.3812 66.7764 20.3996 66.7651 20.4166C66.7621 20.4208 66.7594 20.4251 66.7564 20.4293C66.4254 20.9332 65.9751 21.3352 65.4727 21.5758C65.4614 21.58 65.4514 21.5857 65.4401 21.5914C65.4387 21.5914 65.4357 21.5928 65.4344 21.5928C65.2024 21.7003 64.9531 21.7754 64.6871 21.8065C64.6814 21.8065 64.6757 21.8079 64.6701 21.8079C64.6474 21.8107 64.6247 21.8136 64.6021 21.815C64.5894 21.815 64.5767 21.8164 64.5624 21.8178C64.5471 21.8178 64.5301 21.8192 64.5144 21.8207C64.4834 21.8207 64.4521 21.8221 64.4211 21.8221C64.4167 21.8221 64.2994 21.8221 64.2201 21.8221C64.1747 21.8221 64.1494 21.8221 64.1464 21.8221C62.5754 21.8107 61.3101 20.5001 61.3101 18.895C61.3101 17.2631 62.5837 15.9453 64.1677 15.9453C64.2144 15.9453 64.2611 15.9467 64.3077 15.9481C64.8597 15.9765 65.3694 16.1647 65.7924 16.4733C65.7941 16.4747 65.7954 16.4761 65.7967 16.4761C65.8207 16.4931 65.8434 16.5115 65.8661 16.5285C65.8774 16.5384 65.8901 16.5483 65.9031 16.5582C65.9144 16.5667 65.9257 16.5766 65.9371 16.5851C66.5327 17.0819 66.9347 17.8278 67.0014 18.6912V18.694ZM62.0374 18.3798H66.2654C66.0557 17.3607 65.1797 16.6233 64.1677 16.6233C63.1374 16.6233 62.2681 17.3466 62.0374 18.3798Z" fill="#66687C"/>
<path d="M55.0593 16.0444C55.1117 16.0968 55.147 16.1675 55.1553 16.2496C55.1553 16.2609 55.157 16.2723 55.157 16.2836V21.4824C55.157 21.6678 55.0013 21.8221 54.817 21.8221C54.633 21.8221 54.479 21.6678 54.479 21.4824V20.7917C54.35 20.9474 54.2087 21.0889 54.0543 21.212C54.05 21.2163 54.0457 21.2191 54.0417 21.2234C54.0273 21.2347 54.0117 21.246 53.9977 21.2559C53.5307 21.6154 52.963 21.8221 52.37 21.8221C51.4147 21.8221 50.5737 21.3139 50.0727 20.544C50.0683 20.5383 50.0627 20.5312 50.0587 20.5256C50.0443 20.5015 50.0303 20.4774 50.0147 20.452C50.0047 20.4364 49.9963 20.4208 49.9863 20.4053C49.9763 20.3897 49.968 20.3727 49.9593 20.3557C49.9453 20.3317 49.9313 20.3062 49.9183 20.2821C49.9143 20.2736 49.9113 20.2651 49.907 20.2566C49.7217 19.8886 49.607 19.4739 49.5873 19.0337C49.5843 18.9842 49.583 18.9346 49.583 18.8837C49.583 18.8327 49.5843 18.7832 49.5873 18.7337C49.607 18.2935 49.7217 17.8788 49.907 17.5093C49.9113 17.5023 49.9143 17.4938 49.9183 17.4853C49.9313 17.4612 49.9453 17.4357 49.9593 17.4117C49.968 17.3947 49.9763 17.3777 49.9863 17.3621C49.995 17.3466 50.0047 17.331 50.0147 17.3154C50.029 17.2914 50.0443 17.2659 50.0587 17.2418C50.0627 17.2362 50.0683 17.2291 50.0727 17.2234C50.5737 16.4534 51.4147 15.9453 52.37 15.9453C53.0153 15.9453 53.6253 16.1817 54.111 16.5936C54.244 16.7054 54.367 16.8285 54.479 16.9644V16.2836C54.479 16.2723 54.479 16.2609 54.4803 16.2496C54.4887 16.1675 54.5243 16.0968 54.5767 16.0444C54.5767 16.0444 54.5767 16.0444 54.5767 16.043C54.5823 16.0373 54.5893 16.0331 54.595 16.0274C54.5963 16.026 54.5993 16.0232 54.6007 16.0217C54.605 16.0175 54.6107 16.0147 54.6147 16.0118C54.619 16.009 54.6233 16.0048 54.6277 16.0019C54.6303 16.0005 54.633 15.9991 54.636 15.9963C54.643 15.9934 54.6487 15.9892 54.6557 15.9849C54.6573 15.9849 54.6587 15.9835 54.66 15.9835C54.6687 15.9793 54.677 15.975 54.6857 15.9708C54.6857 15.9708 54.6857 15.9708 54.687 15.9708C54.7067 15.9623 54.728 15.9566 54.7493 15.9524C54.7507 15.9524 54.7533 15.951 54.755 15.951C54.7633 15.9496 54.7733 15.9481 54.7833 15.9467C54.7947 15.9467 54.806 15.9453 54.817 15.9453C54.83 15.9453 54.8413 15.9467 54.8527 15.9467C54.8623 15.9481 54.871 15.9496 54.881 15.951C54.8823 15.951 54.8837 15.9524 54.8867 15.9524C54.9077 15.9566 54.929 15.9623 54.9487 15.9708H54.9503C54.9587 15.975 54.9673 15.9793 54.9743 15.9835C54.977 15.9835 54.9787 15.9849 54.98 15.9849C54.9857 15.9892 54.9927 15.9934 54.9983 15.9963C55.0013 15.9991 55.0053 16.0005 55.0083 16.0019C55.0123 16.0048 55.0167 16.009 55.021 16.0118C55.0253 16.0147 55.0293 16.0175 55.0337 16.0217C55.0367 16.0232 55.038 16.026 55.0407 16.0274C55.0463 16.0331 55.0537 16.0373 55.0577 16.043C55.0593 16.0444 55.0593 16.0444 55.0593 16.0444ZM52.37 21.1441C53.532 21.1441 54.479 20.1307 54.479 18.8837C54.479 17.6311 53.532 16.612 52.37 16.612C51.2163 16.612 50.261 17.6296 50.261 18.8837C50.261 18.9233 50.2623 18.9615 50.2637 18.9998C50.2637 19.0167 50.2667 19.0323 50.2667 19.0479C50.268 19.0705 50.2693 19.0932 50.2723 19.1144C50.2737 19.1328 50.2767 19.1498 50.278 19.1668C50.2807 19.1866 50.2823 19.2078 50.285 19.2276C50.288 19.2432 50.2907 19.2574 50.292 19.2715C50.2963 19.2942 50.2993 19.3168 50.3033 19.3395C50.3063 19.3508 50.309 19.3607 50.3107 19.3706C50.3163 19.3975 50.322 19.423 50.3277 19.4499C50.329 19.4555 50.3303 19.4612 50.333 19.4668C50.5737 20.435 51.4003 21.1441 52.37 21.1441Z" fill="#66687C"/>
<path d="M46.5516 13.4949H46.4596C46.4483 13.4949 46.4356 13.4949 46.4243 13.4963C46.4113 13.4949 46.3999 13.4949 46.3873 13.4949C46.3549 13.4949 46.3223 13.4949 46.2896 13.4963C46.2839 13.4963 46.2769 13.4977 46.2713 13.4977C46.2459 13.4977 46.2203 13.4991 46.1949 13.5019C46.1906 13.5019 46.1849 13.5019 46.1806 13.5019C46.1539 13.5048 46.1283 13.5062 46.1029 13.509C46.0999 13.5104 46.0973 13.5104 46.0943 13.5104C46.0659 13.5147 46.0393 13.5175 46.0136 13.5218C46.0123 13.5218 46.0109 13.5218 46.0109 13.5218C45.8396 13.5486 45.6853 13.5968 45.5479 13.6647C45.5479 13.6661 45.5466 13.6661 45.5453 13.6661C45.5253 13.6774 45.5043 13.6888 45.4843 13.7001C45.4799 13.7015 45.4773 13.7043 45.4729 13.7072C45.4559 13.7171 45.4389 13.727 45.4219 13.7383C45.4149 13.7426 45.4093 13.7482 45.4036 13.7525C45.3896 13.761 45.3766 13.7709 45.3626 13.7808C45.3526 13.7893 45.3429 13.7978 45.3329 13.8048C45.3242 13.8119 45.3159 13.819 45.3073 13.8261C45.2919 13.8402 45.2776 13.853 45.2636 13.8671C45.2606 13.8699 45.2579 13.8728 45.2549 13.8756C45.2379 13.894 45.2209 13.911 45.2039 13.9294C45.2013 13.9336 45.1983 13.9379 45.1956 13.9407C45.1813 13.9563 45.1673 13.9718 45.1546 13.9874C45.1503 13.9945 45.1446 14.0016 45.1403 14.0087C45.1289 14.0228 45.1193 14.0355 45.1093 14.0497C45.1063 14.0554 45.1036 14.0596 45.0993 14.0639C45.0879 14.0808 45.0766 14.0978 45.0669 14.1148C45.0653 14.1176 45.0639 14.1191 45.0626 14.1219C44.9706 14.2733 44.9053 14.4517 44.8643 14.6668C44.8643 14.6696 44.8643 14.6739 44.8629 14.6767C44.8573 14.7036 44.8529 14.7319 44.8489 14.7602C44.8473 14.7687 44.8459 14.7772 44.8459 14.7857C44.8416 14.8098 44.8389 14.8338 44.8359 14.8593C44.8346 14.8735 44.8333 14.8876 44.8319 14.9032C44.8289 14.923 44.8263 14.9414 44.8246 14.9626C44.8233 14.9839 44.8219 15.0051 44.8206 15.0277C44.8189 15.0419 44.8189 15.056 44.8176 15.0716C44.8163 15.1013 44.8149 15.1325 44.8133 15.1636C44.8133 15.1721 44.8119 15.1778 44.8119 15.1849C44.8106 15.2245 44.8106 15.2655 44.8106 15.3052V15.8642H44.1056C44.0619 15.8628 44.0179 15.8713 43.9783 15.8855C43.8509 15.9322 43.7603 16.0525 43.7603 16.1926C43.7603 16.3243 43.8256 16.4361 43.9273 16.5012C43.9783 16.5337 44.0379 16.5535 44.1029 16.5564H44.1056V16.5578H44.8106V21.4947C44.8093 21.5018 44.8106 21.5075 44.8106 21.5145C44.8106 21.5188 44.8106 21.523 44.8106 21.5273C44.8149 21.6065 44.8473 21.6787 44.8996 21.7339L44.9013 21.7353C44.9083 21.7424 44.9166 21.7495 44.9239 21.7566C44.9253 21.758 44.9266 21.758 44.9279 21.7594C44.9336 21.7651 44.9409 21.7693 44.9466 21.7736C44.9493 21.7764 44.9536 21.7792 44.9563 21.7806C44.9593 21.7835 44.9619 21.7849 44.9663 21.7863C45.0216 21.8217 45.0866 21.8415 45.1559 21.8415C45.1673 21.8415 45.1786 21.8401 45.1886 21.8387C45.2549 21.833 45.3159 21.8047 45.3652 21.7637L45.3669 21.7622C45.3739 21.7566 45.3796 21.7509 45.3853 21.7438C45.3866 21.7424 45.3896 21.741 45.3909 21.7396C45.3966 21.7339 45.4009 21.7283 45.4049 21.724C45.4589 21.6589 45.4886 21.5782 45.4843 21.4947V16.5578H46.2429V16.5564H46.2459C46.4469 16.5465 46.5939 16.3894 46.5883 16.194C46.5883 16.1926 46.5883 16.1926 46.5883 16.1912C46.5896 16.1841 46.5883 16.177 46.5883 16.17C46.5883 16.1671 46.5883 16.1643 46.5883 16.1629C46.5826 16.0879 46.5503 16.0199 46.4993 15.9676C46.4993 15.9676 46.4993 15.9676 46.4993 15.9662C46.4976 15.9662 46.4976 15.9662 46.4976 15.9662C46.4906 15.9591 46.4849 15.9534 46.4779 15.9478C46.4749 15.9449 46.4722 15.9435 46.4709 15.9407C46.4652 15.9364 46.4609 15.9336 46.4553 15.9294C46.4509 15.9265 46.4453 15.9223 46.4413 15.9194C46.4383 15.918 46.4339 15.9152 46.4313 15.9138C46.4243 15.9095 46.4169 15.9053 46.4099 15.9025C46.4086 15.901 46.4056 15.8996 46.4043 15.8996C46.3959 15.8954 46.3872 15.8911 46.3789 15.8883C46.3772 15.8869 46.3759 15.8869 46.3733 15.8855C46.3646 15.8826 46.3563 15.8798 46.3476 15.877C46.3449 15.877 46.3419 15.8756 46.3393 15.8756C46.3306 15.8742 46.3236 15.8713 46.3153 15.8699C46.3109 15.8699 46.3066 15.8699 46.3023 15.8685C46.2966 15.8671 46.2896 15.8671 46.2826 15.8657C46.2769 15.8657 46.2713 15.8657 46.2669 15.8657C46.2629 15.8657 46.2586 15.8642 46.2543 15.8642C46.2499 15.8642 46.2443 15.8642 46.2429 15.8642H45.4843V15.3066C45.4843 15.3023 45.4843 15.2981 45.4843 15.2953C45.4856 15.2669 45.4856 15.2386 45.4873 15.2117C45.4873 15.2047 45.4873 15.1962 45.4886 15.1891C45.4886 15.165 45.4899 15.141 45.4913 15.1183C45.4913 15.1141 45.4929 15.1084 45.4929 15.1042C45.4943 15.0773 45.4969 15.0504 45.4999 15.0249C45.5269 14.7489 45.5863 14.5748 45.6486 14.4687C45.6499 14.4658 45.6499 14.4644 45.6513 14.4616C45.6556 14.4545 45.6612 14.4474 45.6656 14.4403C45.6682 14.4347 45.6726 14.429 45.6769 14.4234C45.6783 14.4205 45.6809 14.4149 45.6839 14.412C45.6909 14.4021 45.6979 14.3936 45.7066 14.3851C45.7956 14.2847 45.9343 14.2238 46.1353 14.1997C46.1383 14.1997 46.1396 14.1983 46.1439 14.1983C46.1553 14.1969 46.1679 14.1955 46.1792 14.1955C46.1849 14.1941 46.1919 14.1941 46.1976 14.1927C46.2089 14.1927 46.2189 14.1912 46.2302 14.1912C46.2386 14.1912 46.2459 14.1898 46.2556 14.1898C46.2656 14.1884 46.2756 14.1884 46.2853 14.1884C46.2953 14.1884 46.3053 14.187 46.3153 14.187C46.3249 14.187 46.3349 14.187 46.3449 14.187C46.3589 14.187 46.3733 14.187 46.3873 14.187H46.3886C46.3999 14.187 46.4099 14.1856 46.4213 14.1842C46.4339 14.1856 46.4469 14.187 46.4596 14.187H46.5516C46.7413 14.187 46.8969 14.0313 46.8969 13.8402C46.8969 13.6491 46.7413 13.4949 46.5516 13.4949Z" fill="#66687C"/>
<path d="M48.3792 13.5049C48.3792 13.5049 48.3779 13.5035 48.3765 13.5035C48.3695 13.5006 48.3639 13.4978 48.3552 13.4964C48.3525 13.495 48.3482 13.4935 48.3439 13.4921C48.3382 13.4907 48.3325 13.4893 48.3269 13.4879C48.3212 13.4865 48.3155 13.4836 48.3115 13.4836C48.3042 13.4822 48.2985 13.4808 48.2915 13.4808C48.2859 13.4794 48.2815 13.4794 48.2759 13.478C48.2645 13.4766 48.2519 13.4766 48.2405 13.4766C48.0565 13.4766 47.9009 13.6308 47.9009 13.8148V21.4835C47.9009 21.6689 48.0565 21.8232 48.2405 21.8232C48.2519 21.8232 48.2645 21.8232 48.2759 21.8218C48.2775 21.8218 48.2802 21.8204 48.2815 21.8204C48.2915 21.819 48.3015 21.8175 48.3115 21.8161C48.3129 21.8161 48.3155 21.8147 48.3185 21.8147C48.3269 21.8119 48.3355 21.8105 48.3439 21.8076C48.3452 21.8076 48.3469 21.8076 48.3482 21.8062C48.4785 21.7652 48.5745 21.6548 48.5889 21.5189C48.5902 21.5076 48.5915 21.4962 48.5915 21.4835V13.8148C48.5915 13.8035 48.5902 13.7922 48.5889 13.7809C48.5762 13.6563 48.4939 13.553 48.3792 13.5049Z" fill="#66687C"/>
<path d="M22.3867 20.0174C22.3841 19.9976 22.3841 19.9792 22.3811 19.9608C22.3797 19.9467 22.3784 19.9339 22.3767 19.9212C22.3741 19.9056 22.3727 19.8915 22.3697 19.8759C22.3671 19.8617 22.3641 19.8476 22.3614 19.832C22.3597 19.8207 22.3571 19.808 22.3544 19.7966C22.3501 19.7796 22.3471 19.7641 22.3431 19.7471C22.3401 19.7386 22.3374 19.7287 22.3344 19.7202C22.3301 19.7018 22.3244 19.6848 22.3174 19.6678C22.3161 19.6607 22.3131 19.6537 22.3117 19.648C22.3047 19.6282 22.2977 19.6098 22.2891 19.59C22.2877 19.5871 22.2864 19.5829 22.2847 19.5787C22.2751 19.5588 22.2664 19.5376 22.2567 19.5178C22.2551 19.5164 22.2551 19.515 22.2537 19.5135C22.1731 19.3508 22.0584 19.2149 21.9184 19.1002C21.9184 19.0988 21.9184 19.0988 21.9167 19.0988C21.8971 19.0833 21.8774 19.0663 21.8561 19.0507C21.8561 19.0507 21.8547 19.0493 21.8531 19.0479C21.8517 19.0479 21.8504 19.0465 21.8491 19.045C21.8361 19.0366 21.8234 19.0266 21.8121 19.0182C21.6381 18.895 21.4454 18.7974 21.1654 18.6898C21.1611 18.6884 21.1567 18.687 21.1524 18.6855C21.1484 18.6827 21.1427 18.6813 21.1384 18.6785C20.9797 18.619 20.8157 18.5624 20.6474 18.5072C20.6474 18.5072 20.6474 18.5072 20.6457 18.5072C20.6457 18.5072 20.6444 18.5072 20.6444 18.5058C20.6417 18.5058 20.6387 18.5044 20.6344 18.5029C20.6191 18.4973 20.6021 18.4916 20.5794 18.4845C20.5681 18.4817 20.5594 18.4789 20.5511 18.4761C20.4944 18.4562 20.4364 18.4378 20.3784 18.418C20.3374 18.4039 20.2934 18.3897 20.2411 18.3727C20.2267 18.3685 20.1931 18.3572 20.1647 18.3487C20.1631 18.3487 20.1631 18.3473 20.1617 18.3473C20.1447 18.3416 20.1277 18.3359 20.1094 18.3303C19.9677 18.285 19.8517 18.2453 19.7527 18.2085C19.5914 18.1491 19.4441 18.0854 19.3237 18.009C19.3211 18.0076 19.3181 18.0061 19.3167 18.0047C19.1527 17.9 19.0394 17.7712 19.0124 17.6028L19.0111 17.6013C19.0097 17.59 19.0081 17.5773 19.0081 17.566C19.0067 17.5631 19.0067 17.5617 19.0067 17.5603C19.0054 17.5461 19.0054 17.5334 19.0054 17.5192C19.0054 17.4994 19.0067 17.4796 19.0081 17.4612C19.0081 17.4555 19.0081 17.4513 19.0097 17.4471C19.0111 17.4315 19.0124 17.4173 19.0137 17.4032C19.0154 17.3989 19.0154 17.3947 19.0167 17.3904C19.0194 17.3749 19.0224 17.3607 19.0251 17.3451C19.0267 17.3437 19.0267 17.3409 19.0281 17.3381C19.0324 17.3211 19.0364 17.3055 19.0421 17.2899C19.0421 17.2885 19.0421 17.2885 19.0421 17.2885C19.1157 17.0691 19.2897 16.9064 19.4951 16.7917C19.5094 16.7846 19.5234 16.7776 19.5361 16.7705C19.5504 16.7634 19.5631 16.7563 19.5757 16.7507C19.5971 16.7408 19.6184 16.7309 19.6394 16.7224C19.6521 16.7167 19.6634 16.711 19.6764 16.7068C19.6991 16.6983 19.7217 16.6898 19.7441 16.6813C19.7554 16.6771 19.7684 16.6728 19.7811 16.6686C19.8037 16.6615 19.8251 16.6544 19.8474 16.6488C19.8617 16.6445 19.8744 16.6403 19.8887 16.6374C19.9097 16.6318 19.9311 16.6275 19.9507 16.6219C19.9651 16.619 19.9791 16.6162 19.9934 16.6134C20.0161 16.6091 20.0371 16.6049 20.0571 16.6021C20.0697 16.6006 20.0811 16.5992 20.0937 16.5964C20.1177 16.5936 20.1434 16.5907 20.1687 16.5893C20.1744 16.5879 20.1801 16.5879 20.1874 16.5865C20.2184 16.5851 20.2494 16.5837 20.2794 16.5837C20.3147 16.5837 20.3501 16.5851 20.3841 16.5865C20.3897 16.5865 20.3954 16.5865 20.3994 16.5865C20.6501 16.6021 20.8524 16.6629 21.0194 16.7436C21.0324 16.7493 21.0451 16.7563 21.0577 16.762C21.0647 16.7662 21.0717 16.7705 21.0791 16.7733C21.0944 16.7818 21.1101 16.7903 21.1271 16.8002C21.1301 16.8016 21.1327 16.803 21.1357 16.8045C21.1524 16.8144 21.1694 16.8257 21.1864 16.8356C21.1881 16.837 21.1894 16.837 21.1894 16.837C21.2077 16.8483 21.2261 16.8611 21.2444 16.8724C21.2444 16.8738 21.2461 16.8738 21.2461 16.8752C21.2644 16.8866 21.2814 16.8979 21.2984 16.9106C21.3054 16.9163 21.3111 16.9205 21.3181 16.9248C21.3577 16.9545 21.4201 17.0026 21.4767 17.0493C21.4837 17.0536 21.4894 17.0578 21.4937 17.0621C21.5361 17.0975 21.5757 17.1286 21.6141 17.1569C21.6211 17.1626 21.6267 17.1668 21.6311 17.1696C21.6324 17.1711 21.6337 17.1725 21.6351 17.1725C21.6394 17.1753 21.6437 17.1781 21.6481 17.181C21.6577 17.188 21.6691 17.1951 21.6791 17.2022C21.6834 17.205 21.6877 17.2064 21.6917 17.2093C21.7017 17.2149 21.7117 17.2206 21.7214 17.2263C21.7257 17.2277 21.7287 17.2291 21.7327 17.2305C21.7441 17.2362 21.7541 17.2404 21.7654 17.2447C21.7684 17.2461 21.7697 17.2461 21.7724 17.2475C21.7854 17.2517 21.7981 17.256 21.8107 17.2574C21.8107 17.2574 21.8107 17.2574 21.8121 17.2588C21.8404 17.2631 21.8674 17.2645 21.8957 17.2574C21.8984 17.2574 21.9014 17.256 21.9041 17.256C21.9111 17.2546 21.9197 17.2517 21.9267 17.2503C21.9297 17.2489 21.9311 17.2475 21.9337 17.2461C21.9367 17.2461 21.9394 17.2447 21.9424 17.2432C21.9537 17.2376 21.9651 17.2319 21.9764 17.2248C21.9791 17.2248 21.9807 17.2234 21.9821 17.222C21.9947 17.2135 22.0061 17.205 22.0174 17.1951C22.0187 17.1937 22.0187 17.1937 22.0187 17.1937C22.0287 17.1852 22.0371 17.1753 22.0457 17.1654C22.0514 17.1583 22.0571 17.1498 22.0614 17.1413C22.0627 17.1399 22.0641 17.1385 22.0641 17.1371C22.1234 17.038 22.0894 16.9078 21.9847 16.7662C21.9834 16.7634 21.9821 16.7606 21.9791 16.7578C21.9751 16.7521 21.9721 16.7478 21.9677 16.7422C21.7271 16.4308 21.1794 16.0897 20.6714 15.9807C20.6684 15.9807 20.6657 15.9807 20.6627 15.9793C20.6417 15.975 20.6191 15.9708 20.5977 15.9665C20.5921 15.9665 20.5851 15.9651 20.5794 15.9637C20.5611 15.9609 20.5424 15.9581 20.5241 15.9566C20.5171 15.9552 20.5101 15.9538 20.5027 15.9538C20.4861 15.9524 20.4674 15.951 20.4504 15.9496C20.4434 15.9481 20.4364 15.9481 20.4307 15.9467C20.4067 15.9467 20.3841 15.9453 20.3614 15.9453C20.3244 15.9453 20.2877 15.9453 20.2524 15.9467C20.2324 15.9467 20.2127 15.9481 20.1914 15.9496C20.1774 15.951 20.1604 15.951 20.1461 15.951C20.1177 15.9538 20.0911 15.9552 20.0641 15.9581C20.0571 15.9581 20.0484 15.9581 20.0414 15.9595C20.0104 15.9623 19.9791 15.9651 19.9494 15.9694C19.9451 15.9694 19.9424 15.9694 19.9394 15.9694C19.9071 15.9736 19.8757 15.9779 19.8447 15.9835C19.8434 15.9835 19.8404 15.9835 19.8391 15.9835C19.8081 15.9878 19.7767 15.9934 19.7471 15.9991C19.7457 15.9991 19.7441 16.0005 19.7414 16.0005C19.6777 16.0118 19.6154 16.026 19.5561 16.0416C19.5544 16.0416 19.5544 16.043 19.5544 16.043C19.5247 16.0501 19.4951 16.0585 19.4654 16.067C19.4371 16.0755 19.4101 16.0854 19.3847 16.0939C19.3817 16.0939 19.3804 16.0953 19.3777 16.0953C19.3521 16.1053 19.3267 16.1137 19.3011 16.1237C19.2984 16.1251 19.2954 16.1265 19.2941 16.1265C19.2687 16.1364 19.2461 16.1463 19.2221 16.1576C19.2191 16.159 19.2147 16.159 19.2121 16.1619C19.1907 16.1704 19.1681 16.1817 19.1484 16.1916C19.1427 16.1944 19.1384 16.1958 19.1341 16.1987C19.1131 16.2086 19.0931 16.2185 19.0734 16.2298C19.0677 16.2326 19.0634 16.2355 19.0577 16.2383C19.0394 16.2482 19.0211 16.2595 19.0024 16.2709C18.9967 16.2737 18.9914 16.2765 18.9857 16.2808C18.9614 16.2949 18.9387 16.3105 18.9161 16.3246C18.8894 16.3445 18.8624 16.3629 18.8384 16.3827C18.8354 16.3827 18.8341 16.3841 18.8341 16.3855C18.7137 16.4747 18.6104 16.5695 18.5254 16.6799C18.5227 16.6842 18.5184 16.6884 18.5157 16.6926C18.5057 16.7082 18.4944 16.7224 18.4844 16.7365C18.4774 16.7478 18.4704 16.7592 18.4634 16.7705C18.4577 16.779 18.4521 16.7875 18.4477 16.796C18.4364 16.8144 18.4264 16.8328 18.4167 16.8526C18.4151 16.8554 18.4137 16.8568 18.4124 16.8597C18.3361 17.0111 18.2921 17.1852 18.2751 17.3961C18.2751 17.3989 18.2751 17.4018 18.2737 17.4046C18.2721 17.4414 18.2694 17.4782 18.2681 17.5178C18.2681 17.5476 18.2681 17.5773 18.2694 17.607C18.2694 17.6112 18.2694 17.6155 18.2694 17.6197C18.2851 18.0245 18.4691 18.3289 18.8017 18.5652C18.8044 18.5666 18.8071 18.5695 18.8101 18.5709C18.8241 18.5808 18.8384 18.5907 18.8524 18.6006C18.8624 18.6077 18.8737 18.6133 18.8837 18.6204C18.8864 18.6233 18.8907 18.6247 18.8937 18.6261C19.2221 18.8342 19.6241 18.953 19.9594 19.0479C20.1234 19.096 20.2707 19.137 20.3147 19.1498C20.3244 19.1526 20.3344 19.1554 20.3431 19.1597C20.5441 19.2262 20.6981 19.28 20.8257 19.331C20.8354 19.3338 20.8441 19.338 20.8541 19.3409C20.8567 19.3423 20.8611 19.3437 20.8651 19.3465C20.9374 19.3763 21.0081 19.4074 21.0761 19.4414C21.1327 19.4697 21.1851 19.4994 21.2374 19.5305C21.3721 19.614 21.4754 19.7046 21.5447 19.8037C21.5474 19.8065 21.5487 19.8094 21.5504 19.8122C21.5574 19.8207 21.5631 19.8292 21.5674 19.8391C21.5714 19.8448 21.5744 19.849 21.5771 19.8547C21.5814 19.8617 21.5857 19.8688 21.5884 19.8759C21.5927 19.883 21.5957 19.8915 21.5997 19.8985C21.6027 19.9042 21.6054 19.9099 21.6084 19.9155C21.6111 19.924 21.6154 19.9325 21.6181 19.9424C21.6197 19.9467 21.6224 19.9523 21.6237 19.958C21.6267 19.9679 21.6294 19.9778 21.6324 19.9877C21.6337 19.992 21.6351 19.9962 21.6367 20.0019C21.6394 20.0118 21.6424 20.0231 21.6437 20.033C21.6451 20.0372 21.6464 20.0429 21.6464 20.0472C21.6481 20.0585 21.6494 20.0698 21.6507 20.0811C21.6521 20.0854 21.6521 20.0896 21.6521 20.0939C21.6537 20.1108 21.6551 20.1264 21.6551 20.1434C21.6551 20.1689 21.6537 20.1929 21.6521 20.217C21.6521 20.2241 21.6507 20.2312 21.6507 20.2382C21.6494 20.2566 21.6464 20.275 21.6424 20.2934C21.6424 20.2991 21.6407 20.3048 21.6394 20.3104C21.6311 20.36 21.6167 20.4067 21.5984 20.4534C21.5971 20.4548 21.5971 20.4562 21.5971 20.4576C21.5871 20.4789 21.5771 20.5015 21.5657 20.5213C21.5644 20.5241 21.5644 20.5256 21.5631 20.527C21.5391 20.5723 21.5107 20.6161 21.4754 20.6572C21.4584 20.6784 21.4397 20.6982 21.4214 20.7181C21.4201 20.7181 21.4201 20.7181 21.4201 20.7195C21.3817 20.7577 21.3394 20.7931 21.2954 20.8256C21.2941 20.827 21.2927 20.827 21.2927 20.8285C21.2714 20.8426 21.2501 20.8582 21.2291 20.8709C21.2261 20.8738 21.2234 20.8752 21.2204 20.8766C21.1837 20.8992 21.1441 20.9219 21.1044 20.9417C21.0904 20.9488 21.0761 20.9558 21.0604 20.9629C21.0451 20.97 21.0281 20.9785 21.0111 20.9856C20.9967 20.9912 20.9841 20.9969 20.9701 21.0026C20.9317 21.0167 20.8951 21.0309 20.8567 21.0436C20.8511 21.045 20.8454 21.0464 20.8397 21.0493C20.8171 21.0563 20.7944 21.062 20.7717 21.0691C20.7661 21.0705 20.7591 21.0733 20.7534 21.0747C20.6784 21.0946 20.6047 21.1101 20.5354 21.1214C20.5341 21.1214 20.5327 21.1214 20.5311 21.1214C20.4957 21.1271 20.4617 21.1314 20.4294 21.1356C20.4164 21.137 20.4051 21.1384 20.3924 21.1384C20.3811 21.1398 20.3697 21.1398 20.3571 21.1413C20.3301 21.1427 20.3017 21.1441 20.2764 21.1441C20.2241 21.1441 20.1731 21.1427 20.1234 21.1398C20.1037 21.1398 20.0841 21.1384 20.0641 21.137C20.0371 21.1342 20.0091 21.1328 19.9834 21.1299C19.9594 21.1285 19.9337 21.1257 19.9114 21.1229C19.8901 21.12 19.8701 21.1172 19.8504 21.1144C19.8064 21.1073 19.7654 21.1016 19.7244 21.0931C19.7061 21.0889 19.6861 21.0861 19.6677 21.0818C19.6467 21.0762 19.6254 21.0719 19.6041 21.0662C19.5801 21.0606 19.5574 21.0549 19.5347 21.0478C19.5191 21.0436 19.5021 21.0394 19.4881 21.0351C19.4497 21.0238 19.4117 21.011 19.3747 20.9969C19.3664 20.9941 19.3577 20.9912 19.3494 20.9884C19.2674 20.9573 19.1864 20.9233 19.1074 20.8837C19.1044 20.8822 19.1001 20.8794 19.0961 20.878C19.0451 20.8525 18.9587 20.8044 18.8767 20.7577C18.8694 20.7534 18.8611 20.7492 18.8541 20.7449C18.7961 20.711 18.7464 20.6827 18.6997 20.66C18.6954 20.6572 18.6927 20.6558 18.6897 20.6544C18.6871 20.6529 18.6841 20.6515 18.6827 20.6515C18.6701 20.6459 18.6601 20.6402 18.6487 20.636C18.6444 20.6345 18.6417 20.6331 18.6387 20.6317C18.6091 20.6204 18.5821 20.6119 18.5554 20.6091C18.5467 20.6077 18.5384 20.6077 18.5297 20.6077C18.5271 20.6062 18.5241 20.6062 18.5214 20.6062C18.4674 20.6062 18.4207 20.6246 18.3771 20.6657C18.3671 20.6742 18.3584 20.6827 18.3501 20.6926C18.3487 20.6954 18.3457 20.6982 18.3431 20.7011C18.3374 20.7081 18.3331 20.7138 18.3287 20.7195C18.3261 20.7237 18.3231 20.728 18.3217 20.7308C18.3174 20.7365 18.3134 20.7421 18.3104 20.7478C18.3077 20.752 18.3061 20.7563 18.3047 20.7605C18.3021 20.7662 18.2991 20.7718 18.2964 20.7775C18.2947 20.7817 18.2934 20.7846 18.2921 20.7888C18.2891 20.7959 18.2877 20.8016 18.2864 20.8072C18.2851 20.8115 18.2834 20.8143 18.2834 20.8186C18.2821 20.8256 18.2807 20.8327 18.2794 20.8398C18.2794 20.8426 18.2777 20.8454 18.2777 20.8483C18.2764 20.8582 18.2764 20.8667 18.2764 20.8752C18.2764 20.8766 18.2764 20.878 18.2764 20.8794C18.2764 20.8907 18.2777 20.9006 18.2807 20.912C18.2807 20.9134 18.2807 20.9162 18.2807 20.9176C18.2834 20.9261 18.2851 20.936 18.2877 20.9445C18.2891 20.9488 18.2907 20.953 18.2921 20.9573C18.2947 20.9643 18.2964 20.9728 18.3004 20.9799C18.3021 20.9842 18.3034 20.987 18.3047 20.9898C18.3231 21.0323 18.3527 21.0762 18.3911 21.1186C18.4321 21.1639 18.4844 21.2092 18.5454 21.2559C18.5467 21.2559 18.5467 21.2559 18.5467 21.2573C18.5637 21.2686 18.5807 21.2814 18.5991 21.2941C18.6034 21.297 18.6064 21.2998 18.6104 21.3012C18.6601 21.3352 18.7124 21.3677 18.7717 21.4017C18.7861 21.4102 18.8001 21.4187 18.8144 21.4258C18.8284 21.4343 18.8427 21.4413 18.8567 21.4484C18.8737 21.4583 18.8937 21.4682 18.9121 21.4781C18.9247 21.4838 18.9361 21.4909 18.9487 21.4965C18.9771 21.5107 19.0067 21.5248 19.0364 21.539C19.0407 21.5418 19.0437 21.5432 19.0477 21.5447C19.0804 21.5602 19.1131 21.5744 19.1454 21.5871C19.1597 21.5928 19.1724 21.5984 19.1864 21.6041C19.1894 21.6055 19.1921 21.6069 19.1951 21.6069C19.4981 21.7258 19.8717 21.8051 20.2014 21.8192C20.2254 21.8207 20.2511 21.8221 20.2751 21.8221H20.2764C20.2877 21.8221 20.2977 21.8221 20.3091 21.8207C20.3344 21.8207 20.3601 21.8207 20.3854 21.8207C20.3884 21.8207 20.3911 21.8207 20.3937 21.8192C20.9304 21.8023 21.3704 21.6635 21.7457 21.389C21.7457 21.3875 21.7457 21.3875 21.7457 21.3875C22.1617 21.0733 22.3911 20.6303 22.3911 20.142C22.3911 20.1108 22.3897 20.0797 22.3881 20.05C22.3881 20.0387 22.3867 20.0273 22.3867 20.0174Z" fill="#66687C"/>
<path d="M25.8476 15.9558C25.8463 15.9558 25.8449 15.9558 25.8433 15.9558C25.1839 15.9558 24.5609 16.2247 24.1109 16.7003V16.2955C24.1109 16.1087 23.9666 15.9558 23.7839 15.9558C23.7713 15.9558 23.7599 15.9572 23.7486 15.9572C23.6679 15.9657 23.5973 16.0011 23.5449 16.0535C23.5433 16.0535 23.5433 16.0535 23.5419 16.0549C23.5376 16.0605 23.5319 16.0662 23.5279 16.0719C23.5249 16.0733 23.5223 16.0761 23.5206 16.0789C23.5166 16.0832 23.5136 16.0874 23.5109 16.0917C23.5079 16.0959 23.5053 16.1002 23.5009 16.1044C23.4996 16.1072 23.4979 16.1101 23.4966 16.1129C23.4923 16.12 23.4883 16.1271 23.4839 16.1327C23.4839 16.1341 23.4839 16.1356 23.4826 16.137C23.4783 16.1455 23.4739 16.154 23.4696 16.1624C23.4626 16.1837 23.4556 16.2049 23.4513 16.2261C23.4513 16.2276 23.4513 16.229 23.4499 16.229C23.4486 16.2403 23.4473 16.2502 23.4456 16.2601C23.4456 16.2714 23.4443 16.2828 23.4443 16.2955V21.5523L23.4399 21.575L23.4569 21.5891C23.4569 21.5962 23.4586 21.6061 23.4626 21.616C23.4626 21.6174 23.4639 21.6202 23.4639 21.6217C23.4669 21.6287 23.4713 21.6372 23.4783 21.6443C23.5223 21.7278 23.6029 21.7915 23.6976 21.8198L23.7046 21.8212H23.7839C23.7966 21.8212 23.8096 21.8212 23.8223 21.8198C23.8306 21.8184 23.8393 21.8156 23.8476 21.8142C23.8519 21.8142 23.8546 21.8142 23.8589 21.8127C23.8703 21.8099 23.8816 21.8071 23.8929 21.8028C23.8929 21.8028 23.8929 21.8028 23.8943 21.8028C23.9539 21.7816 24.0049 21.7448 24.0386 21.6953C24.0403 21.6938 24.0416 21.6924 24.0429 21.691C24.0656 21.667 24.0783 21.6415 24.0913 21.6061C24.0926 21.6018 24.0939 21.599 24.0939 21.5962C24.0953 21.5948 24.0953 21.5948 24.0953 21.5934C24.1009 21.5764 24.1053 21.5594 24.1096 21.5424L24.1109 21.5367V18.3549C24.1336 17.4066 24.9093 16.6352 25.8406 16.6338C25.8419 16.6338 25.8419 16.6338 25.8433 16.6338C26.7916 16.6338 27.5633 17.4052 27.5633 18.3535V21.4815C27.5633 21.4943 27.5646 21.5056 27.5659 21.5169C27.5729 21.599 27.6083 21.6698 27.6609 21.7222C27.6609 21.7222 27.6623 21.7222 27.6623 21.7236C27.6679 21.7292 27.6736 21.7335 27.6793 21.7391C27.6819 21.742 27.6833 21.7434 27.6863 21.7448C27.6906 21.749 27.6946 21.7519 27.6989 21.7547C27.7033 21.759 27.7076 21.7618 27.7116 21.7646C27.7159 21.766 27.7189 21.7674 27.7216 21.7703C27.7273 21.7745 27.7343 21.7774 27.7399 21.7816C27.7416 21.7816 27.7429 21.783 27.7456 21.783C27.7529 21.7873 27.7613 21.7915 27.7696 21.7958H27.7713C27.7909 21.8042 27.8123 21.8099 27.8336 21.8142C27.8363 21.8142 27.8376 21.8156 27.8393 21.8156C27.8489 21.817 27.8576 21.8184 27.8673 21.8198C27.8786 21.8212 27.8899 21.8212 27.9029 21.8212C27.9143 21.8212 27.9256 21.8212 27.9369 21.8198C27.9466 21.8184 27.9566 21.817 27.9649 21.8156C27.9666 21.8156 27.9693 21.8142 27.9706 21.8142C27.9933 21.8099 28.0133 21.8042 28.0346 21.7958C28.0429 21.7915 28.0513 21.7873 28.0599 21.783C28.0613 21.783 28.0626 21.7816 28.0643 21.7816C28.0713 21.7774 28.0769 21.7745 28.0839 21.7703C28.0869 21.7674 28.0896 21.766 28.0926 21.7646C28.0966 21.7618 28.1009 21.759 28.1053 21.7547C28.1096 21.7519 28.1153 21.749 28.1193 21.7448C28.1209 21.7434 28.1236 21.742 28.1249 21.7391C28.1306 21.7335 28.1376 21.7292 28.1433 21.7236C28.1433 21.7222 28.1433 21.7222 28.1433 21.7222C28.1973 21.6698 28.2326 21.599 28.2396 21.5169C28.2409 21.5056 28.2409 21.4943 28.2409 21.4815V18.3535C28.2409 17.0329 27.1683 15.9586 25.8476 15.9558Z" fill="#66687C"/>
<path d="M31.9535 15.9453C33.4905 15.9453 34.7405 17.2631 34.7405 18.8837C34.7405 20.5043 33.4905 21.8221 31.9535 21.8221C31.9052 21.8221 31.8585 21.8207 31.8118 21.8178C31.8048 21.8178 31.7992 21.8178 31.7922 21.8164C31.7512 21.815 31.7098 21.8107 31.6705 21.8065C31.6688 21.8065 31.6675 21.8065 31.6662 21.8065C31.0588 21.74 30.4912 21.4626 30.0398 21.0082C30.0215 20.9898 30.0015 20.9714 29.9845 20.9516C29.9832 20.9516 29.9832 20.9502 29.9818 20.9502C29.9718 20.9403 29.9635 20.929 29.9535 20.9176C29.9322 20.895 29.9112 20.8709 29.8898 20.8469C29.8728 20.8285 29.8572 20.8072 29.8402 20.7874C29.8288 20.7718 29.8162 20.7563 29.8035 20.7407C29.7778 20.7096 29.7538 20.677 29.7312 20.6445C29.7285 20.6402 29.7255 20.636 29.7228 20.6317C29.4468 20.2453 29.2668 19.7995 29.1992 19.3267C29.1918 19.2828 29.1878 19.239 29.1835 19.1951C29.1822 19.1908 29.1822 19.1852 29.1805 19.1795C29.1765 19.1385 29.1735 19.0988 29.1722 19.0578C29.1708 19.0493 29.1708 19.0408 29.1708 19.0309C29.1678 18.9828 29.1665 18.9332 29.1665 18.8837C29.1665 18.8342 29.1678 18.7846 29.1708 18.7365C29.1708 18.7266 29.1708 18.7181 29.1722 18.7096C29.1735 18.6686 29.1765 18.6275 29.1805 18.5879C29.1822 18.5822 29.1822 18.5765 29.1835 18.5723C29.1878 18.5284 29.1918 18.4845 29.1992 18.4407C29.2668 17.9679 29.4468 17.5221 29.7228 17.1357C29.7242 17.1314 29.7268 17.1272 29.7298 17.1243C29.7538 17.0904 29.7778 17.0578 29.8035 17.0253C29.8148 17.0111 29.8275 16.997 29.8388 16.9814C29.8558 16.9602 29.8728 16.9403 29.8898 16.9191C29.9095 16.8965 29.9295 16.8752 29.9505 16.8526C29.9605 16.8413 29.9718 16.8285 29.9818 16.8172C29.9832 16.8172 29.9832 16.8158 29.9845 16.8158C30.0002 16.7974 30.0185 16.7804 30.0355 16.7634C30.4872 16.3077 31.0562 16.0274 31.6662 15.9609C31.6675 15.9609 31.6688 15.9609 31.6705 15.9609C31.7098 15.9566 31.7512 15.9538 31.7922 15.951C31.7992 15.951 31.8048 15.9496 31.8118 15.9496C31.8585 15.9467 31.9052 15.9453 31.9535 15.9453ZM34.0512 18.653C34.0512 18.6516 34.0512 18.6516 34.0512 18.6502C34.0015 18.1406 33.7922 17.6806 33.4792 17.3253C33.4652 17.3098 33.4525 17.2942 33.4382 17.2786C33.4298 17.2701 33.4212 17.2616 33.4128 17.2531C33.3958 17.2362 33.3802 17.2192 33.3632 17.2022C33.3475 17.1866 33.3305 17.1725 33.3152 17.1583C33.3052 17.1498 33.2965 17.1399 33.2868 17.1314C33.2612 17.1088 33.2358 17.0875 33.2102 17.0663C33.2102 17.0663 33.2088 17.0663 33.2088 17.0649C32.9132 16.8257 32.5578 16.6686 32.1755 16.6247C32.1715 16.6247 32.1685 16.6233 32.1658 16.6233C32.1362 16.619 32.1078 16.6176 32.0778 16.6162C32.0708 16.6148 32.0652 16.6148 32.0595 16.6148C32.0242 16.612 31.9888 16.612 31.9535 16.612C31.9182 16.612 31.8825 16.612 31.8472 16.6148C31.8415 16.6148 31.8358 16.6148 31.8288 16.6162C31.7992 16.6176 31.7708 16.619 31.7412 16.6233C31.7382 16.6233 31.7355 16.6247 31.7312 16.6247C31.3492 16.6686 30.9938 16.8257 30.6978 17.0649C30.6978 17.0663 30.6965 17.0663 30.6965 17.0663C30.6712 17.0875 30.6455 17.1088 30.6202 17.1314C30.6102 17.1399 30.6018 17.1484 30.5918 17.1569C30.5762 17.1725 30.5592 17.1866 30.5438 17.2022C30.5282 17.2178 30.5125 17.2347 30.4955 17.2517C30.4872 17.2602 30.4785 17.2687 30.4688 17.2786C30.4558 17.2928 30.4432 17.3083 30.4292 17.3239C30.1162 17.6792 29.9055 18.1406 29.8558 18.6502C29.8558 18.6516 29.8558 18.6516 29.8558 18.653C29.8528 18.6855 29.8502 18.7181 29.8488 18.7521C29.8488 18.7577 29.8472 18.7634 29.8472 18.769C29.8458 18.8073 29.8445 18.8455 29.8445 18.8837C29.8445 20.1278 30.8012 21.1441 31.9535 21.1441C33.1055 21.1441 34.0625 20.1278 34.0625 18.8837C34.0625 18.8455 34.0608 18.8073 34.0595 18.769C34.0595 18.7634 34.0582 18.7577 34.0582 18.7521C34.0568 18.7181 34.0538 18.6855 34.0512 18.653Z" fill="#66687C"/>
<path d="M42.934 16.0934C42.9314 16.0906 42.9297 16.0877 42.927 16.0849C42.893 16.0425 42.8477 16.0085 42.7967 15.9873C42.7967 15.9873 42.7967 15.9873 42.7954 15.9873C42.7897 15.983 42.7827 15.9816 42.777 15.9788C42.774 15.9788 42.7714 15.9773 42.767 15.9759C42.7217 15.9604 42.672 15.9575 42.624 15.9646H42.6227C42.525 15.9802 42.4317 16.0396 42.3794 16.1274C42.3794 16.1274 42.3794 16.1274 42.3777 16.1274C42.3707 16.1415 42.3624 16.1557 42.3567 16.1698L42.355 16.1713V16.1727L40.733 20.6128L39.4594 17.581C39.4464 17.5527 39.4294 17.5272 39.4097 17.5032C39.3404 17.4225 39.234 17.3715 39.125 17.3715C39.1084 17.3715 39.0927 17.3715 39.0757 17.3758C39.0744 17.3758 39.0727 17.3758 39.07 17.3758C38.9567 17.3956 38.8507 17.4748 38.8024 17.581C38.8024 17.5824 38.8024 17.5824 38.8024 17.5824L37.5287 20.6142L36.9114 18.937L35.8954 16.1727C35.8897 16.1571 35.884 16.1444 35.8767 16.1302C35.8754 16.1288 35.8754 16.1288 35.874 16.1274C35.8427 16.0693 35.7934 16.0241 35.734 15.9957C35.734 15.9957 35.7324 15.9957 35.7324 15.9943C35.7027 15.9816 35.6717 15.9717 35.639 15.966C35.6364 15.966 35.6347 15.966 35.632 15.9646C35.6164 15.9632 35.5994 15.9618 35.5837 15.9618H35.5824C35.578 15.9618 35.5754 15.9618 35.5724 15.9618C35.5654 15.9618 35.5584 15.9618 35.5514 15.9632C35.547 15.9632 35.5414 15.9646 35.537 15.9646C35.53 15.966 35.5244 15.966 35.5187 15.9674C35.5144 15.9689 35.5104 15.9689 35.506 15.9703C35.499 15.9717 35.4917 15.9731 35.4847 15.9759C35.482 15.9773 35.479 15.9773 35.4764 15.9788C35.469 15.9816 35.462 15.983 35.455 15.9873C35.455 15.9873 35.455 15.9873 35.4537 15.9873C35.3957 16.0127 35.349 16.0566 35.315 16.1076C35.3134 16.1104 35.312 16.1118 35.3107 16.1146C35.3094 16.1175 35.3077 16.1203 35.3064 16.1231C35.281 16.1656 35.2654 16.2151 35.2597 16.2647C35.254 16.317 35.261 16.3722 35.2824 16.4232L36.4587 19.5838L37.213 21.6107C37.213 21.6107 37.213 21.6107 37.213 21.6121C37.244 21.6885 37.2894 21.7409 37.3517 21.7692C37.353 21.7706 37.356 21.772 37.3574 21.7734C37.3587 21.7748 37.36 21.7763 37.363 21.7777C37.363 21.7791 37.3644 21.7791 37.3657 21.7805C37.3687 21.7819 37.37 21.7833 37.373 21.7862C37.3744 21.7862 37.3744 21.7862 37.3757 21.7862C37.387 21.7932 37.4014 21.7989 37.4197 21.8003C37.421 21.8003 37.4224 21.8017 37.424 21.8017C37.4294 21.8032 37.435 21.806 37.4407 21.8074C37.4437 21.8074 37.4464 21.8088 37.4494 21.8088C37.4847 21.8201 37.5074 21.8244 37.5357 21.8244C37.5514 21.8244 37.5654 21.823 37.581 21.8201C37.5924 21.8187 37.605 21.8159 37.6164 21.8116C37.619 21.8102 37.622 21.8102 37.6247 21.8088C37.636 21.806 37.6474 21.8017 37.6587 21.7961C37.663 21.7947 37.6674 21.7932 37.6717 21.7904C37.6787 21.7862 37.687 21.7819 37.6957 21.7777C37.7014 21.7734 37.7084 21.7692 37.7154 21.7649C37.7197 21.7621 37.724 21.7579 37.728 21.755C37.738 21.748 37.7467 21.7409 37.7564 21.7324C37.758 21.731 37.7594 21.7296 37.7607 21.7267C37.7707 21.7168 37.7807 21.7069 37.7904 21.6956C37.7904 21.6942 37.792 21.6927 37.7934 21.6913C37.8017 21.68 37.8104 21.6673 37.8174 21.6545C37.8244 21.6404 37.8314 21.6248 37.837 21.6092L37.8387 21.605L37.8427 21.5993L37.847 21.5894L39.125 18.5378L40.4147 21.6007C40.4244 21.6319 40.44 21.6602 40.4614 21.6871C40.464 21.6913 40.467 21.6942 40.4697 21.6984C40.477 21.7069 40.484 21.7154 40.4924 21.7239C40.4967 21.7267 40.501 21.731 40.5054 21.7338C40.5124 21.7409 40.5207 21.748 40.5294 21.755C40.5334 21.7579 40.5364 21.7607 40.5407 21.7621C40.5504 21.7692 40.5604 21.7763 40.5704 21.7819C40.573 21.7833 40.576 21.7848 40.5787 21.7862C40.59 21.7918 40.6 21.7975 40.6127 21.8017C40.6157 21.8032 40.6184 21.8046 40.6227 21.8046C40.6327 21.8088 40.6424 21.8131 40.6537 21.8159C40.668 21.8187 40.682 21.8216 40.695 21.8244H40.7374C40.7544 21.8244 40.77 21.823 40.7854 21.8201C40.7897 21.8201 40.7924 21.8201 40.7967 21.8187C40.811 21.8159 40.8237 21.8131 40.8364 21.8088C40.8407 21.8074 40.8434 21.806 40.8464 21.8046C40.8604 21.8003 40.8747 21.7932 40.8874 21.7862C40.8887 21.7862 40.89 21.7848 40.8917 21.7848C40.907 21.7748 40.9227 21.7649 40.9354 21.755C40.992 21.7126 41.033 21.6574 41.0614 21.5894V21.588L41.8584 19.4423L42.9794 16.4232C43.0234 16.317 43.0064 16.201 42.9454 16.1104C42.9424 16.1047 42.9384 16.0991 42.934 16.0934Z" fill="#66687C"/>
<path d="M60.9324 16.1871C60.9324 16.1814 60.9311 16.1743 60.9297 16.1687C60.9297 16.1644 60.9284 16.1602 60.9267 16.1559C60.9254 16.1488 60.9241 16.1418 60.9227 16.1361C60.9214 16.1319 60.9197 16.1276 60.9184 16.1248C60.9171 16.1163 60.9141 16.1092 60.9101 16.1021C60.9101 16.0993 60.9084 16.0979 60.9071 16.0951C60.9028 16.0852 60.8987 16.0767 60.8931 16.0682C60.8931 16.0668 60.8931 16.0668 60.8931 16.0668C60.8761 16.037 60.8547 16.0116 60.8307 15.9889C60.8291 15.9875 60.8291 15.9875 60.8291 15.9875C60.8277 15.9861 60.8277 15.9861 60.8277 15.9861C60.7074 15.8658 60.5377 15.8502 60.4047 15.9436C60.4004 15.9464 60.3974 15.9493 60.3934 15.9507C60.3877 15.9549 60.3821 15.9592 60.3764 15.9634C60.3677 15.9719 60.3594 15.979 60.3507 15.9875C60.3507 15.9875 60.3494 15.9875 60.3494 15.9889L57.0331 19.2217V13.8148C57.0331 13.8035 57.0331 13.7922 57.0317 13.7809C57.0191 13.6563 56.9354 13.553 56.8221 13.5049C56.8207 13.5049 56.8207 13.5035 56.8194 13.5035C56.8124 13.5006 56.8054 13.4978 56.7981 13.4964C56.7954 13.495 56.7911 13.4935 56.7867 13.4921C56.7811 13.4907 56.7754 13.4893 56.7684 13.4879C56.7641 13.4865 56.7584 13.4851 56.7527 13.4836C56.7471 13.4822 56.7401 13.4808 56.7344 13.4808C56.7287 13.4794 56.7244 13.4794 56.7188 13.478C56.7061 13.4766 56.6947 13.4766 56.6834 13.4766C56.4981 13.4766 56.3438 13.6308 56.3438 13.8148V21.4835C56.3438 21.6689 56.4981 21.8232 56.6834 21.8232C56.6947 21.8232 56.7078 21.8232 56.7188 21.8218C56.7204 21.8218 56.7217 21.8204 56.7244 21.8204C56.7344 21.819 56.7444 21.819 56.7527 21.8161C56.7557 21.8161 56.7584 21.8147 56.7614 21.8147C56.7697 21.8119 56.7784 21.8105 56.7867 21.8076C56.7884 21.8076 56.7897 21.8062 56.7911 21.8062C56.9214 21.7652 57.0174 21.6534 57.0317 21.5189C57.0331 21.5076 57.0331 21.4962 57.0331 21.4835V20.1898L58.1497 19.0745L60.3198 21.693C60.3338 21.7156 60.3494 21.7354 60.3691 21.751C60.3734 21.7553 60.3764 21.7581 60.3804 21.7609C60.3861 21.7652 60.3917 21.7694 60.3974 21.7722C60.4047 21.7779 60.4118 21.7807 60.4188 21.785C60.4218 21.7864 60.4258 21.7892 60.4288 21.7906C60.4388 21.7949 60.4471 21.7977 60.4571 21.802C60.4597 21.8034 60.4627 21.8034 60.4641 21.8048C60.4754 21.8076 60.4854 21.8105 60.4967 21.8133C60.4981 21.8133 60.5007 21.8147 60.5037 21.8147C60.5151 21.8175 60.5251 21.819 60.5378 21.8204C60.5404 21.8204 60.5434 21.8204 60.5461 21.8218C60.5604 21.8218 60.5744 21.8232 60.5901 21.8232C60.6127 21.8232 60.6341 21.8218 60.6537 21.819C60.6551 21.819 60.6551 21.819 60.6551 21.819C60.6947 21.8133 60.7317 21.8006 60.7654 21.7836C60.7671 21.7836 60.7671 21.7822 60.7671 21.7822C60.7824 21.7737 60.7981 21.7638 60.8138 21.7524L60.8181 21.7482C60.9468 21.6194 60.9664 21.4439 60.8731 21.2981C60.8647 21.2853 60.8561 21.2726 60.8461 21.2599L58.6424 18.5833L60.8307 16.4687C60.8887 16.4093 60.9241 16.3371 60.9324 16.2592C60.9324 16.2578 60.9324 16.2564 60.9341 16.255C60.9341 16.2479 60.9341 16.2394 60.9341 16.2324C60.9341 16.2281 60.9354 16.2239 60.9354 16.221C60.9354 16.2182 60.9354 16.2168 60.9354 16.2154C60.9354 16.2097 60.9341 16.2055 60.9341 16.1998C60.9341 16.1956 60.9324 16.1913 60.9324 16.1871Z" fill="#66687C"/>
</g>
<defs>
<clipPath id="clip0_12887_24801">
<rect width="67.3333" height="16" fill="white" transform="translate(0 11)"/>
</clipPath>
</defs>
</svg>
