<svg width="92" height="38" viewBox="0 0 92 38" fill="none" xmlns="http://www.w3.org/2000/svg">
<g clip-path="url(#clip0_12415_46271)">
<path d="M10.9876 15.5981H11.5005L12.9623 14.1363L13.034 13.5154C10.3132 11.1136 6.16091 11.3731 3.75916 14.0939C3.09184 14.849 2.60826 15.7485 2.34375 16.7218C2.50629 16.6551 2.687 16.644 2.85661 16.6915L5.78031 16.2089C5.78031 16.2089 5.92871 15.9626 6.00645 15.9777C7.30677 14.5492 9.4955 14.3826 10.9977 15.5981H10.9876Z" fill="#66687C"/>
<path d="M15.0505 16.7218C14.7144 15.4841 14.0248 14.3715 13.0657 13.5215L11.0143 15.5729C11.8805 16.2806 12.3742 17.3477 12.353 18.4663V18.8308C13.3615 18.8308 14.1793 19.6485 14.1793 20.6571C14.1793 21.6656 13.3615 22.4834 12.353 22.4834H8.70039L8.33594 22.8529V25.0436L8.70039 25.4081H12.353C14.9758 25.4283 17.1191 23.3183 17.1393 20.6954C17.1514 19.1024 16.367 17.6122 15.0505 16.7218Z" fill="#66687C"/>
<path d="M5.04294 25.3832H8.69554V22.4595H5.04294C4.78247 22.4595 4.52605 22.4029 4.2888 22.2949L3.77594 22.4544L2.304 23.9163L2.17578 24.4291C3.00059 25.0531 4.00814 25.3882 5.04294 25.3832Z" fill="#66687C"/>
<path d="M5.04212 15.9004C2.41827 15.9156 0.30525 18.0548 0.320393 20.6787C0.329479 22.1436 1.01295 23.5226 2.17496 24.4151L4.29303 22.297C3.37432 21.8821 2.96545 20.7998 3.38038 19.8811C3.79531 18.9624 4.87756 18.5536 5.79627 18.9685C6.2011 19.1512 6.52517 19.4763 6.70891 19.8811L8.82698 17.7631C7.92645 16.5839 6.52517 15.8944 5.04212 15.9004Z" fill="#66687C"/>
<path d="M26.8489 23.343C25.5778 23.3592 24.3562 22.8574 23.4638 21.9528C22.5421 21.0866 22.0272 19.8731 22.0433 18.6082C22.0282 17.3432 22.5431 16.1307 23.4638 15.2635C24.3522 14.3498 25.5748 13.838 26.8489 13.8481C28.0624 13.8319 29.2324 14.3034 30.0956 15.1565L29.183 16.0853C28.5581 15.4805 27.7181 15.1494 26.8489 15.1615C25.9372 15.1504 25.0619 15.5229 24.438 16.1872C23.7899 16.8303 23.4325 17.7106 23.4476 18.6233C23.4396 19.5258 23.7969 20.3931 24.438 21.0291C25.7585 22.3456 27.8877 22.3708 29.2395 21.0856C29.6423 20.6455 29.8887 20.0841 29.9422 19.4905H26.864V18.1781H31.2193C31.2617 18.4426 31.2788 18.7101 31.2708 18.9787C31.3253 20.0983 30.9194 21.1916 30.1471 22.0053C29.288 22.8988 28.0886 23.3854 26.8489 23.343ZM36.9748 22.4707C35.7603 23.6348 33.8441 23.6348 32.6296 22.4707C32.041 21.9003 31.72 21.1099 31.7422 20.2911C31.72 19.4723 32.0421 18.6819 32.6296 18.1114C33.8451 16.9504 35.7593 16.9504 36.9748 18.1114C37.5624 18.6819 37.8844 19.4723 37.8622 20.2911C37.8834 21.1109 37.5593 21.9014 36.9697 22.4707H36.9748ZM33.5887 21.6146C34.2156 22.285 35.2676 22.3193 35.938 21.6914C35.9642 21.6661 35.9905 21.6409 36.0147 21.6146C36.3569 21.2603 36.5417 20.7838 36.5275 20.2911C36.5427 19.7974 36.3579 19.3179 36.0147 18.9625C35.3696 18.2901 34.3015 18.2669 33.6281 18.912C33.6109 18.9282 33.5938 18.9453 33.5776 18.9625C33.2344 19.3179 33.0496 19.7974 33.0647 20.2911C33.0516 20.7838 33.2384 21.2613 33.5827 21.6146H33.5887ZM43.6531 22.4707C42.4385 23.6348 40.5224 23.6348 39.3079 22.4707C38.7193 21.9003 38.3983 21.1099 38.4205 20.2911C38.3983 19.4723 38.7203 18.6819 39.3079 18.1114C40.5224 16.9474 42.4385 16.9474 43.6531 18.1114C44.2406 18.6819 44.5627 19.4723 44.5405 20.2911C44.5637 21.1099 44.2416 21.9003 43.6531 22.4707ZM40.268 21.6146C40.8949 22.285 41.9469 22.3193 42.6172 21.6914C42.6435 21.6661 42.6697 21.6409 42.694 21.6146C43.0362 21.2603 43.221 20.7838 43.2068 20.2911C43.222 19.7974 43.0372 19.3179 42.694 18.9625C42.0489 18.2901 40.9807 18.2669 40.3084 18.912C40.2912 18.9282 40.274 18.9453 40.2579 18.9625C39.9146 19.3179 39.7299 19.7974 39.745 20.2911C39.7319 20.7838 39.9187 21.2613 40.2629 21.6146H40.268ZM48.0436 26.082C47.4288 26.1011 46.8261 25.9093 46.3355 25.5378C45.9001 25.2104 45.5571 24.7755 45.34 24.2758L46.5091 23.7882C46.6363 24.0871 46.8352 24.3495 47.0886 24.5525C47.3592 24.7705 47.6994 24.8856 48.0477 24.8755C48.4939 24.9028 48.93 24.7342 49.243 24.4142C49.5519 24.0416 49.7044 23.5631 49.669 23.0805V22.6393H49.6226C49.2258 23.1098 48.6312 23.3662 48.0174 23.3319C47.239 23.3339 46.495 23.0109 45.966 22.4394C45.3925 21.8731 45.0755 21.0967 45.0886 20.2901C45.0745 19.4794 45.3915 18.698 45.966 18.1256C46.494 17.5521 47.238 17.2261 48.0174 17.2281C48.3435 17.2271 48.6665 17.2998 48.9613 17.4381C49.2168 17.5491 49.4439 17.7157 49.6287 17.9257H49.6751V17.4381H50.9472V22.9008C51.0148 23.7741 50.72 24.6373 50.1314 25.2864C49.5711 25.8225 48.819 26.1092 48.0436 26.082ZM48.1365 22.1426C48.5797 22.1527 49.0047 21.9639 49.2955 21.6298C49.6115 21.2673 49.7791 20.7979 49.7619 20.3163C49.7811 19.8267 49.6145 19.3492 49.2955 18.9777C49.0047 18.6425 48.5797 18.4547 48.1365 18.4648C47.6812 18.4557 47.2441 18.6425 46.9362 18.9777C46.5969 19.336 46.4122 19.8136 46.4233 20.3062C46.4132 20.7949 46.5969 21.2673 46.9362 21.6197C47.242 21.9579 47.6792 22.1487 48.1365 22.1426ZM53.2096 14.1923V23.1583H51.8709V14.1923H53.2096ZM56.8824 23.343C56.0717 23.3642 55.2893 23.0462 54.7229 22.4657C54.1485 21.8902 53.8345 21.1038 53.8557 20.2911C53.8254 19.4764 54.1273 18.6839 54.6916 18.0953C55.2247 17.534 55.9697 17.223 56.7431 17.2382C57.0954 17.2341 57.4437 17.3028 57.7688 17.4381C58.0615 17.5562 58.3281 17.7308 58.5532 17.9509C58.747 18.1377 58.9187 18.3457 59.0661 18.5718C59.1852 18.7626 59.2861 18.9635 59.3689 19.1715L59.5072 19.5208L55.4044 21.2088C55.6588 21.7923 56.2453 22.1598 56.8814 22.1325C57.4962 22.1346 58.0666 21.8125 58.3846 21.2865L59.4103 21.9791C59.1486 22.354 58.8134 22.6717 58.425 22.9129C57.9646 23.2037 57.4275 23.3531 56.8824 23.343ZM55.1691 20.1982L57.898 19.0645C57.8142 18.8646 57.6638 18.7 57.472 18.5981C57.2579 18.4769 57.0156 18.4153 56.7693 18.4184C56.3524 18.4295 55.9556 18.6041 55.6669 18.906C55.3165 19.2411 55.1338 19.7146 55.1691 20.1982Z" fill="#66687C"/>
<path d="M66.522 23.3422C64.1879 23.3826 62.2637 21.523 62.2233 19.1889C62.2223 19.1323 62.2223 19.0748 62.2243 19.0182C62.1698 16.6841 64.0183 14.7488 66.3514 14.6943C66.408 14.6933 66.4655 14.6933 66.522 14.6933C67.6891 14.6569 68.8097 15.1556 69.5639 16.0471L68.8249 16.7649C68.2706 16.0673 67.4165 15.6766 66.5271 15.7129C65.674 15.6937 64.8492 16.0239 64.2445 16.6256C63.6155 17.2586 63.2793 18.1248 63.3157 19.0162C63.2783 19.9077 63.6155 20.7739 64.2445 21.4069C64.8492 22.0096 65.674 22.3387 66.5271 22.3195C67.5205 22.3306 68.4644 21.8884 69.0914 21.1191L69.8304 21.8581C69.4437 22.3205 68.9581 22.69 68.4099 22.9404C67.8183 23.215 67.1732 23.3523 66.522 23.3422Z" fill="#66687C"/>
<path d="M71.8199 23.1556H70.7578V14.8711H71.8199V23.1556Z" fill="#66687C"/>
<path d="M73.5487 18.1691C74.7067 17.0192 76.5764 17.0192 77.7344 18.1691C78.2836 18.7496 78.5794 19.5249 78.5552 20.3235C78.5794 21.122 78.2836 21.8974 77.7344 22.4779C76.5764 23.6278 74.7067 23.6278 73.5487 22.4779C72.9995 21.8974 72.7037 21.122 72.7279 20.3235C72.7037 19.5249 72.9985 18.7496 73.5487 18.1691ZM74.3382 21.8116C75.0176 22.5294 76.1504 22.5607 76.8692 21.8812C76.8934 21.859 76.9166 21.8348 76.9388 21.8116C77.3134 21.4098 77.5113 20.8737 77.488 20.3245C77.5123 19.7753 77.3144 19.2392 76.9388 18.8374C76.2594 18.1196 75.1267 18.0883 74.4079 18.7677C74.3836 18.7899 74.3604 18.8142 74.3382 18.8374C73.9637 19.2392 73.7658 19.7753 73.789 20.3245C73.7678 20.8727 73.9677 21.4067 74.3432 21.8065L74.3382 21.8116Z" fill="#66687C"/>
<path d="M84.4423 23.1568H83.4165V22.3724H83.3863C83.2035 22.6702 82.9451 22.9145 82.6372 23.0801C82.3181 23.2648 81.9547 23.3627 81.5852 23.3617C80.9774 23.4031 80.3848 23.1649 79.9749 22.7156C79.5863 22.2239 79.3914 21.6071 79.4257 20.9822V17.4941H80.4878V20.7873C80.4878 21.8444 80.9542 22.3724 81.8881 22.3724C82.3091 22.3855 82.7099 22.1947 82.9653 21.8595C83.2409 21.5112 83.3873 21.0781 83.3812 20.6339V17.4941H84.4433V23.1568H84.4423Z" fill="#66687C"/>
<path d="M88.0462 23.3403C87.3173 23.3423 86.6237 23.0264 86.1482 22.4731C85.6162 21.8855 85.3315 21.1163 85.3527 20.3237C85.3315 19.5312 85.6162 18.762 86.1482 18.1744C86.6237 17.6222 87.3173 17.3052 88.0462 17.3072C88.45 17.3011 88.8488 17.396 89.2052 17.5838C89.5191 17.7413 89.7847 17.9806 89.9744 18.2764H90.0209L89.9744 17.4919V14.8711H91.0365V23.1556H90.0108V22.3711H89.9644C89.7746 22.6669 89.509 22.9062 89.1951 23.0637C88.8417 23.2495 88.447 23.3454 88.0462 23.3403ZM88.2208 22.3711C88.7064 22.3782 89.1719 22.1763 89.4979 21.8169C89.8584 21.406 90.0431 20.8699 90.0108 20.3237C90.0431 19.7786 89.8584 19.2415 89.4979 18.8306C88.8538 18.1219 87.7574 18.0704 87.0487 18.7155C87.0084 18.7519 86.97 18.7912 86.9337 18.8306C86.5722 19.2385 86.3875 19.7735 86.4208 20.3177C86.3875 20.8618 86.5722 21.3969 86.9337 21.8048C87.2607 22.1723 87.7302 22.3782 88.2208 22.3711Z" fill="#66687C"/>
</g>
<defs>
<clipPath id="clip0_12415_46271">
<rect width="92" height="16" fill="white" transform="translate(0 11)"/>
</clipPath>
</defs>
</svg>
