<svg width="89" height="38" viewBox="0 0 89 38" fill="none" xmlns="http://www.w3.org/2000/svg">
<path d="M9.27083 9.87939C14.3903 9.87939 18.5417 14.1334 18.5417 19.3794C18.5417 24.6254 14.3903 28.8794 9.27083 28.8794C4.1514 28.8794 0 24.6292 0 19.3794C0 14.1296 4.1514 9.87939 9.27083 9.87939ZM48.0184 16.6706C49.8503 16.6667 51.3172 18.2157 51.3172 20.2188C51.3172 22.1951 49.8466 23.7555 48.0184 23.7555C47.2701 23.7555 46.6446 23.5571 46.1308 23.2175V26.8955H44.2021V16.8117H46.1308V17.2085C46.6446 16.869 47.2664 16.6706 48.0184 16.6706ZM8.04589 12.7828C6.90286 12.7866 5.8678 14.6714 4.97795 18.3798C4.41165 18.3729 3.88757 18.363 3.39485 18.3555L3.23176 18.3531H3.14985C3.08283 18.3493 3.01581 18.3531 2.9488 18.3607C2.64349 18.4179 2.42382 18.6926 2.42382 19.0093C2.42382 19.322 2.64193 19.5922 2.93793 19.6555L2.97113 19.6617L2.97858 19.6694H4.68754C4.54746 20.317 4.42447 20.9617 4.31859 21.5856L4.27426 21.8517L4.22214 22.1607V22.176C4.22214 22.3248 4.2966 22.4621 4.41947 22.5422C4.60858 22.6666 4.85924 22.6157 4.99121 22.4332L5.00774 22.4087L5.01891 22.4202L5.85664 19.6694H9.89261C10.2016 20.8673 10.5218 22.0997 10.9463 23.2595C11.1694 23.8705 11.6836 25.2806 12.5419 25.3371L12.5882 25.3388H12.5994C13.6668 25.3388 14.2281 23.961 14.5912 22.6414L14.6232 22.5234C14.7124 22.1898 14.7895 21.8627 14.8594 21.5655C14.9311 21.2683 14.9902 21.0095 15.0483 20.8097L15.0642 20.7567L15.0902 20.6728L15.0964 20.6505C15.1193 20.5462 15.0607 20.4375 14.9599 20.4019C14.8591 20.3663 14.7454 20.4138 14.7004 20.5133L14.6919 20.5354L14.6621 20.6194C14.5611 20.9098 14.4658 21.1827 14.3787 21.433L14.3419 21.5388L14.3344 21.5617C13.7483 23.2547 13.4794 24.0428 12.9638 24.0677L12.9382 24.0683H12.9047C12.2234 24.0683 11.5867 21.2374 11.3447 20.173C11.3105 20.0204 11.279 19.8757 11.2479 19.7456L11.2293 19.6694H15.6227C15.6878 19.6694 15.753 19.6561 15.8138 19.6296L15.8498 19.6121L15.8546 19.6083L15.8611 19.6045L15.8684 19.6007L15.8907 19.5854L15.9019 19.5778C15.9093 19.5727 15.9168 19.5676 15.9242 19.5614L15.9354 19.5511L15.9642 19.5257C16.0384 19.4548 16.091 19.3595 16.1141 19.2611C16.1679 19.0003 16.0076 18.743 15.7596 18.6766L15.7306 18.6698H15.7083C15.6909 18.6672 15.6752 18.6647 15.6589 18.6633L15.6338 18.6621L15.5668 18.6545C14.1337 18.5488 12.6624 18.5017 11.2644 18.4711L10.9165 18.4637L10.9128 18.4523C10.8547 18.2279 10.7954 18.0032 10.7349 17.7796L10.6893 17.6121C10.6816 17.5842 10.6739 17.5564 10.6663 17.5286L10.6199 17.362L10.5751 17.2034C9.90766 14.8572 9.09134 12.7828 8.04589 12.7828ZM85.664 16.5943C87.5628 16.5943 88.9777 17.9716 88.9777 20.0738C88.9777 20.2912 88.9665 20.5049 88.933 20.7186H84.0407C84.1933 21.5159 84.7071 22.1378 85.7608 22.1378C86.3007 22.1378 86.6767 21.9661 86.8852 21.6266H88.8958C88.5346 22.9352 87.2873 23.828 85.7198 23.828C83.5827 23.828 82.1418 22.2523 82.1418 20.2188C82.1418 18.1165 83.5715 16.5943 85.664 16.5943ZM62.6619 14.3776V16.8079H65.0597V18.4714H62.6619V20.8864C62.6619 21.6533 63.1199 22.0081 63.8273 22.0081C64.1884 22.0081 64.5756 21.9242 64.9517 21.825L65.1974 23.5151C64.3932 23.7708 64.032 23.828 63.4103 23.828C61.8018 23.828 60.7482 22.6643 60.7482 20.9017V18.4714H59.3482V16.8079H60.7482V14.3776H62.6619ZM68.1239 16.8079V20.3752C68.1239 21.4549 68.6526 22.0386 69.5536 22.0386C70.0376 22.0386 70.5663 21.741 71.0094 21.1878V16.8117H72.938L72.9343 23.6143H71.0056V23.1298C70.4658 23.5686 69.8552 23.8242 69.1068 23.8242C67.3606 23.8242 66.1952 22.5308 66.1952 20.5583V16.8079H68.1239ZM81.1142 13.5268V23.6143H79.1856V23.2175C78.6718 23.5571 78.05 23.7555 77.3016 23.7555C75.4698 23.7555 73.988 22.2065 73.988 20.2035C73.988 18.2272 75.4698 16.6667 77.3016 16.6667C78.05 16.6667 78.6755 16.8651 79.1856 17.2047V13.5268H81.1142ZM58.194 16.8117V23.6181H56.2654V16.8117H58.194ZM26.7663 13.9007L30.8134 23.6181H28.6912L27.9577 21.7563H23.6872L22.9537 23.6181H20.8203L24.8823 13.9007H26.7663ZM39.9539 16.5981C41.5735 16.5981 42.8469 17.8914 42.8469 19.8792V23.6143H40.9183V20.0471C40.9183 18.9673 40.4045 18.3836 39.5034 18.3836C39.1013 18.3836 38.6583 18.5706 38.2562 19.1352C38.2897 19.3794 38.3083 19.6274 38.312 19.8754V23.6105H36.3871V20.0432C36.3871 18.9635 35.8733 18.3798 34.9611 18.3798C34.585 18.3798 34.1718 18.6087 33.7808 19.1467V23.6067H31.8522V16.8117H33.7808V17.2238C34.1978 16.827 34.6409 16.5981 35.4191 16.5981C36.2642 16.5981 37.0126 16.9376 37.5413 17.5633C38.2487 16.8957 38.9152 16.5981 39.9539 16.5981ZM54.3293 13.5268V23.6143H52.4007V13.5268H54.3293ZM77.6181 18.3416C76.6054 18.3416 75.898 19.2077 75.898 20.2035C75.898 21.2107 76.6054 22.092 77.6181 22.092C78.1878 22.0959 78.7574 21.8975 79.1856 21.2985V19.1238C78.7574 18.54 78.1878 18.3416 77.6181 18.3416ZM47.6983 18.3302C47.1286 18.3302 46.5627 18.5286 46.1308 19.1276V21.3023C46.5627 21.886 47.1286 22.0844 47.6983 22.0844C48.6998 22.0806 49.4184 21.2145 49.4184 20.2188C49.4184 19.2115 48.6961 18.3302 47.6983 18.3302ZM25.8094 16.3539L24.4244 19.8906H27.2242L25.8094 16.3539ZM85.6752 18.231C84.7481 18.231 84.2343 18.7842 84.0518 19.5511H87.0602C86.9485 18.7003 86.4496 18.231 85.6752 18.231ZM7.99749 14.0457C8.06079 14.0457 8.12036 14.0838 8.17248 14.1525C8.29907 14.3585 8.52246 14.8202 8.85383 15.8426C9.08095 16.5447 9.32668 17.4183 9.58731 18.4332C8.76199 18.4205 7.93151 18.4104 7.1174 18.4008L6.63107 18.3951L6.1396 18.3912C6.69436 16.1708 7.36826 14.4882 7.86345 14.0914C7.90441 14.0647 7.94909 14.0457 7.99749 14.0457ZM57.226 13.2445C57.8627 13.2445 58.3765 13.7404 58.3765 14.4081C58.3765 15.0605 57.8627 15.5451 57.226 15.5451C56.5744 15.5451 56.0606 15.0643 56.0606 14.4081C56.0606 13.7404 56.5744 13.2445 57.226 13.2445Z" fill="#66687C"/>
</svg>
