<svg width="39" height="38" viewBox="0 0 39 38" fill="none" xmlns="http://www.w3.org/2000/svg">
<g clip-path="url(#clip0_12415_46265)">
<path d="M10.8612 16.1706C10.8612 16.645 10.9125 17.0295 11.0022 17.3116C11.1048 17.5936 11.2329 17.9012 11.4123 18.2345C11.4765 18.3371 11.502 18.4396 11.502 18.5294C11.502 18.6576 11.4252 18.7858 11.2584 18.914L10.4508 19.4524C10.3356 19.5292 10.2201 19.5677 10.1175 19.5677C9.98939 19.5677 9.86127 19.5036 9.73316 19.3882C9.55349 19.196 9.39985 18.9909 9.27148 18.7858C9.14336 18.5678 9.01524 18.3243 8.87424 18.0294C7.87432 19.2088 6.6179 19.7985 5.10526 19.7985C4.02852 19.7985 3.1696 19.4908 2.54165 18.8755C1.91345 18.2602 1.59303 17.4397 1.59303 16.4142C1.59303 15.3246 1.97763 14.4401 2.75947 13.7735C3.54132 13.1069 4.57991 12.7736 5.90025 12.7736C6.33589 12.7736 6.78469 12.8121 7.259 12.8762C7.73331 12.9402 8.22051 13.0428 8.73324 13.1582V12.2224C8.73324 11.2481 8.52804 10.5687 8.13055 10.1713C7.72042 9.77395 7.02829 9.58165 6.04125 9.58165C5.59246 9.58165 5.13104 9.63292 4.65673 9.7483C4.18241 9.86368 3.72099 10.0047 3.2722 10.1842C3.06726 10.2739 2.91337 10.3252 2.82366 10.3508C2.73396 10.3764 2.66977 10.3893 2.61847 10.3893C2.43906 10.3893 2.34935 10.2611 2.34935 9.99188V9.36372C2.34935 9.15863 2.37487 9.00479 2.43906 8.91506C2.50298 8.82533 2.61847 8.73559 2.79788 8.64586C3.24668 8.41512 3.78492 8.22285 4.41313 8.069C5.04133 7.90235 5.70795 7.82545 6.41297 7.82545C7.9385 7.82545 9.05365 8.17155 9.77157 8.86379C10.4766 9.55602 10.8354 10.6072 10.8354 12.0173V16.1706H10.8612ZM5.65665 18.1192C6.07966 18.1192 6.51557 18.0423 6.97699 17.8884C7.43841 17.7346 7.84854 17.4526 8.19473 17.068C8.39993 16.8244 8.55382 16.5552 8.63064 16.2476C8.70746 15.9399 8.75875 15.5682 8.75875 15.1323V14.5939C8.38704 14.5042 7.98954 14.4273 7.57942 14.376C7.16929 14.3247 6.7718 14.2991 6.37456 14.2991C5.51564 14.2991 4.88744 14.4657 4.46442 14.8118C4.04141 15.158 3.83622 15.6451 3.83622 16.286C3.83622 16.8885 3.99011 17.3372 4.31053 17.6449C4.61832 17.9653 5.06685 18.1192 5.65665 18.1192ZM15.9503 19.5036C15.7196 19.5036 15.5657 19.4652 15.4631 19.3754C15.3607 19.2985 15.271 19.119 15.1939 18.8755L12.1815 8.96633C12.1045 8.70997 12.0661 8.54332 12.0661 8.45358C12.0661 8.24847 12.1687 8.13311 12.3738 8.13311H13.63C13.8736 8.13311 14.0404 8.17155 14.1301 8.26128C14.2324 8.3382 14.3095 8.51767 14.3863 8.76124L16.5401 17.2475L18.5396 8.76124C18.6038 8.50485 18.6807 8.3382 18.7832 8.26128C18.8858 8.18438 19.0653 8.13311 19.296 8.13311H20.3217C20.5653 8.13311 20.7318 8.17155 20.8344 8.26128C20.937 8.3382 21.0267 8.51767 21.078 8.76124L23.1034 17.35L25.321 8.76124C25.3978 8.50485 25.4878 8.3382 25.5775 8.26128C25.6801 8.18438 25.8466 8.13311 26.0774 8.13311H27.2696C27.4748 8.13311 27.59 8.23566 27.59 8.45358C27.59 8.51767 27.5771 8.58178 27.5645 8.65867C27.5516 8.73559 27.5258 8.83816 27.4748 8.97917L24.3853 18.8883C24.3085 19.1447 24.2185 19.3113 24.1162 19.3882C24.0136 19.4652 23.8468 19.5164 23.629 19.5164H22.5265C22.2829 19.5164 22.1163 19.478 22.0137 19.3882C21.9111 19.2985 21.8214 19.1319 21.7701 18.8755L19.7832 10.6072L17.8091 18.8627C17.7449 19.119 17.6681 19.2857 17.5655 19.3754C17.4629 19.4652 17.2835 19.5036 17.0528 19.5036H15.9503ZM32.4228 19.8497C31.7562 19.8497 31.0896 19.7728 30.4488 19.619C29.8077 19.4652 29.3078 19.2985 28.9745 19.1062C28.7693 18.9909 28.6283 18.8627 28.577 18.7473C28.5257 18.6319 28.5002 18.5037 28.5002 18.3884V17.7346C28.5002 17.4654 28.6028 17.3372 28.7951 17.3372C28.8719 17.3372 28.9487 17.35 29.0258 17.3757C29.1026 17.4013 29.2181 17.4526 29.3462 17.5039C29.7821 17.6961 30.2565 17.8499 30.7563 17.9525C31.269 18.0551 31.7691 18.1063 32.2818 18.1063C33.0894 18.1063 33.7177 17.9653 34.1533 17.6833C34.5892 17.4013 34.8199 16.9911 34.8199 16.4655C34.8199 16.1066 34.7047 15.8117 34.474 15.5682C34.243 15.3246 33.8074 15.1067 33.1792 14.9016L31.3203 14.3247C30.3846 14.0299 29.6924 13.594 29.2694 13.0172C28.8464 12.4531 28.6283 11.825 28.6283 11.1584C28.6283 10.62 28.7438 10.1457 28.9745 9.73549C29.2052 9.32529 29.5128 8.96633 29.8974 8.68432C30.282 8.38947 30.7179 8.17155 31.2306 8.01773C31.7433 7.86389 32.2818 7.7998 32.8458 7.7998C33.1279 7.7998 33.4228 7.81262 33.7048 7.85108C33.9997 7.88954 34.2688 7.94081 34.5379 7.99208C34.7944 8.05619 35.038 8.12027 35.2687 8.1972C35.4994 8.27412 35.6788 8.35101 35.8069 8.42793C35.9866 8.5305 36.1147 8.63305 36.1916 8.7484C36.2686 8.85097 36.307 8.99198 36.307 9.17144V9.77395C36.307 10.0431 36.2044 10.1842 36.0121 10.1842C35.9095 10.1842 35.743 10.1329 35.5249 10.0303C34.7944 9.69703 33.9739 9.53038 33.0637 9.53038C32.3331 9.53038 31.7562 9.64576 31.3587 9.88931C30.9615 10.1329 30.7563 10.5046 30.7563 11.0302C30.7563 11.3891 30.8844 11.6968 31.1409 11.9404C31.3974 12.1839 31.8717 12.4275 32.5509 12.6454L34.3714 13.2223C35.2942 13.5171 35.9608 13.9273 36.3583 14.4529C36.7556 14.9785 36.9479 15.581 36.9479 16.2476C36.9479 16.7988 36.8327 17.2987 36.6146 17.7346C36.3839 18.1704 36.0763 18.555 35.6788 18.8627C35.2816 19.1832 34.8073 19.4139 34.2559 19.5805C33.679 19.76 33.0766 19.8497 32.4228 19.8497Z" fill="#66687C"/>
<path d="M34.8463 26.0796C30.629 29.1949 24.5014 30.8485 19.2326 30.8485C11.8491 30.8485 5.19581 28.1179 0.170674 23.5799C-0.226563 23.2211 0.132263 22.7339 0.606576 23.0159C6.04184 26.1693 12.7464 28.0795 19.6814 28.0795C24.3604 28.0795 29.5007 27.1053 34.231 25.1055C34.936 24.7851 35.5387 25.5669 34.8463 26.0796ZM36.6025 24.08C36.0643 23.3876 33.039 23.7467 31.6674 23.9132C31.257 23.9645 31.193 23.6057 31.5648 23.3363C33.9747 21.6443 37.9358 22.1315 38.3972 22.6955C38.8589 23.2724 38.2691 27.2334 36.013 29.1307C35.6668 29.4256 35.3335 29.2717 35.4874 28.8871C36.0001 27.618 37.141 24.7593 36.6025 24.08Z" fill="#66687C"/>
</g>
<defs>
<clipPath id="clip0_12415_46265">
<rect width="38.6668" height="23.2001" fill="white" transform="translate(0 7.7998)"/>
</clipPath>
</defs>
</svg>
