<svg width="60" height="38" viewBox="0 0 60 38" fill="none" xmlns="http://www.w3.org/2000/svg">
<path d="M0 19.5V28H8.41667H16.8333V19.5V11H8.41667H0V19.5ZM15.5 19.5V26.6667H8.25H1V19.5V12.3333H8.25H15.5V19.5Z" fill="#66687C"/>
<path d="M4.78314 14.2001C5.0498 14.6834 5.81647 16.0501 6.48314 17.2334C7.48314 19.0001 7.66647 19.4501 7.53314 19.7334C7.4498 19.9334 6.68314 21.3168 5.8498 22.8334L4.33314 25.5834L4.93314 25.6334C5.26647 25.6668 5.63314 25.6501 5.7498 25.6168C5.86647 25.5668 6.4998 24.5501 7.16647 23.3501C7.83314 22.1501 8.4498 21.1668 8.51647 21.1668C8.58314 21.1668 9.13314 22.0501 9.73314 23.1168C11.2331 25.8334 11.0998 25.7001 12.1165 25.6334L12.9831 25.5834L12.0165 23.9168C10.2331 20.8501 6.68314 14.7501 6.26647 14.0334C5.86647 13.3668 5.7998 13.3334 5.06647 13.3334H4.2998L4.78314 14.2001Z" fill="#66687C"/>
<path d="M41.8335 19.1665C41.8335 21.2665 41.8335 23.0499 41.8335 23.1165C41.8335 23.1999 42.1335 23.2665 42.5002 23.2999C43.0835 23.3499 43.1668 23.2999 43.1668 23.0165C43.1668 22.5832 43.2335 22.5832 43.8002 22.9832C45.0835 23.8999 46.9002 23.0832 47.3168 21.3832C47.6668 19.9999 47.2335 18.5665 46.2835 17.9999C45.6002 17.5832 44.7335 17.5832 44.0502 17.9999L43.5002 18.3332V16.8332V15.3332H42.6668H41.8335V19.1665ZM45.2835 19.3665C45.5835 19.6332 45.6668 19.8999 45.6668 20.4999C45.6668 21.4832 45.3168 21.9999 44.6335 21.9999C43.8168 21.9999 43.5002 21.5999 43.5002 20.5499C43.5002 19.1499 44.4002 18.5332 45.2835 19.3665Z" fill="#66687C"/>
<path d="M52.1669 16.7501V18.1835L51.6335 17.9001C50.6002 17.3668 49.2669 17.8501 48.6002 19.0001C48.1502 19.7668 48.1502 21.4001 48.6002 22.1835C49.2669 23.3168 50.8169 23.7168 51.8169 23.0168C52.3002 22.6668 52.3002 22.6668 52.3835 23.0001C52.4502 23.2668 52.6169 23.3335 53.1502 23.3335H53.8335V19.3335V15.3335H53.0002H52.1669V16.7501ZM51.8335 19.3335C52.0669 19.5668 52.1669 19.8835 52.1669 20.4668C52.1669 21.4501 51.8169 22.0001 51.1835 22.0001C50.4502 22.0001 50.1335 21.6501 50.0502 20.7335C49.9835 20.0668 50.0335 19.8335 50.3335 19.4501C50.7669 18.9168 51.3669 18.8668 51.8335 19.3335Z" fill="#66687C"/>
<path d="M20.5 19.5002V23.3335H22.8333H25.1667V22.5835V21.8335H23.6667H22.1667V18.7502V15.6668H21.3333H20.5V19.5002Z" fill="#66687C"/>
<path d="M26.933 17.8667C26.333 18.0334 26.2997 18.0667 26.3997 18.55C26.4497 18.8334 26.533 19.0834 26.5663 19.1167C26.5997 19.15 26.9663 19.0834 27.383 18.9667C27.9663 18.8167 28.2497 18.8167 28.5663 18.9667C29.233 19.2667 29.1163 19.6667 28.383 19.6667C27.0997 19.6667 25.833 20.6667 25.833 21.6667C25.833 22.1667 26.283 22.9667 26.6997 23.1834C27.1997 23.45 28.283 23.4 28.7663 23.0834C29.133 22.85 29.183 22.85 29.2663 23.0834C29.333 23.25 29.5997 23.3334 30.1163 23.3334H30.8663L30.7997 21.2C30.7497 19.45 30.683 19 30.4163 18.6C29.8497 17.7334 28.4997 17.45 26.933 17.8667ZM29.1663 21.05C29.1663 21.6 28.6997 22.1667 28.2663 22.1667C27.3997 22.1667 27.2997 21.1667 28.133 20.85C28.8997 20.5834 29.1663 20.6334 29.1663 21.05Z" fill="#66687C"/>
<path d="M34.1998 18.0001C33.5498 18.4001 33.4998 18.4001 33.4998 18.0834C33.4998 17.9001 33.3165 17.8334 32.8332 17.8334H32.1665V20.6001V23.3501L32.9665 23.3001L33.7498 23.2501L33.7998 21.3834C33.8332 19.6168 33.8665 19.4834 34.2332 19.2501C35.1332 18.6501 35.4998 19.3501 35.4998 21.6834V23.3501L36.2998 23.3001L37.0832 23.2501L37.1332 21.3834C37.1665 19.6001 37.1998 19.4834 37.5832 19.2334C37.8832 19.0501 38.0665 19.0168 38.2998 19.1501C38.6832 19.3501 38.8332 20.1001 38.8332 21.9501V23.3334H39.6665H40.4998V21.5334C40.4998 19.3668 40.3165 18.6501 39.6332 18.0834C39.1832 17.7001 38.9832 17.6501 38.3665 17.7168C37.9165 17.7668 37.4832 17.9501 37.2332 18.1834C36.8498 18.5334 36.7832 18.5501 36.6165 18.3168C36.0998 17.6168 35.0665 17.4834 34.1998 18.0001Z" fill="#66687C"/>
<path d="M56.0001 17.8833C55.5001 18.0667 55.4167 18.1667 55.4501 18.5667C55.4667 18.8333 55.5167 19.0667 55.5501 19.1C55.5834 19.15 56.0001 19.0833 56.4667 18.9833C57.2001 18.8 57.3667 18.8167 57.7501 19.0667C58.2501 19.4 58.1667 19.6667 57.5334 19.6667C56.2501 19.6667 55.1334 20.4 54.9334 21.35C54.8167 21.9833 55.1834 22.9167 55.6834 23.1667C56.2001 23.45 57.2834 23.4 57.7501 23.1C58.2501 22.7667 58.3334 22.7667 58.3334 23.0833C58.3334 23.2667 58.5334 23.3333 59.0834 23.3333H59.8334V21.3667C59.8334 19.1 59.6001 18.4333 58.6667 17.9667C58.0001 17.6167 56.8501 17.6 56.0001 17.8833ZM58.1667 21.1167C58.1667 21.6667 57.7334 22.1667 57.2334 22.1667C56.4334 22.1667 56.4167 21.15 57.2167 20.8333C57.9001 20.55 58.1667 20.6333 58.1667 21.1167Z" fill="#66687C"/>
</svg>
