<svg width="68" height="38" viewBox="0 0 68 38" fill="none" xmlns="http://www.w3.org/2000/svg">
<g clip-path="url(#clip0_12415_46288)">
<path d="M59.5241 15.0392C61.2783 13.2779 63.2244 13.7963 63.2244 15.5045C63.2244 17.1727 61.2319 18.9739 58.829 20.3697C58.5973 20.5026 58.3193 20.6555 58.0413 20.7951C57.9486 20.3764 57.8957 19.9111 57.8957 19.3927C57.8957 17.9637 58.498 16.0694 59.5241 15.0392ZM50.164 33.0247C47.8339 35.3643 44.8551 32.38 48.3304 28.8906C49.1181 28.0996 50.4089 27.2289 51.7527 26.438C52.5206 28.3455 51.9116 31.2634 50.164 33.0247ZM35.3163 23.6531C33.529 23.6531 32.3706 21.4996 32.7281 18.841C33.0789 16.1824 34.8132 14.0289 36.6005 14.0289C38.2554 14.0289 39.3675 15.8767 39.2417 18.2628C39.1954 18.6084 39.1557 18.9407 39.1226 19.2597C38.6526 21.719 37.0043 23.6531 35.3163 23.6531ZM11.711 22.7691C11.1284 23.354 10.4135 23.6664 9.692 23.6664C9.0168 23.6664 8.43428 23.3607 7.95105 22.8755C6.29616 21.2138 6.44179 17.1395 8.56667 14.9993C9.16905 14.3945 9.89721 14.0422 10.6452 14.0422C11.3138 14.0422 11.9029 14.3413 12.3862 14.8265C13.9418 16.3884 14.0344 20.4362 11.711 22.7691ZM67.0505 23.6398C67.0505 23.6398 66.3885 22.7093 66.1833 22.4434C66.0443 22.2706 65.8722 22.0579 65.4155 22.3703C64.4093 23.0483 63.2774 23.6664 61.8806 23.6664C60.8149 23.6664 59.8815 23.3939 59.1865 22.8023C59.4777 22.6694 59.7822 22.5232 60.0933 22.357C61.7416 21.4597 63.1185 20.3232 63.7804 19.6585C66.9909 16.435 65.9848 11.6295 62.0726 11.6295C58.3789 11.6295 55.4597 15.2452 55.4597 19.2597C55.4597 19.8646 55.5325 20.7286 55.7906 21.6458C55.5722 21.7522 54.1093 22.4634 52.3551 23.4338C50.7068 22.1909 48.1318 22.7492 48.1318 22.7492C50.5215 19.3461 54.1159 14.0289 54.4204 13.5903C54.6388 13.2779 54.6057 12.9655 54.3939 12.4736C54.1225 11.8821 53.8511 11.7758 53.4804 11.7758H46.0135C45.7686 11.7758 45.5766 11.8887 45.5038 12.1679C45.4376 12.4404 45.2788 13.3909 45.2523 13.7165C45.2192 14.0422 45.5237 14.2416 45.8414 14.2416H51.2496L46.3578 21.267C46.3247 21.2936 46.2916 21.3268 46.2651 21.3733C45.5568 22.4036 44.4646 23.8458 43.1539 23.8458C42.3397 23.8458 41.3335 23.261 41.3335 21.3468C41.3335 19.4724 42.0881 15.5111 42.6376 12.4271C42.6971 12.0948 42.5846 11.7691 42.055 11.7691H40.7311C40.4266 11.7691 40.2545 11.9552 40.2082 12.2144C40.1287 12.6863 40.0493 13.1516 39.9699 13.5969C39.3145 12.3407 38.2687 11.6295 36.7528 11.6295C35.3494 11.6295 33.9792 12.1546 32.8605 13.2712C30.067 16.0761 30.5966 20.6489 28.1871 23.0682C27.1478 24.1117 25.9695 23.7927 25.9695 21.7389C25.9695 19.3927 26.8631 16.7806 27.8892 14.3014C28.0679 13.8628 27.8759 13.4972 27.684 13.2114C27.4126 12.8126 27.3067 12.5999 26.8168 12.5999C26.0556 12.5999 24.8376 13.0851 22.4016 13.0851C21.8852 13.0851 21.3888 13.0652 20.9453 13.0319C20.9717 12.6664 20.9784 12.4205 20.985 12.3274C20.9982 11.9818 20.8791 11.7625 20.515 11.7625H19.2705C18.8204 11.7625 18.7078 11.9751 18.6549 12.3274C18.4431 13.8229 18.0393 19.3129 15.2988 22.0646C14.981 22.3836 14.7891 22.4833 14.7891 22.4833C15.4709 21.1407 15.8416 19.3794 15.8416 17.9836C15.8416 14.0555 13.5247 11.6229 10.6187 11.6229C9.73172 11.6229 8.79174 11.9087 7.91134 12.4603C8.32175 10.0676 8.69906 7.82772 8.83146 7.07001C8.94399 6.43195 8.7123 6.09962 8.54681 5.83376C8.26879 5.40173 8.02387 5.20898 7.65317 5.20898H3.3637C3.11877 5.20898 2.93342 5.38179 2.87385 5.6543C2.80103 5.97334 2.64878 6.8108 2.62892 7.1963C2.61569 7.53527 2.84737 7.66155 3.11877 7.66155H6.25644C5.75336 10.7522 4.80014 16.7407 4.50888 18.2428C4.1448 20.157 2.78779 22.5033 0.504045 23.3341C0.219404 23.4404 0.100252 23.6996 0.206165 24.0054C0.312078 24.3111 0.702632 25.1087 0.821784 25.3147C0.940936 25.5274 1.20572 25.667 1.45726 25.5806C2.64216 25.1619 3.72777 24.4839 4.58832 23.6265C4.80014 23.4138 5.00535 23.1745 5.20393 22.9153C6.22997 25.2283 8.31513 26.0724 10.4532 26.0724C12.8694 26.0724 15.4775 25.2283 17.3045 23.3872C19.4426 21.2471 20.3363 17.6978 20.7136 15.1854C21.2431 15.2585 21.8455 15.3184 22.4214 15.3184C23.891 15.3184 25.1222 15.006 25.1222 15.006C25.1222 15.006 23.6394 18.954 23.6394 21.8652C23.6394 25.1486 25.2016 26.0791 26.936 26.0791C28.7166 26.0791 29.9677 24.7365 30.8614 23.0749C31.093 23.5933 31.4373 24.2114 31.9073 24.6833C32.7148 25.4942 33.7144 26.0791 35.1575 26.0791C36.8057 26.0791 38.2223 25.122 39.2285 23.6531C39.4072 24.2712 39.6852 24.7897 40.0626 25.1685C40.5723 25.6803 41.5056 26.0791 42.6773 26.0791C44.6896 26.0791 45.8547 24.5637 48.9857 24.5637C49.3829 24.5637 49.7404 24.6235 50.0647 24.7365C48.6283 25.6138 47.2646 26.5576 46.4306 27.3951C43.8489 29.9872 43.7298 33.3969 45.4244 35.0984C47.4765 37.1588 50.4023 36.1286 52.2293 34.2942C54.3674 32.1474 54.9897 28.0863 53.7518 25.3081C55.2478 24.5171 56.4989 23.9323 56.7968 23.7927C57.7302 25.0755 59.2791 26.0791 61.8343 26.0791C63.6613 26.0791 65.5015 25.4277 66.938 24.3377C67.163 24.1848 67.2094 23.8658 67.0505 23.6398Z" fill="#66687C"/>
</g>
<defs>
<clipPath id="clip0_12415_46288">
<rect width="66.9767" height="31.026" fill="white" transform="translate(0.164062 5.20898)"/>
</clipPath>
</defs>
</svg>
