<svg width="64" height="38" viewBox="0 0 64 38" fill="none" xmlns="http://www.w3.org/2000/svg">
<g clip-path="url(#clip0_12887_24577)">
<path d="M7.04996 11H0.0268555V27.796L7.04996 11Z" fill="#66687C"/>
<path d="M11.9966 11H19.0108V27.796L11.9966 11Z" fill="#66687C"/>
<path d="M9.52033 17.1865L13.9904 27.7922H11.0574L9.72155 24.4157H6.4502L9.52033 17.1865Z" fill="#66687C"/>
<path d="M30.4658 21.6863L31.2939 24.0608C31.3214 24.1205 31.3625 24.1477 31.4358 24.1477H33.0279C33.1147 24.1477 33.1286 24.1066 33.1147 24.0197L29.8251 14.8828C29.8115 14.8097 29.7979 14.7959 29.7246 14.7959H27.748C27.6933 14.7959 27.6611 14.8371 27.6611 14.8966C27.6336 15.377 27.5925 15.5234 27.5329 15.6652L24.6002 24.0061C24.5866 24.1066 24.6184 24.1477 24.701 24.1477H26.1237C26.2109 24.1477 26.252 24.1205 26.2838 24.0333L27.0664 21.6863H30.4658ZM27.5193 20.1353C27.9492 18.8359 28.5167 17.1705 28.7454 16.2188H28.7593C29.0428 17.2163 29.7107 19.1928 30.0127 20.1353H27.5193Z" fill="#66687C"/>
<path d="M37.3432 24.285C38.1988 24.285 39.1093 24.1292 40.0335 23.7314C40.1068 23.7039 40.1204 23.6718 40.1204 23.6032C40.0929 23.347 40.061 22.9764 40.061 22.6927V14.0911C40.061 14.0362 40.061 14.0088 39.9924 14.0088H38.4414C38.3817 14.0088 38.3542 14.0362 38.3542 14.1094V17.0239C38.1119 16.9965 37.9425 16.9827 37.7413 16.9827C35.2386 16.9827 33.7012 18.6344 33.7012 20.6979C33.7012 23.0908 35.2797 24.285 37.3432 24.285ZM38.3542 22.6927C38.098 22.7751 37.8146 22.8071 37.5262 22.8071C36.3915 22.8071 35.4627 22.1666 35.4627 20.6109C35.4627 19.2338 36.419 18.4194 37.6863 18.4194C37.9425 18.4194 38.1666 18.4468 38.3542 18.52V22.6927Z" fill="#66687C"/>
<path d="M45.0684 16.9839C42.9317 16.9839 41.6094 18.6219 41.6094 20.6441C41.6094 22.4514 42.6618 24.286 45.0363 24.286C47.045 24.286 48.4542 22.8082 48.4542 20.5984C48.4542 18.6493 47.2599 16.9839 45.0684 16.9839ZM44.9816 18.4205C46.1892 18.4205 46.7016 19.4591 46.7016 20.6441C46.7016 22.1082 45.9468 22.8357 45.0684 22.8357C43.9841 22.8357 43.3434 21.9252 43.3434 20.6121C43.3434 19.2624 44.0252 18.4205 44.9816 18.4205Z" fill="#66687C"/>
<path d="M50.0554 14.0088C49.9957 14.0088 49.9546 14.0362 49.9546 14.1094V23.8458C49.9546 23.8869 49.9957 23.9602 50.0554 23.9738C50.7369 24.1842 51.4509 24.285 52.1875 24.285C54.2967 24.285 56.3463 22.9764 56.3463 20.341C56.3463 18.4331 55.0379 16.9827 52.988 16.9827C52.517 16.9827 52.0777 17.0559 51.6932 17.1841L51.675 14.1232C51.675 14.0225 51.6475 14.0088 51.5467 14.0088H50.0554ZM54.594 20.5149C54.594 22.0933 53.5144 22.8345 52.3476 22.8345C52.1049 22.8345 51.8901 22.8208 51.6932 22.7613V18.607C51.9173 18.52 52.1875 18.4468 52.686 18.4468C53.8117 18.4468 54.594 19.1606 54.594 20.5149Z" fill="#66687C"/>
<path d="M62.1386 21.0285C62.834 21.0285 63.4058 21.0147 63.6024 20.969C63.6757 20.9552 63.7032 20.9278 63.7168 20.8683C63.7582 20.7128 63.7764 20.3879 63.7764 19.9899C63.7764 18.6356 62.962 16.9839 60.8574 16.9839C58.707 16.9839 57.5127 18.7362 57.5127 20.7128C57.5127 22.4651 58.4369 24.286 61.0267 24.286C61.9967 24.286 62.6235 24.1306 63.1632 23.8743C63.2182 23.8468 63.2457 23.8011 63.2457 23.7189V22.5337C63.2457 22.4651 63.2046 22.4514 63.1632 22.4788C62.6235 22.7076 62.0378 22.822 61.3973 22.822C59.9468 22.822 59.2881 22.0213 59.2467 21.0285H62.1386ZM59.2467 19.8023C59.3614 19.1068 59.8006 18.3519 60.7841 18.3519C61.8684 18.3519 62.1521 19.2624 62.1521 19.6742C62.1521 19.6879 62.1521 19.7474 62.1521 19.7885C62.0928 19.8023 61.9095 19.8023 61.3698 19.8023H59.2467Z" fill="#66687C"/>
</g>
<defs>
<clipPath id="clip0_12887_24577">
<rect width="63.9818" height="17" fill="white" transform="translate(0 11)"/>
</clipPath>
</defs>
</svg>
