<svg width="26" height="26" viewBox="0 0 26 26" fill="none" xmlns="http://www.w3.org/2000/svg">
<path d="M19.8824 0H6.11765C2.73896 0 0 2.73903 0 6.11779V19.8828C0 23.2616 2.73896 26.0006 6.11765 26.0006H19.8824C23.261 26.0006 26 23.2616 26 19.8828V6.11779C26 2.73903 23.261 0 19.8824 0Z" fill="#009385"/>
<path d="M21.1561 7.63943C20.1055 7.20664 19.0541 7.04199 18.0034 7.04199C14.6676 7.04172 11.332 8.70022 7.99619 8.70022C7.15963 8.70022 6.32357 8.59599 5.48699 8.33529C5.39301 8.306 5.29876 8.29224 5.20668 8.29224C4.74058 8.29224 4.33325 8.64654 4.33325 9.13833V17.5776C4.33325 17.9135 4.52906 18.232 4.84349 18.3612C5.89404 18.7943 6.9454 18.9589 7.99619 18.9589C11.332 18.9589 14.6678 17.3004 18.0036 17.3004C18.8402 17.3004 19.6762 17.4047 20.5128 17.6654C20.6068 17.6946 20.7011 17.7084 20.7932 17.7084C21.2593 17.7084 21.6666 17.3541 21.6666 16.8623V8.42331C21.6663 8.08714 21.4705 7.76894 21.1561 7.63943ZM12.9998 15.5541C11.803 15.5541 10.8332 14.4106 10.8332 13.0005C10.8332 11.5901 11.8033 10.4468 12.9998 10.4468C14.1963 10.4468 15.1664 11.5901 15.1664 13.0005C15.1664 14.4111 14.196 15.5541 12.9998 15.5541Z" fill="white"/>
<path opacity="0.5" d="M12.9999 15.7088C14.1965 15.7088 15.1666 14.4962 15.1666 13.0004C15.1666 11.5046 14.1965 10.292 12.9999 10.292C11.8033 10.292 10.8333 11.5046 10.8333 13.0004C10.8333 14.4962 11.8033 15.7088 12.9999 15.7088Z" fill="white"/>
</svg>
