<svg fill="none" height="100%" viewbox="0 0 32 32" width="100%" xmlns="http://www.w3.org/2000/svg">
<rect fill="#0F4C4A" height="32" rx="4" width="32"></rect>
<path d="M21.6912 13.969C23.4001 13.969 25.3334 15.3543 25.3334 17.0633V22.4783C25.3334 24.1872 24.9144 24.7667 23.7057 24.7667C22.497 24.7667 21.6912 23.9609 21.6912 22.4783C21.6912 20.9957 21.6912 13.969 21.6912 13.969Z" fill="white" opacity="0.3"></path>
<path d="M18.4265 6.23369C19.9766 6.23369 21.6911 7.74748 21.6912 9.45634V22.3489C21.6912 24.3634 22.9 24.7669 23.7058 24.7669C23.9552 24.7669 15.1567 24.7669 10.8562 24.7669C9.02884 24.7669 7.18628 22.4465 7.18628 20.7376V9.32744C7.18635 7.61858 8.44378 6.23369 9.9939 6.23369H18.4265ZM13.9783 10.262V12.1966H11.2156V15.5804H16.741V17.0315H11.2156V17.9983H13.9783V19.9319H14.8992V17.9983H17.6619V14.6136H12.1365V13.1634H17.6619V12.1966H14.8992V10.262H13.9783Z" fill="white"></path>
</svg>