<svg fill="none" height="100%" viewbox="0 0 80 80" width="100%" xmlns="http://www.w3.org/2000/svg">
<path d="M35.3113 5.23253C36.7374 4.4238 38.3552 3.99805 40.0019 3.99805C41.6487 3.99805 43.2665 4.4238 44.6926 5.23253L68.3113 18.6227C69.7374 19.4314 70.9216 20.5946 71.745 21.9953C72.5684 23.396 73.0019 24.9849 73.002 26.6023V53.3901C73.0019 55.0075 72.5684 56.5964 71.745 57.9971C70.9216 59.3978 69.7374 60.561 68.3113 61.3697L44.6926 74.7636C43.2665 75.5723 41.6487 75.998 40.0019 75.998C38.3552 75.998 36.7374 75.5723 35.3113 74.7636L11.6927 61.3697C10.2665 60.561 9.08227 59.3978 8.25888 57.9971C7.43549 56.5964 7.002 55.0075 7.00195 53.3901V26.606C7.00134 24.988 7.43452 23.3983 8.25794 21.9969C9.08136 20.5955 10.266 19.4317 11.6927 18.6227L35.3113 5.23253Z" fill="#9FE29E"></path>
<path clip-rule="evenodd" d="M42.8344 25.8314C42.8346 25.52 42.7321 25.2172 42.5429 24.9699C42.3536 24.7225 42.0881 24.5445 41.7875 24.4632C41.4869 24.3819 41.1678 24.4019 40.8797 24.5202C40.5916 24.6385 40.3505 24.8484 40.1937 25.1174L30.2771 42.1174C30.1514 42.3327 30.0848 42.5774 30.084 42.8266C30.0831 43.0759 30.1481 43.321 30.2723 43.5371C30.3964 43.7533 30.5754 43.9328 30.7912 44.0577C31.0069 44.1825 31.2518 44.2482 31.5011 44.2481H37.1677V54.1648C37.1676 54.4762 37.27 54.779 37.4593 55.0264C37.6485 55.2737 37.914 55.4518 38.2146 55.5331C38.5153 55.6143 38.8343 55.5943 39.1224 55.476C39.4105 55.3578 39.6516 55.1479 39.8084 54.8788L49.7251 37.8788C49.8507 37.6635 49.9173 37.4189 49.9181 37.1696C49.919 36.9203 49.8541 36.6752 49.7299 36.4591C49.6057 36.243 49.4267 36.0634 49.211 35.9386C48.9952 35.8137 48.7503 35.748 48.5011 35.7481H42.8344V25.8314Z" fill="#032D2A" fill-rule="evenodd"></path>
</svg>