<svg fill="none" height="100%" viewbox="0 0 34 34" width="100%" xmlns="http://www.w3.org/2000/svg">
<rect fill="#009385" height="34" rx="8" width="34"></rect>
<path d="M27.6656 9.98975C26.2918 9.42381 24.9169 9.2085 23.5428 9.2085C19.1806 9.20815 14.8187 11.3769 10.4565 11.3769C9.36253 11.3769 8.26923 11.2406 7.17523 10.8997C7.05234 10.8614 6.92909 10.8434 6.80867 10.8434C6.19916 10.8434 5.6665 11.3067 5.6665 11.9498V22.9855C5.6665 23.4248 5.92256 23.8412 6.33374 24.0102C7.70753 24.5765 9.08239 24.7918 10.4565 24.7918C14.8187 24.7918 19.1809 22.623 23.5431 22.623C24.6371 22.623 25.7304 22.7594 26.8244 23.1003C26.9473 23.1385 27.0706 23.1566 27.191 23.1566C27.8005 23.1566 28.3332 22.6933 28.3332 22.0501V11.0148C28.3328 10.5752 28.0768 10.1591 27.6656 9.98975ZM16.9997 20.3394C15.4346 20.3394 14.1664 18.8441 14.1664 17.0002C14.1664 15.1559 15.435 13.6609 16.9997 13.6609C18.5643 13.6609 19.8329 15.1559 19.8329 17.0002C19.8329 18.8448 18.564 20.3394 16.9997 20.3394Z" fill="white"></path>
<ellipse cx="16.9998" cy="17.0002" fill="white" opacity="0.5" rx="2.83333" ry="3.54167"></ellipse>
</svg>