<svg fill="none" height="100%" viewbox="0 0 32 32" width="100%" xmlns="http://www.w3.org/2000/svg">
<path d="M23.4055 9.72803C26.6735 9.72803 29.3335 12.4744 29.3335 15.8499L29.3335 22.5597C29.3335 25.9269 26.6802 28.6664 23.4188 28.6664L8.5975 28.6664C5.32816 28.6664 2.66683 25.9214 2.66683 22.5459L2.66683 15.8362C2.66683 12.4689 5.3215 9.72803 8.58416 9.72803H9.8375L23.4055 9.72803Z" fill="#688F8F" opacity="0.4"></path>
<path d="M16.7284 21.3829L20.6071 17.4257C21.0071 17.0167 21.0071 16.3585 20.6044 15.9508C20.2017 15.5446 19.5524 15.5459 19.1524 15.9536L17.0284 18.1204L17.0284 4.3758C17.0284 3.80023 16.5684 3.33301 16.0004 3.33301C15.4337 3.33301 14.9751 3.80023 14.9751 4.3758L14.9751 18.1204L12.8497 15.9536C12.4497 15.5459 11.8004 15.5446 11.3977 15.9508C11.1964 16.1553 11.0951 16.4221 11.0951 16.6903C11.0951 16.9557 11.1964 17.2225 11.3951 17.4257L15.2737 21.3829C15.4671 21.5792 15.7284 21.6903 16.0004 21.6903C16.2737 21.6903 16.5351 21.5792 16.7284 21.3829" fill="#688F8F"></path>
</svg>