<svg fill="none" height="100%" viewbox="0 0 24 25" width="100%" xmlns="http://www.w3.org/2000/svg">
<path d="M5 9.79104V17.791M9.5 9.79104V17.791M14.5 9.79104V17.791M19 9.79104V17.791M3 19.391L3 20.191C3 20.7511 3 21.0311 3.10899 21.245C3.20487 21.4332 3.35785 21.5862 3.54601 21.682C3.75992 21.791 4.03995 21.791 4.6 21.791H19.4C19.9601 21.791 20.2401 21.791 20.454 21.682C20.6422 21.5862 20.7951 21.4332 20.891 21.245C21 21.0311 21 20.7511 21 20.191V19.391C21 18.831 21 18.551 20.891 18.337C20.7951 18.1489 20.6422 17.9959 20.454 17.9C20.2401 17.791 19.9601 17.791 19.4 17.791H4.6C4.03995 17.791 3.75992 17.791 3.54601 17.9C3.35785 17.9959 3.20487 18.1489 3.10899 18.337C3 18.551 3 18.831 3 19.391ZM11.6529 3.86817L4.25291 5.51261C3.80585 5.61196 3.58232 5.66163 3.41546 5.78184C3.26829 5.88787 3.15273 6.03193 3.08115 6.1986C3 6.38756 3 6.61654 3 7.07451L3 8.19103C3 8.75109 3 9.03111 3.10899 9.24503C3.20487 9.43319 3.35785 9.58617 3.54601 9.68204C3.75992 9.79104 4.03995 9.79104 4.6 9.79104H19.4C19.9601 9.79104 20.2401 9.79104 20.454 9.68204C20.6422 9.58617 20.7951 9.43319 20.891 9.24503C21 9.03111 21 8.75109 21 8.19104V7.07451C21 6.61654 21 6.38756 20.9188 6.1986C20.8473 6.03193 20.7317 5.88787 20.5845 5.78184C20.4177 5.66163 20.1942 5.61196 19.7471 5.51261L12.3471 3.86817C12.2176 3.83938 12.1528 3.82499 12.0874 3.81925C12.0292 3.81416 11.9708 3.81416 11.9126 3.81925C11.8472 3.82499 11.7824 3.83938 11.6529 3.86817Z" stroke="white" stroke-linecap="round" stroke-linejoin="round" stroke-width="2"></path>
</svg>