<svg fill="none" viewbox="0 0 24 24" width="100%" xmlns="http://www.w3.org/2000/svg">
<rect fill="#009385" height="24" rx="4" width="24" x="6.10352e-05"></rect>
<path d="M19.5288 7.05147C18.5591 6.65199 17.5886 6.5 16.6186 6.5C13.5394 6.49975 10.4605 8.03067 7.38126 8.03067C6.60902 8.03067 5.83728 7.93442 5.06504 7.69379C4.9783 7.66679 4.8913 7.65402 4.8063 7.65402C4.37606 7.65402 4.00006 7.98107 4.00006 8.43507V16.2249C4.00006 16.535 4.18081 16.829 4.47105 16.9483C5.44079 17.348 6.41127 17.5 7.38126 17.5C10.4605 17.5 13.5397 15.9691 16.6189 15.9691C17.3911 15.9691 18.1628 16.0653 18.9351 16.306C19.0218 16.333 19.1088 16.3457 19.1938 16.3457C19.6241 16.3457 20.0001 16.0187 20.0001 15.5647V7.77507C19.9998 7.46471 19.8191 7.17105 19.5288 7.05147ZM11.9999 14.3571C10.8952 14.3571 9.99997 13.3016 9.99997 12C9.99997 10.6982 10.8955 9.64286 11.9999 9.64286C13.1044 9.64286 13.9999 10.6982 13.9999 12C13.9999 13.3021 13.1042 14.3571 11.9999 14.3571Z" fill="white"></path>
<ellipse cx="12.0001" cy="12" fill="white" opacity="0.5" rx="2" ry="2.5"></ellipse>
</svg>