<svg fill="none" height="100%" viewbox="0 0 32 32" width="100%" xmlns="http://www.w3.org/2000/svg">
<rect fill="#0F4C4A" height="32" rx="4" width="32"></rect>
<path clip-rule="evenodd" d="M9 10.25C7.48122 10.25 6.25 11.4812 6.25 13V22C6.25 23.5188 7.48122 24.75 9 24.75H23C24.5188 24.75 25.75 23.5188 25.75 22V13C25.75 11.4812 24.5188 10.25 23 10.25H9ZM20.5 16.25C19.8097 16.25 19.25 16.8097 19.25 17.5C19.25 18.1903 19.8097 18.75 20.5 18.75C21.1903 18.75 21.75 18.1903 21.75 17.5C21.75 16.8097 21.1903 16.25 20.5 16.25Z" fill="white" fill-rule="evenodd"></path>
<path d="M20.4847 7.06862C21.7544 6.73004 23 7.68703 23 9.00109H13L20.4847 7.06862Z" fill="white" opacity="0.5"></path>
</svg>