<svg fill="none" height="100%" viewbox="0 0 24 24" width="100%" xmlns="http://www.w3.org/2000/svg">
<rect fill="#0F4C4A" height="24" rx="4" width="24"></rect>
<path d="M8.25 11.625C5.652 11.625 4.0275 8.8125 5.32725 6.5625C5.62346 6.04945 6.0495 5.6234 6.56255 5.32719C7.0756 5.03097 7.65758 4.87502 8.25 4.875C10.848 4.875 12.4725 7.6875 11.1727 9.9375C10.8765 10.4506 10.4505 10.8766 9.93745 11.1728C9.4244 11.469 8.84242 11.625 8.25 11.625Z" fill="white"></path>
<path d="M15.75 19.125C13.152 19.125 11.5275 16.3125 12.8272 14.0625C13.1235 13.5494 13.5495 13.1234 14.0625 12.8272C14.5756 12.531 15.1576 12.375 15.75 12.375C18.348 12.375 19.9725 15.1875 18.6727 17.4375C18.3765 17.9506 17.9505 18.3766 17.4375 18.6728C16.9244 18.969 16.3424 19.125 15.75 19.125ZM15.75 11.625C13.152 11.625 11.5275 8.8125 12.8272 6.5625C13.1235 6.04945 13.5495 5.6234 14.0625 5.32719C14.5756 5.03097 15.1576 4.87502 15.75 4.875C18.348 4.875 19.9725 7.6875 18.6727 9.9375C18.3765 10.4506 17.9505 10.8766 17.4375 11.1728C16.9244 11.469 16.3424 11.625 15.75 11.625ZM8.25 19.125C5.652 19.125 4.0275 16.3125 5.32725 14.0625C5.62346 13.5494 6.0495 13.1234 6.56255 12.8272C7.0756 12.531 7.65758 12.375 8.25 12.375C10.848 12.375 12.4725 15.1875 11.1727 17.4375C10.8765 17.9506 10.4505 18.3766 9.93745 18.6728C9.4244 18.969 8.84242 19.125 8.25 19.125Z" fill="white" opacity="0.3"></path>
</svg>