<svg fill="none" height="100%" viewbox="0 0 24 24" width="100%" xmlns="http://www.w3.org/2000/svg">
<rect fill="#0F4C4A" height="24" rx="4" width="24"></rect>
<path d="M14.853 18.5812C15.0055 18.6896 15.1879 18.7478 15.375 18.7477C15.5639 18.7458 15.7476 18.6853 15.9005 18.5744C16.0535 18.4636 16.1682 18.3079 16.2289 18.129L16.5079 17.2717C16.5675 17.094 16.6688 16.9309 16.8004 16.7981C16.932 16.6654 17.0951 16.5652 17.2729 16.5067L18.1414 16.2232C18.321 16.1616 18.4766 16.0448 18.5858 15.8894C18.695 15.7341 18.7522 15.5482 18.7494 15.3583C18.7465 15.1684 18.6836 14.9843 18.5698 14.8323C18.4559 14.6803 18.2969 14.5682 18.1155 14.5121L17.256 14.232C17.0783 14.1724 16.9168 14.0726 16.7841 13.9403C16.6514 13.808 16.5511 13.6468 16.491 13.4692L16.2075 12.5985C16.1465 12.4197 16.0308 12.2646 15.8767 12.1552C15.7227 12.0458 15.5381 11.9877 15.3492 11.989C15.1602 11.9904 14.9765 12.0512 14.8241 12.1628C14.6716 12.2744 14.5582 12.4312 14.4998 12.6109L14.2219 13.4681C14.1646 13.6443 14.0673 13.805 13.9378 13.9375C13.8082 14.07 13.6498 14.1707 13.4749 14.232L12.6019 14.5166C12.4697 14.5625 12.3501 14.6387 12.2525 14.7389C12.1549 14.8392 12.0821 14.9608 12.0397 15.0941C11.9973 15.2275 11.9866 15.3688 12.0084 15.507C12.0303 15.6452 12.084 15.7764 12.1654 15.8902C12.2768 16.0477 12.4343 16.1659 12.6154 16.2277L13.4738 16.5056C13.6521 16.5657 13.814 16.6664 13.9467 16.7997C14.0795 16.9331 14.1794 17.0954 14.2388 17.274L14.5234 18.1447C14.585 18.3207 14.6998 18.4733 14.8519 18.5812" fill="white" opacity="0.5"></path>
<path d="M9.14813 14.0588C9.32384 14.1842 9.53434 14.2514 9.75018 14.2512C9.96602 14.251 10.1764 14.1834 10.3519 14.0577C10.5273 13.9266 10.6606 13.7471 10.7355 13.5413L11.1259 12.3409C11.2195 12.0581 11.3779 11.8011 11.5885 11.5903C11.799 11.3796 12.0559 11.221 12.3386 11.1271L13.5604 10.7299C13.7653 10.6564 13.9419 10.5204 14.0653 10.3411C14.1886 10.1618 14.2525 9.9482 14.2479 9.73058C14.2433 9.51295 14.1705 9.30228 14.0396 9.12833C13.9088 8.95438 13.7266 8.82594 13.5188 8.76118L12.3161 8.37193C12.0331 8.27844 11.7759 8.1201 11.5649 7.90953C11.354 7.69897 11.1951 7.44202 11.1011 7.15918L10.704 5.93968C10.6319 5.73829 10.4992 5.56419 10.3242 5.4413C10.1491 5.31841 9.94027 5.25278 9.72638 5.25343C9.50942 5.2525 9.29767 5.31978 9.12103 5.44575C8.94439 5.57172 8.8118 5.75001 8.742 5.95543L8.3415 7.18168C8.24745 7.45613 8.09255 7.70577 7.88837 7.91189C7.6842 8.11801 7.43605 8.27528 7.1625 8.37193L5.943 8.7668C5.73927 8.8388 5.56308 8.97256 5.43897 9.14944C5.31487 9.32632 5.24903 9.53751 5.25064 9.75358C5.25225 9.96965 5.32122 10.1798 5.44795 10.3548C5.57468 10.5299 5.75285 10.661 5.95763 10.7299L7.158 11.1203C7.44141 11.215 7.69886 11.3744 7.90995 11.5859C8.12104 11.7974 8.27996 12.0551 8.37413 12.3387L8.77013 13.5537C8.841 13.7562 8.97375 13.9328 9.14925 14.0577" fill="white"></path>
</svg>