<svg width="87" height="27" viewBox="0 0 87 27" fill="none" xmlns="http://www.w3.org/2000/svg">
<path d="M61.1205 6.14132C61.0955 6.13943 61.0756 6.11953 61.0737 6.09449C60.9727 4.76147 61.4313 3.40745 62.4494 2.3892C63.455 1.38352 64.8213 0.9126 66.1545 1.01334C66.1795 1.01523 66.1994 1.03513 66.2013 1.06017C66.3023 2.39319 65.8437 3.74721 64.8255 4.76546C63.8074 5.7837 62.4534 6.24232 61.1205 6.14132Z" fill="#9FE29E"/>
<path d="M61.1205 6.14132C61.0955 6.13943 61.0756 6.11953 61.0737 6.09449C60.9727 4.76147 61.4313 3.40745 62.4494 2.3892C63.455 1.38352 64.8213 0.9126 66.1545 1.01334C66.1795 1.01523 66.1994 1.03513 66.2013 1.06017C66.3023 2.39319 65.8437 3.74721 64.8255 4.76546C63.8074 5.7837 62.4534 6.24232 61.1205 6.14132Z" stroke="#9FE29E"/>
<path d="M3.37874 20.2808C4.98371 21.9181 7.31665 22.7358 10.3753 22.7358C11.2968 22.7358 12.1631 22.6418 12.9743 22.4538C13.804 22.2656 14.5602 21.9646 15.2427 21.5506C15.9165 21.1419 16.5004 20.6141 16.9943 19.9671L17.2669 22.3863C17.2676 22.3928 17.2731 22.3977 17.2797 22.3977H19.2682C19.2753 22.3977 19.2811 22.392 19.2811 22.3849V12.2139C19.2811 12.2068 19.2753 12.201 19.2682 12.201H9.93338C9.92626 12.201 9.92049 12.2068 9.92049 12.2139V14.496C9.92049 14.5032 9.92626 14.5089 9.93338 14.5089H16.604V14.8341C16.604 16.0911 16.3741 17.1312 15.9152 17.9552C15.4748 18.7789 14.7957 19.3971 13.8775 19.8092C12.9591 20.2027 11.7919 20.3998 10.3753 20.3998C8.97751 20.3998 7.78284 20.1559 6.79081 19.6686C5.79931 19.1629 5.03714 18.3668 4.50432 17.2797C3.98991 16.1926 3.7323 14.7766 3.7323 13.031V12.4393C3.7323 11.1443 3.88869 10.0281 4.20114 9.09066C4.51363 8.15305 4.96379 7.38474 5.55138 6.78532C6.13899 6.18586 6.86441 5.74551 7.72796 5.46435C8.59178 5.18311 9.57543 5.04237 10.6791 5.04237C11.4883 5.04237 12.2514 5.1268 12.9684 5.2956C13.685 5.44555 14.3096 5.70794 14.8419 6.08248C15.3924 6.45688 15.8146 6.94362 16.1082 7.54267C16.4016 8.12272 16.5488 8.82513 16.5488 9.65012C16.5488 9.65722 16.5545 9.66292 16.5617 9.66292H19.2406C19.2477 9.66292 19.2534 9.65722 19.2534 9.65012C19.2534 8.46528 19.0415 7.43962 18.617 6.5735C18.211 5.70762 17.6205 4.99224 16.8456 4.42751C16.0892 3.84412 15.1855 3.41146 14.1346 3.12936C13.0839 2.84727 11.9136 2.7063 10.6239 2.7063C8.5602 2.7063 6.80894 3.08223 5.37055 3.83471C3.93193 4.56854 2.8437 5.67877 2.10604 7.16501C1.36844 8.65113 1 10.5033 1 12.7211C1 16.1225 1.79207 18.6433 3.37874 20.2808Z" fill="white" stroke="white" stroke-width="0.0257737" stroke-linejoin="round"/>
<path d="M22.1543 26.5335C22.1543 26.5398 22.1588 26.5452 22.165 26.5462C22.2599 26.5624 22.3546 26.5791 22.4491 26.5957C22.9502 26.6842 23.4469 26.7718 23.9623 26.7718C24.7371 26.7718 25.4111 26.6307 25.9839 26.3479C26.9413 25.9068 27.6692 25.0973 28.1981 24.1935C28.5298 23.5167 28.8343 22.7735 29.1106 21.9654L34.0265 7.56832C34.0279 7.56439 34.0272 7.56005 34.0248 7.55666C34.0224 7.55328 34.0185 7.55127 34.0143 7.55127H31.5564C31.5508 7.55127 31.5458 7.55489 31.5441 7.56022L29.0861 15.2236C29.0126 15.5049 28.9112 15.834 28.7824 16.2095C28.6719 16.5663 28.5522 16.9518 28.4233 17.365C28.3128 17.7594 28.2023 18.1447 28.0918 18.5203C27.9825 18.892 27.8912 19.2271 27.8179 19.5253H27.6722C27.5619 19.114 27.4154 18.638 27.2327 18.0974C27.067 17.5527 26.892 17.0267 26.7079 16.5195C26.5422 15.9935 26.3949 15.5521 26.2659 15.195L23.366 7.55958C23.3641 7.55458 23.3593 7.55127 23.3539 7.55127H20.8131C20.8089 7.55127 20.8049 7.55336 20.8025 7.55684C20.8001 7.56033 20.7996 7.56478 20.8011 7.56874L26.4334 22.3842L26.4241 22.4129C26.3028 22.7842 26.2516 22.9409 26.1876 23.0579C26.1401 23.1448 26.0857 23.2096 25.9894 23.3242C25.9524 23.3683 25.9093 23.4197 25.8579 23.4825C25.4906 23.9321 25.0963 24.25 24.6751 24.4368C24.2532 24.624 23.8223 24.7175 23.3823 24.7175H22.1671C22.16 24.7175 22.1543 24.7232 22.1543 24.7304V26.5335Z" fill="white"/>
<path d="M29.1106 21.9654C28.8343 22.7735 28.5298 23.5167 28.1981 24.1935C27.6692 25.0973 26.9413 25.9068 25.9839 26.3479C25.4111 26.6307 24.7371 26.7718 23.9623 26.7718C23.4469 26.7718 22.9502 26.6842 22.4491 26.5957C22.3546 26.5791 22.2599 26.5624 22.165 26.5462C22.1588 26.5452 22.1543 26.5398 22.1543 26.5335V24.7304C22.1543 24.7232 22.16 24.7175 22.1671 24.7175H23.3823C23.8223 24.7175 24.2532 24.624 24.6751 24.4368C25.0963 24.25 25.4906 23.9321 25.8579 23.4825C25.9093 23.4197 25.9524 23.3683 25.9894 23.3242C26.0857 23.2096 26.1401 23.1448 26.1876 23.0579C26.2516 22.9409 26.3028 22.7842 26.4241 22.4129L26.4334 22.3842L20.8011 7.56874C20.7996 7.56478 20.8001 7.56033 20.8025 7.55684C20.8049 7.55336 20.8089 7.55127 20.8131 7.55127H23.3539C23.3593 7.55127 23.3641 7.55458 23.366 7.55958L26.2659 15.195C26.3949 15.5521 26.5422 15.9935 26.7079 16.5195C26.892 17.0267 27.067 17.5527 27.2327 18.0974C27.4154 18.638 27.5619 19.114 27.6722 19.5253H27.8179C27.8912 19.2271 27.9825 18.892 28.0918 18.5203C28.2023 18.1447 28.3128 17.7594 28.4233 17.365C28.5522 16.9518 28.6719 16.5663 28.7824 16.2095C28.9112 15.834 29.0126 15.5049 29.0861 15.2236L31.5441 7.56022C31.5458 7.55489 31.5508 7.55127 31.5564 7.55127H34.0143C34.0185 7.55127 34.0224 7.55328 34.0248 7.55666C34.0272 7.56005 34.0279 7.56439 34.0265 7.56832L29.1106 21.9654ZM29.1106 21.9654L29.0984 21.9612" stroke="white" stroke-width="0.0257737" stroke-linejoin="round"/>
<path d="M35.436 22.3853C35.436 22.3924 35.4417 22.3982 35.4489 22.3982H37.8792C37.8863 22.3982 37.8921 22.3924 37.8921 22.3853V13.6794C37.8921 12.7984 38.0666 12.0399 38.4152 11.4036C38.7823 10.7669 39.2686 10.2803 39.8739 9.94352C40.4797 9.60642 41.1219 9.43798 41.8009 9.43798C42.2604 9.43798 42.6735 9.48485 43.0405 9.57845C43.4254 9.67199 43.7459 9.83082 44.0018 10.0546C44.2759 10.2783 44.4868 10.5865 44.6335 10.9792C44.7984 11.3716 44.8812 11.8772 44.8812 12.4961V22.3853C44.8812 22.3924 44.887 22.3982 44.8941 22.3982H47.3244C47.3316 22.3982 47.3373 22.3924 47.3373 22.3853V12.158C47.3373 10.9359 47.1346 9.96622 46.7281 9.24979C46.3402 8.53381 45.7951 8.01528 45.0928 7.69476C44.4096 7.37451 43.6067 7.2146 42.6847 7.2146C42.0023 7.2146 41.3566 7.30867 40.7478 7.49688C40.1571 7.66638 39.6126 7.93944 39.1142 8.31601C38.6358 8.69146 38.2033 9.17912 37.8169 9.77842H37.6423L37.4225 7.56431C37.4219 7.55772 37.4163 7.5527 37.4097 7.5527H35.4489C35.4417 7.5527 35.436 7.55847 35.436 7.56558V22.3853Z" fill="white" stroke="white" stroke-width="0.0257737" stroke-linejoin="round"/>
<path d="M58.0015 6.70556L57.9985 6.70517L57.9894 6.70399L57.9542 6.69954C57.9237 6.6957 57.8795 6.69021 57.8245 6.68364C57.7145 6.67048 57.5617 6.65294 57.3902 6.63539C57.0474 6.60032 56.6295 6.56519 56.3308 6.56519C55.0378 6.56519 53.9231 6.77581 53.0169 7.18755C52.1208 7.59923 51.453 8.16188 51.0044 8.8757C50.5758 9.58937 50.3665 10.4135 50.3665 11.3473C50.3665 12.1409 50.5459 12.8644 50.8946 13.5176C51.2583 14.1521 51.758 14.6694 52.3738 15.0786C51.6991 15.2315 51.1304 15.5309 50.6489 15.9769C50.1793 16.4302 49.9493 16.9849 49.9493 17.6396C49.9493 18.1229 50.0791 18.5762 50.3387 18.989C50.5935 19.3745 50.9448 19.6826 51.4011 19.9032C50.7843 20.1648 50.2451 20.5631 49.7835 21.0979C49.3342 21.6417 49.1147 22.3263 49.1147 23.1503C49.1147 23.8938 49.294 24.5476 49.6433 25.091C50.0022 25.6339 50.471 26.0464 51.0692 26.328C51.6637 26.6277 52.3073 26.7784 53.0097 26.7802C53.011 26.7859 53.0161 26.7902 53.0223 26.7902H59.0034C59.949 26.7902 60.7758 26.5895 61.4834 26.1976C62.2106 25.8258 62.7687 25.3032 63.1575 24.6499C63.5661 24.0066 63.7754 23.2828 63.7754 22.479C63.7754 21.3539 63.4266 20.4388 62.7385 19.7248C62.0503 18.9905 61.1626 18.6286 60.0864 18.6286H54.135C53.6405 18.6286 53.2359 18.509 52.9205 18.2904C52.6057 18.0522 52.449 17.7454 52.449 17.3791C52.449 16.952 52.6061 16.656 52.9196 16.4683C53.2348 16.2597 53.6399 16.1595 54.135 16.1595H56.4202C57.733 16.1595 58.8278 15.9489 59.7044 15.5371C60.5806 15.1254 61.2285 14.5627 61.6572 13.8488C62.1057 13.1152 62.3248 12.2812 62.3248 11.3473C62.3248 10.6945 62.2053 10.0816 61.9661 9.51885C61.7369 8.95609 61.3981 8.45365 60.9299 8.00159C60.317 7.45894 59.5846 7.13473 59.0061 6.94656C58.7168 6.85245 58.4658 6.79222 58.2871 6.75551C58.1977 6.73715 58.1264 6.72467 58.0774 6.71678C58.0528 6.71283 58.0339 6.71003 58.0211 6.70822L58.0065 6.70621L58.0028 6.70572L58.0015 6.70556ZM60.1403 24.5915C59.7847 24.7808 59.3989 24.8708 58.9736 24.8708H53.7177C53.1246 24.8708 52.631 24.6815 52.2262 24.313C51.8218 23.945 51.6144 23.4576 51.6144 22.8397C51.6144 22.262 51.8216 21.7744 52.2264 21.3861C52.6314 20.9778 53.125 20.7685 53.7177 20.7685H59.3412C59.8943 20.7685 60.3579 20.9576 60.723 21.3258C61.0878 21.6936 61.2757 22.2011 61.2757 22.8297C61.2757 23.2079 61.177 23.5462 60.9697 23.8647C60.7624 24.1832 60.4861 24.4222 60.1403 24.5915ZM58.9947 13.492C58.4218 14.0099 57.5413 14.2702 56.3606 14.2702C55.5669 14.2702 54.9033 14.1501 54.3889 13.9107C53.8643 13.6611 53.479 13.3222 53.2222 12.8739C52.9651 12.4252 52.8364 11.9164 52.8364 11.3373C52.8364 10.4386 53.1234 9.73102 53.6965 9.21281C54.2893 8.69471 55.1799 8.43455 56.3606 8.43455C57.5413 8.43455 58.4218 8.69476 58.9947 9.21274C59.5679 9.73092 59.8549 10.4186 59.8549 11.3373C59.8549 12.2562 59.5678 12.9738 58.9947 13.492Z" fill="white" stroke="white" stroke-width="0.0257737" stroke-linejoin="round"/>
<path d="M67.6966 21.9175C68.6931 22.4635 69.9109 22.7362 71.3486 22.7362C72.3439 22.7362 73.2291 22.6046 74.004 22.3411C74.7787 22.0777 75.4338 21.7106 75.9692 21.2398C76.5046 20.7689 76.9108 20.2038 77.1878 19.5446C77.4646 18.8669 77.6122 18.1327 77.6307 17.3424C77.6307 17.3389 77.6294 17.3355 77.627 17.3331C77.6246 17.3306 77.6212 17.3292 77.6178 17.3292H75.2427C75.2357 17.3292 75.23 17.3347 75.2298 17.3416C75.2114 17.8286 75.1196 18.2779 74.9545 18.6896C74.7895 19.101 74.5421 19.4563 74.2121 19.7555C73.9006 20.0545 73.5063 20.2887 73.0291 20.4572C72.5704 20.6069 72.0288 20.6819 71.4038 20.6819C70.4848 20.6819 69.7231 20.5132 69.1179 20.1765C68.5132 19.8213 68.0547 19.2696 67.7426 18.5206C67.4499 17.7552 67.2845 16.7845 67.2468 15.6081H77.673C77.6801 15.6081 77.6859 15.6024 77.6859 15.5953V14.4119C77.6859 12.8143 77.4464 11.4881 76.9667 10.4341C76.5055 9.36132 75.8133 8.56083 74.8901 8.0334C73.9671 7.48728 72.8232 7.2146 71.459 7.2146C69.9662 7.2146 68.7211 7.49662 67.7244 8.06146C66.7275 8.60766 65.9708 9.45513 65.4543 10.6031C64.9562 11.7323 64.7075 13.19 64.7075 14.9754C64.7075 16.7421 64.9561 18.1997 65.4542 19.3476C65.9707 20.4956 66.7182 21.3525 67.6966 21.9175ZM74.0733 10.2791C74.4215 10.6343 74.6878 11.0929 74.8714 11.6548C75.054 12.2137 75.146 12.9029 75.1469 13.7229H67.3026C67.3769 12.6971 67.5697 11.8581 67.8804 11.2056C68.1923 10.5504 68.6416 10.0642 69.2282 9.74632C69.815 9.42829 70.5308 9.26893 71.3762 9.26893C71.9457 9.26893 72.4504 9.35327 72.8906 9.52165C73.3488 9.67121 73.7433 9.92382 74.0733 10.2791Z" fill="white" stroke="white" stroke-width="0.0257737" stroke-linejoin="round"/>
<path d="M79.9858 22.3853C79.9858 22.3924 79.9915 22.3982 79.9987 22.3982H82.429C82.4361 22.3982 82.4419 22.3924 82.4419 22.3853V14.1302C82.4419 13.5113 82.5062 12.9301 82.6348 12.3865C82.7818 11.8433 83.002 11.3753 83.2955 10.9824C83.5888 10.5896 83.9554 10.2905 84.3953 10.0848C84.8535 9.86042 85.3948 9.74792 86.0193 9.74792H86.9307C86.9378 9.74792 86.9436 9.74212 86.9436 9.73502V7.45289H86.9591L86.9365 7.44141C86.8243 7.38415 86.6479 7.33698 86.4086 7.29938C86.1865 7.24281 85.9371 7.2146 85.6603 7.2146C85.0141 7.2146 84.4684 7.35587 84.0241 7.63913C83.5805 7.90313 83.2292 8.25206 82.9704 8.68584C82.7137 9.09732 82.5117 9.53667 82.3643 10.0038H82.1922L81.9723 7.56443C81.9718 7.55778 81.9662 7.5527 81.9595 7.5527H79.9987C79.9915 7.5527 79.9858 7.55847 79.9858 7.56558V22.3853Z" fill="white" stroke="white" stroke-width="0.0257737" stroke-linejoin="round"/>
</svg>
