<svg fill="none" height="100%" viewbox="0 0 32 32" width="100%" xmlns="http://www.w3.org/2000/svg">
<path clip-rule="evenodd" d="M23.6491 8.06109C25.9255 9.81818 27.8637 12.3924 29.2556 15.6118C29.3597 15.8562 29.3597 16.1419 29.2556 16.3746C26.4719 22.8134 21.5158 26.6663 16.0003 26.6663H15.9873C10.4849 26.6663 5.52878 22.8134 2.74504 16.3746C2.64098 16.1419 2.64098 15.8562 2.74504 15.6118C5.52878 9.17171 10.4849 5.33301 15.9873 5.33301H16.0003C18.758 5.33301 21.3727 6.28978 23.6491 8.06109ZM10.7967 15.9998C10.7967 18.8442 13.1252 21.1585 16 21.1585C18.8618 21.1585 21.1902 18.8442 21.1902 15.9998C21.1902 13.1424 18.8618 10.828 16 10.828C13.1252 10.828 10.7967 13.1424 10.7967 15.9998Z" fill="#2CAB61" fill-rule="evenodd" opacity="0.4"></path>
<path d="M19.2415 15.996C19.2415 17.7673 17.7846 19.2154 16.0025 19.2154C14.2074 19.2154 12.7505 17.7673 12.7505 15.996C12.7505 15.7762 12.7765 15.5706 12.8155 15.3638H12.8806C14.3245 15.3638 15.4952 14.226 15.5472 12.8025C15.6903 12.7779 15.8464 12.7637 16.0025 12.7637C17.7846 12.7637 19.2415 14.2118 19.2415 15.996" fill="#2CAB61"></path>
</svg>