<svg fill="none" height="100%" viewbox="0 0 32 32" width="100%" xmlns="http://www.w3.org/2000/svg">
<path d="M21.7875 2.6665H10.2275C5.70748 2.6665 2.66748 5.83984 2.66748 10.5598V21.4532C2.66748 26.1598 5.70748 29.3332 10.2275 29.3332H21.7875C26.3075 29.3332 29.3341 26.1598 29.3341 21.4532V10.5598C29.3341 5.83984 26.3075 2.6665 21.7875 2.6665" fill="#688F8F" opacity="0.4"></path>
<path d="M14.4182 20.3309C14.1196 20.3309 13.8209 20.2176 13.5929 19.9896L10.4289 16.8256C9.97291 16.3696 9.97291 15.6309 10.4289 15.1763C10.8849 14.7203 11.6222 14.7189 12.0782 15.1749L14.4182 17.5149L19.9222 12.0109C20.3782 11.5549 21.1156 11.5549 21.5716 12.0109C22.0276 12.4669 22.0276 13.2056 21.5716 13.6616L15.2436 19.9896C15.0156 20.2176 14.7169 20.3309 14.4182 20.3309" fill="#688F8F"></path>
</svg>