<svg fill="none" viewbox="0 0 88 28" width="100%" xmlns="http://www.w3.org/2000/svg">
<path d="M60.8486 6.53585C60.8236 6.53396 60.8037 6.51406 60.8018 6.48902C60.7008 5.156 61.1594 3.80198 62.1775 2.78373C63.1831 1.77805 64.5494 1.30713 65.8826 1.40787C65.9076 1.40976 65.9275 1.42966 65.9294 1.4547C66.0304 2.78772 65.5718 4.14174 64.5536 5.15999C63.5355 6.17823 62.1815 6.63685 60.8486 6.53585Z" fill="#9FE29E"></path>
<path d="M60.8486 6.53585C60.8236 6.53396 60.8037 6.51406 60.8018 6.48902C60.7008 5.156 61.1594 3.80198 62.1775 2.78373C63.1831 1.77805 64.5494 1.30713 65.8826 1.40787C65.9076 1.40976 65.9275 1.42966 65.9294 1.4547C66.0304 2.78772 65.5718 4.14174 64.5536 5.15999C63.5355 6.17823 62.1815 6.63685 60.8486 6.53585Z" stroke="#9FE29E"></path>
<path d="M3.10658 20.6754L3.10664 20.6754C4.71161 22.3127 7.04449 23.1304 10.1031 23.1304C11.0246 23.1304 11.8909 23.0364 12.7021 22.8484C13.5318 22.6602 14.288 22.3592 14.9705 21.9452C15.6443 21.5365 16.2282 21.0087 16.7221 20.3617L16.9947 22.7809C16.9954 22.7874 17.0009 22.7923 17.0075 22.7923H18.996C19.0031 22.7923 19.0089 22.7866 19.0089 22.7795V12.6085C19.0089 12.6014 19.0031 12.5956 18.996 12.5956H9.66122C9.6541 12.5956 9.64833 12.6014 9.64833 12.6085V14.8906C9.64833 14.8978 9.6541 14.9035 9.66122 14.9035H16.3318V15.2287C16.3318 16.4857 16.1019 17.5258 15.643 18.3498L15.6429 18.35C15.2025 19.1737 14.5235 19.7917 13.6053 20.2038C12.6869 20.5973 11.5197 20.7944 10.1031 20.7944C8.70535 20.7944 7.51068 20.5505 6.51865 20.0632C5.52715 19.5575 4.76498 18.7614 4.23216 17.6743C3.71775 16.5872 3.46014 15.1712 3.46014 13.4256V12.8339C3.46014 11.5389 3.61653 10.4227 3.92898 9.48524C4.24147 8.54763 4.69163 7.77932 5.27922 7.1799C5.86683 6.58044 6.59225 6.14009 7.4558 5.85893C8.31962 5.57769 9.30327 5.43695 10.4069 5.43695C11.2161 5.43695 11.9792 5.52138 12.6962 5.69018L12.6965 5.69025C13.4131 5.8402 14.0374 6.10252 14.5697 6.47706L14.5699 6.47717C15.1204 6.85157 15.5424 7.3382 15.836 7.93725L15.8361 7.9374C16.1295 8.51745 16.2766 9.21971 16.2766 10.0447C16.2766 10.0518 16.2823 10.0575 16.2895 10.0575H18.9684C18.9755 10.0575 18.9812 10.0518 18.9812 10.0447C18.9812 8.85986 18.7693 7.8342 18.3448 6.96808C17.9388 6.1022 17.3483 5.38682 16.5734 4.82209C15.817 4.2387 14.9133 3.80604 13.8624 3.52394C12.8117 3.24185 11.6414 3.10088 10.3517 3.10088C8.28804 3.10088 6.53678 3.47681 5.09839 4.22929C3.65977 4.96312 2.57154 6.07335 1.83388 7.55959C1.09628 9.04571 0.727836 10.8979 0.727836 13.1157C0.727836 16.5171 1.51991 19.0379 3.10658 20.6754Z" fill="currentColor" stroke="currentColor" stroke-linejoin="round" stroke-width="0.0257737"></path>
<path d="M21.8822 26.9281C21.8822 26.9344 21.8867 26.9398 21.8929 26.9408C21.9878 26.957 22.0825 26.9737 22.177 26.9903C22.6781 27.0788 23.1748 27.1664 23.6902 27.1664C24.465 27.1664 25.139 27.0253 25.7118 26.7425C26.6692 26.3014 27.3971 25.4919 27.926 24.5881L27.9261 24.5881L27.9265 24.5873C28.2582 23.9105 28.5622 23.1681 28.8385 22.36L28.8263 22.3558L28.8385 22.36L33.7544 7.9629C33.7558 7.95897 33.7551 7.95463 33.7527 7.95124C33.7503 7.94786 33.7464 7.94585 33.7422 7.94585H31.2843C31.2787 7.94585 31.2737 7.94947 31.272 7.9548L28.814 15.6182L28.814 15.6182L28.8138 15.6189C28.7403 15.9002 28.6391 16.2286 28.5103 16.6041L28.5102 16.6045C28.3997 16.9613 28.2801 17.3464 28.1512 17.7596L28.1511 17.7599C28.0406 18.1543 27.9302 18.5393 27.8197 18.9149C27.7104 19.2866 27.6191 19.6217 27.5458 19.9199H27.4001C27.2898 19.5086 27.1433 19.0326 26.9606 18.492C26.7949 17.9473 26.6199 17.4213 26.4358 16.9141C26.2701 16.3881 26.1228 15.9467 25.9938 15.5896L25.9937 15.5894L23.0939 7.95416C23.092 7.94916 23.0872 7.94585 23.0818 7.94585H20.541C20.5368 7.94585 20.5328 7.94794 20.5304 7.95142C20.528 7.95491 20.5275 7.95936 20.529 7.96332L26.1613 22.7788L26.152 22.8075C26.0307 23.1788 25.9795 23.3355 25.9155 23.4525C25.868 23.5394 25.8136 23.6042 25.7173 23.7188C25.6803 23.7629 25.6372 23.8143 25.5858 23.8771C25.2185 24.3267 24.8242 24.6446 24.403 24.8314C23.9811 25.0186 23.5502 25.1121 23.1102 25.1121H21.895C21.8879 25.1121 21.8822 25.1178 21.8822 25.125V26.9281Z" fill="currentColor" stroke="currentColor" stroke-linejoin="round" stroke-width="0.0257737"></path>
<path d="M35.1639 22.7799C35.1639 22.787 35.1696 22.7928 35.1768 22.7928H37.6071C37.6142 22.7928 37.62 22.787 37.62 22.7799V14.074C37.62 13.193 37.7945 12.4345 38.1431 11.7982C38.5102 11.1615 38.9965 10.6749 39.6018 10.3381C40.2076 10.001 40.8498 9.83256 41.5288 9.83256C41.9883 9.83256 42.4014 9.87943 42.7684 9.97303L42.7686 9.97306C43.1535 10.0666 43.4738 10.2254 43.7297 10.4492L43.7297 10.4492L43.7301 10.4495C44.0042 10.6732 44.2147 10.9811 44.3614 11.3738L44.3613 11.3738L44.3615 11.3742C44.5264 11.7666 44.6091 12.2718 44.6091 12.8907V22.7799C44.6091 22.787 44.6149 22.7928 44.622 22.7928H47.0523C47.0595 22.7928 47.0652 22.787 47.0652 22.7799V12.5526C47.0652 11.3305 46.8625 10.3608 46.456 9.64437C46.0681 8.92839 45.523 8.40986 44.8207 8.08934C44.1375 7.76909 43.3346 7.60918 42.4126 7.60918C41.7302 7.60918 41.0845 7.70325 40.4757 7.89146C39.885 8.06096 39.3405 8.33402 38.8421 8.71059L38.8421 8.71059L38.8419 8.71073C38.3635 9.08618 37.9312 9.5737 37.5448 10.173H37.3702L37.1504 7.95889C37.1498 7.9523 37.1442 7.94728 37.1376 7.94728H35.1768C35.1696 7.94728 35.1639 7.95305 35.1639 7.96016V22.7799Z" fill="currentColor" stroke="currentColor" stroke-linejoin="round" stroke-width="0.0257737"></path>
<path d="M57.7294 7.10014L57.7293 7.10012L57.7287 7.10005L57.7264 7.09975L57.7173 7.09857L57.6821 7.09412C57.6516 7.09028 57.6074 7.08479 57.5524 7.07822C57.4424 7.06506 57.2896 7.04752 57.1181 7.02997C56.7753 6.9949 56.3574 6.95977 56.0587 6.95977C54.7657 6.95977 53.651 7.17039 52.7448 7.58213L52.7448 7.58215C51.8487 7.99383 51.1809 8.55646 50.7323 9.27028L50.7323 9.27028L50.7322 9.2705C50.3036 9.98417 50.0944 10.8081 50.0944 11.7419C50.0944 12.5355 50.2738 13.259 50.6225 13.9122L50.6225 13.9122L50.6227 13.9125C50.9864 14.547 51.4859 15.064 52.1017 15.4732C51.427 15.6261 50.8583 15.9255 50.3768 16.3715L50.3766 16.3717C49.907 16.825 49.6772 17.3795 49.6772 18.0342C49.6772 18.5175 49.807 18.9708 50.0666 19.3836L50.0668 19.3839C50.3216 19.7694 50.6727 20.0772 51.129 20.2978C50.5122 20.5594 49.973 20.9577 49.5114 21.4925L49.5112 21.4927C49.0619 22.0365 48.8426 22.7209 48.8426 23.5449C48.8426 24.2884 49.0219 24.9422 49.3712 25.4856L49.3713 25.4858C49.7302 26.0287 50.1989 26.441 50.7971 26.7226C51.3916 27.0223 52.0352 27.173 52.7376 27.1748C52.7389 27.1805 52.744 27.1848 52.7502 27.1848H58.7313C59.6769 27.1848 60.5037 26.9841 61.2113 26.5922C61.9385 26.2204 62.4966 25.6978 62.8854 25.0445C63.294 24.4012 63.5033 23.6774 63.5033 22.8736C63.5033 21.7485 63.1545 20.8334 62.4664 20.1194C61.7782 19.3851 60.8905 19.0232 59.8143 19.0232H53.8629C53.3684 19.0232 52.9638 18.9036 52.6484 18.685C52.3336 18.4468 52.1769 18.14 52.1769 17.7737C52.1769 17.3466 52.334 17.0506 52.6475 16.8629L52.6475 16.8629L52.648 16.8626C52.9632 16.654 53.3678 16.5541 53.8629 16.5541H56.1481C57.4609 16.5541 58.5557 16.3435 59.4323 15.9317C60.3085 15.52 60.9564 14.9573 61.3851 14.2434C61.8336 13.5098 62.0527 12.6758 62.0527 11.7419C62.0527 11.0891 61.9332 10.4762 61.694 9.91343C61.4648 9.35067 61.126 8.84823 60.6578 8.39617L60.6578 8.39616L60.6574 8.39579C60.0445 7.85314 59.3125 7.52931 58.734 7.34114C58.4447 7.24703 58.1937 7.1868 58.015 7.15009C57.9256 7.13173 57.8543 7.11925 57.8053 7.11136C57.7807 7.10741 57.7618 7.10461 57.749 7.1028L57.7344 7.10079L57.7307 7.1003L57.7297 7.10018L57.7295 7.10015L57.7295 7.10015L57.7294 7.10014L57.7294 7.10014ZM59.8682 24.9861L59.8678 24.9863C59.5122 25.1756 59.1268 25.2654 58.7015 25.2654H53.4456C52.8525 25.2654 52.3589 25.0761 51.9541 24.7076C51.5497 24.3396 51.3423 23.8522 51.3423 23.2343C51.3423 22.6566 51.5495 22.169 51.9543 21.7807L51.9545 21.7805C52.3595 21.3722 52.8529 21.1631 53.4456 21.1631H59.0691C59.6222 21.1631 60.0858 21.3522 60.4509 21.7204C60.8157 22.0882 61.0036 22.5957 61.0036 23.2243C61.0036 23.6025 60.9049 23.9408 60.6976 24.2593C60.4903 24.5778 60.214 24.8168 59.8682 24.9861ZM58.7226 13.8866C58.1497 14.4045 57.2692 14.6648 56.0885 14.6648C55.2948 14.6648 54.6312 14.5447 54.1168 14.3053C53.5922 14.0557 53.2069 13.7168 52.9501 13.2685C52.693 12.8198 52.5643 12.311 52.5643 11.7319C52.5643 10.8332 52.8513 10.1256 53.4244 9.60739C54.0172 9.08929 54.9078 8.82913 56.0885 8.82913C57.2692 8.82913 58.1497 9.08934 58.7226 9.60732C59.2958 10.1255 59.5828 10.8132 59.5828 11.7319C59.5828 12.6508 59.2957 13.3684 58.7226 13.8866Z" fill="currentColor" stroke="currentColor" stroke-linejoin="round" stroke-width="0.0257737"></path>
<path d="M67.4245 22.3121L67.4248 22.3122C68.4213 22.8582 69.6388 23.1308 71.0765 23.1308C72.0718 23.1308 72.957 22.9992 73.7319 22.7357C74.5066 22.4723 75.1617 22.1052 75.6971 21.6344C76.2325 21.1635 76.6387 20.5984 76.9157 19.9392L76.9157 19.9391C77.1925 19.2614 77.3401 18.5273 77.3586 17.737C77.3586 17.7335 77.3573 17.7301 77.3549 17.7277C77.3525 17.7252 77.3491 17.7238 77.3457 17.7238H74.9706C74.9636 17.7238 74.9579 17.7293 74.9577 17.7362C74.9393 18.2232 74.8475 18.6725 74.6824 19.0842C74.5174 19.4956 74.27 19.8509 73.94 20.1501L73.9398 20.1504C73.6283 20.4494 73.2342 20.6833 72.757 20.8518C72.2983 21.0015 71.7567 21.0765 71.1317 21.0765C70.2127 21.0765 69.451 20.9078 68.8458 20.5711C68.2411 20.2159 67.7826 19.6642 67.4705 18.9152C67.1778 18.1498 67.0124 17.1791 66.9747 16.0027H77.4009C77.408 16.0027 77.4138 15.997 77.4138 15.9899V14.8065C77.4138 13.2089 77.1743 11.8827 76.6946 10.8287C76.2334 9.7559 75.5412 8.95541 74.618 8.42798C73.695 7.88186 72.5511 7.60918 71.1869 7.60918C69.6941 7.60918 68.449 7.8912 67.4523 8.45604C66.4554 9.00224 65.6987 9.84971 65.1822 10.9977L65.1821 10.9978C64.684 12.127 64.4354 13.5846 64.4354 15.37C64.4354 17.1367 64.684 18.5943 65.1821 19.7422L65.1822 19.7423C65.6987 20.8903 66.4461 21.7471 67.4245 22.3121ZM73.8012 10.6737L73.8014 10.6739C74.1496 11.0291 74.4157 11.4875 74.5993 12.0494C74.7819 12.6083 74.8739 13.2975 74.8748 14.1175H67.0305C67.1048 13.0917 67.2976 12.2527 67.6083 11.6002C67.9202 10.945 68.3695 10.4588 68.9561 10.1409C69.5429 9.82287 70.2587 9.66351 71.1041 9.66351C71.6736 9.66351 72.1783 9.74785 72.6185 9.91623L72.6185 9.91624L72.6191 9.91644C73.0773 10.066 73.4712 10.3184 73.8012 10.6737Z" fill="currentColor" stroke="currentColor" stroke-linejoin="round" stroke-width="0.0257737"></path>
<path d="M79.7137 22.7799C79.7137 22.787 79.7194 22.7928 79.7266 22.7928H82.1569C82.164 22.7928 82.1698 22.787 82.1698 22.7799V14.5248C82.1698 13.9059 82.2341 13.3247 82.3627 12.7811C82.5097 12.2379 82.7299 11.7699 83.0234 11.377C83.3167 10.9842 83.6833 10.6851 84.1232 10.4794L84.1234 10.4793C84.5816 10.2549 85.1227 10.1425 85.7472 10.1425H86.6586C86.6657 10.1425 86.6715 10.1367 86.6715 10.1296V7.84747H86.687L86.6644 7.83599C86.5522 7.77873 86.3758 7.73156 86.1365 7.69396C85.9144 7.63739 85.665 7.60918 85.3882 7.60918C84.742 7.60918 84.1963 7.75045 83.752 8.03371C83.3084 8.29771 82.9571 8.64664 82.6983 9.08042C82.4416 9.4919 82.2396 9.93125 82.0922 10.3984H81.9201L81.7002 7.95901C81.6997 7.95236 81.6941 7.94728 81.6874 7.94728H79.7266C79.7194 7.94728 79.7137 7.95305 79.7137 7.96016V22.7799Z" fill="currentColor" stroke="currentColor" stroke-linejoin="round" stroke-width="0.0257737"></path>
</svg>