<svg fill="none" viewbox="0 0 134 41" width="100%" xmlns="http://www.w3.org/2000/svg">
<path clip-rule="evenodd" d="M93.9233 8.35471C93.9037 8.35313 93.8881 8.33754 93.8865 8.31792C93.7202 6.23858 94.4285 4.1233 96.0116 2.53469C97.5752 0.965719 99.7024 0.235486 101.775 0.402191C101.794 0.403769 101.81 0.419358 101.811 0.438978C101.978 2.51831 101.269 4.63359 99.6863 6.2222C98.1033 7.81079 95.9954 8.52162 93.9233 8.35471Z" fill="#9FE29E" fill-rule="evenodd"></path>
<path d="M15.4794 34.0888C10.7527 34.0888 7.15065 32.8208 4.67338 30.285C2.22458 27.7492 1.00018 23.8434 1.00018 18.5677C1.00018 15.1282 1.56967 12.2572 2.70864 9.95455C3.84762 7.65189 5.52761 5.93218 7.74861 4.79542C9.96962 3.62952 12.6747 3.04657 15.8638 3.04657C17.857 3.04657 19.6651 3.26517 21.2882 3.70239C22.9112 4.1396 24.3065 4.81 25.4739 5.71357C26.6699 6.588 27.581 7.69561 28.2075 9.0364C28.8624 10.3772 29.1898 11.9657 29.1898 13.802H25.0468C25.0468 12.5195 24.819 11.4265 24.3634 10.5229C23.9078 9.5902 23.2529 8.83237 22.3987 8.24941C21.5729 7.66646 20.6048 7.25839 19.4943 7.02521C18.3838 6.76288 17.2021 6.63172 15.9492 6.63172C14.2408 6.63172 12.7174 6.85033 11.3791 7.28754C10.0408 7.72476 8.91606 8.40973 8.00488 9.34245C7.0937 10.2752 6.39608 11.4702 5.91201 12.9276C5.42795 14.385 5.18592 16.1193 5.18592 18.1305V19.0486C5.18592 21.7593 5.58456 23.96 6.38184 25.6505C7.2076 27.3411 8.38929 28.5799 9.9269 29.3669C11.4645 30.1247 13.3154 30.5036 15.4794 30.5036C17.6719 30.5036 19.4801 30.1976 20.9038 29.5855C22.3275 28.9442 23.3811 27.9823 24.0644 26.6999C24.7763 25.4174 25.1322 23.7997 25.1322 21.8468V21.3221H14.796V17.7807H29.2325V33.5641H26.1573L25.7302 29.7604C24.9614 30.7805 24.0502 31.6112 22.9967 32.2525C21.9431 32.8937 20.7757 33.3601 19.4943 33.6516C18.2414 33.943 16.9031 34.0888 15.4794 34.0888Z" fill="white"></path>
<path d="M36.4919 40.3531C35.5467 40.3531 34.6425 40.1615 33.7156 40.0033V37.2051H35.5949C36.2783 37.2051 36.9475 37.0594 37.6024 36.7679C38.2573 36.4765 38.8695 35.9809 39.439 35.2814C40.0085 34.5819 39.9361 34.788 40.3348 33.5638L31.6216 10.5663H35.5511L40.0358 22.4148C40.2351 22.9686 40.4629 23.6536 40.7192 24.4697C41.0039 25.2567 41.2744 26.0729 41.5307 26.9181C41.8154 27.7634 42.0432 28.5067 42.2141 29.1479H42.4703C42.5842 28.6816 42.7266 28.1569 42.8975 27.574C43.0683 26.991 43.2391 26.3935 43.41 25.7814C43.6093 25.1401 43.7944 24.5426 43.9652 23.9888C44.1646 23.4058 44.3212 22.8958 44.4351 22.4585L48.2364 10.5663H52.0377L44.4351 32.908C44.008 34.1613 43.5381 35.3127 43.0256 36.362C42.2088 37.7623 41.0856 39.015 39.6098 39.6973C38.7271 40.1345 37.6878 40.3531 36.4919 40.3531Z" fill="white"></path>
<path d="M54.2547 33.5649V10.5675H57.2872L57.6289 14.0214H57.9279C58.5259 13.0887 59.195 12.3309 59.9354 11.7479C60.7042 11.165 61.5442 10.7423 62.4553 10.48C63.395 10.1885 64.3916 10.0428 65.4452 10.0428C66.8689 10.0428 68.1075 10.2905 69.1611 10.7861C70.2431 11.2816 71.0831 12.0831 71.681 13.1907C72.3075 14.2983 72.6207 15.7994 72.6207 17.694V33.5649H68.8621V18.2187C68.8621 17.2568 68.7339 16.4698 68.4777 15.8577C68.2499 15.2456 67.9224 14.7647 67.4953 14.4149C67.0967 14.0652 66.5984 13.8174 66.0004 13.6717C65.4309 13.5259 64.7902 13.4531 64.0784 13.4531C63.0248 13.4531 62.0282 13.7154 61.0886 14.2401C60.1489 14.7647 59.3943 15.5225 58.8249 16.5136C58.2838 17.5046 58.0133 18.6851 58.0133 20.055V33.5649H54.2547Z" fill="white"></path>
<path d="M81.4321 40.3639C80.3412 40.3639 79.3424 40.1307 78.4205 39.6643C77.4986 39.2289 76.7764 38.5914 76.2232 37.7518C75.6854 36.9122 75.4089 35.9015 75.4089 34.751C75.4089 33.476 75.7469 32.4187 76.4383 31.5791C77.1605 30.7395 78.0056 30.1175 78.9736 29.7133C78.2515 29.3712 77.6983 28.8892 77.2988 28.2828C76.8993 27.6453 76.6996 26.9457 76.6996 26.1993C76.6996 25.1887 77.053 24.3335 77.7751 23.6339C78.528 22.9342 79.4192 22.4677 80.4795 22.2345C79.5114 21.597 78.7278 20.7885 78.1593 19.7934C77.6215 18.7828 77.3449 17.6633 77.3449 16.4349C77.3449 14.9889 77.6676 13.714 78.3283 12.61C79.0197 11.5061 80.0492 10.6354 81.4321 9.9979C82.8304 9.36042 84.5513 9.0339 86.5488 9.0339C87.4708 9.0339 89.1302 9.25158 89.1302 9.25158C89.1302 9.25158 91.7577 9.5781 93.6477 11.2573C94.3699 11.957 94.8923 12.7344 95.2457 13.6051C95.6145 14.4758 95.7989 15.4243 95.7989 16.4349C95.7989 17.8809 95.4608 19.1715 94.7694 20.3065C94.1086 21.4104 93.1099 22.2811 91.7577 22.9186C90.4056 23.5561 88.7154 23.8826 86.6871 23.8826H83.1531C82.3848 23.8826 81.7548 24.0381 81.2631 24.3646C80.7714 24.66 80.5256 25.1265 80.5256 25.7951C80.5256 26.3704 80.7714 26.8524 81.2631 27.2255C81.7548 27.5676 82.3848 27.7542 83.1531 27.7542H92.357C94.0165 27.7542 95.384 28.3139 96.4442 29.449C97.5044 30.5529 98.0422 31.9678 98.0422 33.7092C98.0422 34.9531 97.7195 36.0726 97.0896 37.0677C96.4903 38.0783 95.6298 38.8868 94.5081 39.4621C93.4172 40.0685 92.1419 40.3795 90.6821 40.3795H81.4321V40.3639ZM82.5077 37.4408H90.636C91.2968 37.4408 91.896 37.3009 92.4492 37.0055C92.987 36.7412 93.4172 36.368 93.7399 35.8704C94.0626 35.3729 94.2162 34.8443 94.2162 34.2534C94.2162 33.2739 93.9243 32.4809 93.3557 31.9056C92.7872 31.3303 92.065 31.0349 91.2046 31.0349H82.5077C81.5858 31.0349 80.8175 31.3614 80.1875 31.9989C79.5575 32.6053 79.2349 33.3671 79.2349 34.269C79.2349 35.233 79.5575 35.9948 80.1875 36.5701C80.8175 37.1454 81.5858 37.4408 82.5077 37.4408ZM86.5949 20.9906C88.4234 20.9906 89.7909 20.5864 90.6821 19.7778C91.5733 18.9693 92.0189 17.8498 92.0189 16.4194C92.0189 14.9889 91.5733 13.9161 90.6821 13.1076C89.7909 12.2991 88.4234 11.8948 86.5949 11.8948C84.7664 11.8948 83.3835 12.2991 82.4616 13.1076C81.5704 13.9161 81.1248 15.02 81.1248 16.4194C81.1248 17.3212 81.3246 18.1142 81.7241 18.8138C82.1236 19.5135 82.7228 20.0422 83.5372 20.4309C84.3362 20.804 85.3657 20.9906 86.5949 20.9906Z" fill="white"></path>
<path d="M109.773 34.0896C107.552 34.0896 105.673 33.6669 104.135 32.8216C102.626 31.9472 101.473 30.621 100.676 28.843C99.9069 27.065 99.5225 24.8061 99.5225 22.0662C99.5225 19.2972 99.9069 17.0382 100.676 15.2894C101.473 13.5114 102.64 12.1997 104.178 11.3544C105.716 10.48 107.638 10.0428 109.944 10.0428C112.051 10.0428 113.817 10.4654 115.24 11.3107C116.664 12.1268 117.732 13.3656 118.444 15.027C119.184 16.6593 119.554 18.7142 119.554 21.1918V23.0281H103.409C103.466 24.8644 103.723 26.38 104.178 27.5751C104.662 28.741 105.374 29.6008 106.314 30.1546C107.253 30.6793 108.435 30.9416 109.859 30.9416C110.827 30.9416 111.667 30.825 112.379 30.5919C113.119 30.3295 113.731 29.9652 114.215 29.4988C114.728 29.0325 115.112 28.4787 115.369 27.8374C115.625 27.1962 115.767 26.4966 115.796 25.7388H119.469C119.44 26.963 119.213 28.0997 118.785 29.1491C118.358 30.1692 117.732 31.0436 116.906 31.7723C116.08 32.501 115.07 33.0694 113.874 33.4775C112.678 33.8855 111.311 34.0896 109.773 34.0896ZM103.495 20.1424H115.668C115.668 18.8599 115.525 17.7815 115.24 16.9071C114.956 16.0326 114.543 15.3185 114.002 14.7647C113.489 14.2109 112.877 13.8174 112.165 13.5842C111.482 13.3219 110.699 13.1907 109.816 13.1907C108.506 13.1907 107.396 13.4385 106.485 13.934C105.573 14.4295 104.876 15.1873 104.392 16.2075C103.908 17.2277 103.609 18.5393 103.495 20.1424Z" fill="white"></path>
<path d="M123.153 33.5649V10.5675H126.186L126.527 14.3712H126.826C127.054 13.6425 127.367 12.9576 127.766 12.3163C128.165 11.6459 128.706 11.1067 129.389 10.6986C130.072 10.2614 130.912 10.0428 131.909 10.0428C132.336 10.0428 132.721 10.0865 133.062 10.174C133.432 10.2323 133.703 10.3051 133.874 10.3926V13.934H132.464C131.496 13.934 130.656 14.1089 129.944 14.4587C129.261 14.7793 128.691 15.2456 128.236 15.8577C127.78 16.4698 127.438 17.1985 127.211 18.0438C127.011 18.8891 126.912 19.7927 126.912 20.7545V33.5649H123.153Z" fill="white"></path>
<path clip-rule="evenodd" d="M4.65885 30.299C2.20496 27.7579 0.97998 23.8461 0.97998 18.5677C0.97998 15.1261 1.5498 12.2518 2.69054 9.94559C3.83136 7.6392 5.51438 5.91628 7.73932 4.77749C9.96388 3.60974 12.6723 3.02637 15.8638 3.02637C17.8585 3.02637 19.6684 3.24513 21.2934 3.68288C22.9186 4.12067 24.3163 4.7921 25.4861 5.69745C26.6846 6.57382 27.5979 7.68398 28.2257 9.02769C28.8822 10.3718 29.21 11.9634 29.21 13.802C29.21 13.8132 29.201 13.8222 29.1898 13.8222H25.0468C25.0357 13.8222 25.0266 13.8132 25.0266 13.802C25.0266 12.5219 24.7992 11.4321 24.3454 10.532C23.8913 9.60243 23.2386 8.84707 22.3873 8.2661C21.5641 7.68491 20.5983 7.27766 19.4902 7.04498C18.3813 6.78304 17.2007 6.65192 15.9492 6.65192C14.2425 6.65192 12.7213 6.87031 11.3854 7.30674C10.0499 7.74303 8.92806 8.42635 8.01933 9.35656C7.11064 10.2867 6.41445 11.479 5.93118 12.934C5.44797 14.3888 5.20611 16.1208 5.20611 18.1305V19.0486C5.20611 21.7575 5.60451 23.9549 6.40004 25.6418C7.22404 27.3287 8.4027 28.564 9.93598 29.3488C11.4702 30.1049 13.3177 30.4834 15.4794 30.4834C17.6702 30.4834 19.4753 30.1776 20.8956 29.567C22.3155 28.9274 23.3655 27.9686 24.0466 26.6904C24.7564 25.4117 25.112 23.7973 25.112 21.8468V21.3423H14.796C14.7849 21.3423 14.7758 21.3333 14.7758 21.3221V17.7807C14.7758 17.7695 14.7849 17.7605 14.796 17.7605H29.2325C29.2437 17.7605 29.2527 17.7695 29.2527 17.7807V33.5641C29.2527 33.5753 29.2437 33.5843 29.2325 33.5843H26.1573C26.147 33.5843 26.1384 33.5766 26.1372 33.5664L25.7158 29.8129C24.9519 30.8166 24.049 31.6356 23.0072 32.2697C21.9516 32.9122 20.7821 33.3793 19.4988 33.6713C18.2443 33.9631 16.9045 34.109 15.4794 34.109C10.7491 34.109 7.14106 32.8399 4.65885 30.299ZM19.4943 33.6516C20.7757 33.3601 21.9431 32.8937 22.9967 32.2525C24.0421 31.6161 24.9474 30.7932 25.7125 29.7838C25.7184 29.776 25.7243 29.7682 25.7302 29.7604L26.1573 33.5641H29.2325V17.7807H14.796V21.3221H25.1322V21.8468C25.1322 23.7997 24.7763 25.4174 24.0644 26.6999C23.3811 27.9823 22.3275 28.9442 20.9038 29.5855C19.4801 30.1976 17.6719 30.5036 15.4794 30.5036C13.3154 30.5036 11.4645 30.1247 9.9269 29.3669C8.38929 28.5799 7.2076 27.3411 6.38184 25.6505C5.58456 23.96 5.18592 21.7593 5.18592 19.0486V18.1305C5.18592 16.1193 5.42795 14.385 5.91201 12.9276C6.39608 11.4702 7.0937 10.2752 8.00488 9.34245C8.91606 8.40973 10.0408 7.72476 11.3791 7.28754C12.7174 6.85033 14.2408 6.63172 15.9492 6.63172C17.2021 6.63172 18.3838 6.76288 19.4943 7.02521C20.6048 7.25839 21.5729 7.66646 22.3987 8.24941C23.2529 8.83237 23.9078 9.5902 24.3634 10.5229C24.819 11.4265 25.0468 12.5195 25.0468 13.802H29.1898C29.1898 13.7953 29.1898 13.7886 29.1898 13.7818C29.1874 11.9541 28.86 10.3723 28.2075 9.0364C27.581 7.69561 26.6699 6.588 25.4739 5.71357C24.3065 4.81 22.9112 4.1396 21.2882 3.70239C19.6651 3.26517 17.857 3.04657 15.8638 3.04657C12.6747 3.04657 9.96962 3.62952 7.74861 4.79542C5.52761 5.93218 3.84762 7.65189 2.70864 9.95455C1.56967 12.2572 1.00018 15.1282 1.00018 18.5677C1.00018 23.8434 2.22458 27.7492 4.67338 30.285C7.15065 32.8208 10.7527 34.0888 15.4794 34.0888C16.9031 34.0888 18.2414 33.943 19.4943 33.6516ZM33.7122 40.0232C33.7025 40.0216 33.6954 40.0132 33.6954 40.0033V37.2051C33.6954 37.194 33.7045 37.1849 33.7156 37.1849H35.5949C36.2754 37.1849 36.9417 37.0399 37.5942 36.7495C38.2455 36.4596 38.8553 35.9664 39.4233 35.2687C39.5027 35.1711 39.5695 35.0913 39.6267 35.023C39.7757 34.845 39.8597 34.7446 39.9332 34.6097C40.0321 34.4281 40.1113 34.185 40.2989 33.6088L40.3133 33.5643L31.6027 10.5735C31.6003 10.5673 31.6012 10.5603 31.605 10.5548C31.6087 10.5494 31.615 10.5461 31.6216 10.5461H35.5511C35.5595 10.5461 35.567 10.5513 35.5699 10.5592L40.0547 22.4077C40.2541 22.9617 40.482 23.6472 40.7383 24.4633C41.0231 25.2504 41.2936 26.0666 41.5499 26.9119C41.8325 27.7508 42.0591 28.4894 42.2296 29.1277H42.4545C42.5678 28.6649 42.709 28.145 42.8781 27.5683C43.0489 26.9854 43.2197 26.388 43.3905 25.7759C43.5899 25.1347 43.7751 24.5366 43.9459 23.9828C44.1452 23.4002 44.3018 22.89 44.4155 22.4535L44.4158 22.4524L48.2172 10.5602C48.2198 10.5518 48.2276 10.5461 48.2364 10.5461H52.0377C52.0443 10.5461 52.0504 10.5493 52.0542 10.5546C52.0579 10.5599 52.059 10.5667 52.0569 10.5728L44.4542 32.9145L44.4351 32.908L52.0377 10.5663H48.2364L44.4351 22.4585C44.3212 22.8958 44.1646 23.4058 43.9652 23.9888C43.7944 24.5426 43.6093 25.1401 43.41 25.7814C43.2391 26.3935 43.0683 26.991 42.8975 27.574C42.7266 28.1569 42.5842 28.6816 42.4703 29.1479H42.2141C42.0432 28.5067 41.8154 27.7634 41.5307 26.9181C41.2744 26.0729 41.0039 25.2567 40.7192 24.4697C40.4629 23.6536 40.2351 22.9686 40.0358 22.4148L35.5511 10.5663H31.6216L40.3348 33.5638L40.3169 33.6185C40.1041 34.2722 40.0303 34.4989 39.907 34.6941C39.8416 34.7977 39.7623 34.8925 39.6409 35.0375C39.584 35.1056 39.5174 35.1851 39.439 35.2814C38.8695 35.9809 38.2573 36.4765 37.6024 36.7679C36.9475 37.0594 36.2783 37.2051 35.5949 37.2051H33.7156V40.0033C33.8623 40.0283 34.0084 40.0542 34.1542 40.08L34.1555 40.0802C34.9306 40.2175 35.6967 40.3531 36.4919 40.3531C37.6878 40.3531 38.7271 40.1345 39.6098 39.6973C41.0856 39.015 42.2088 37.7623 43.0256 36.362C43.5381 35.3127 44.008 34.1613 44.4351 32.908L44.4542 32.9145C44.0268 34.1685 43.5567 35.3207 43.0437 36.3708L43.043 36.3721C42.225 37.7746 41.0992 39.0309 39.6186 39.7155C38.7326 40.1543 37.6902 40.3733 36.4919 40.3733C35.6948 40.3733 34.9266 40.2373 34.1516 40.1001C34.0054 40.0742 33.8591 40.0483 33.7122 40.0232ZM54.2547 33.5851C54.2436 33.5851 54.2345 33.5761 54.2345 33.5649V10.5675C54.2345 10.5563 54.2436 10.5473 54.2547 10.5473H57.2872C57.2976 10.5473 57.3063 10.5551 57.3073 10.5655L57.6472 14.0012H57.9169C58.5143 13.0712 59.1829 12.3147 59.9229 11.7321C60.6936 11.1477 61.536 10.7237 62.4496 10.4607C63.3912 10.1686 64.3898 10.0226 65.4452 10.0226C66.8712 10.0226 68.1129 10.2708 69.1697 10.7678C70.2558 11.2652 71.0989 12.07 71.6988 13.1811C72.3275 14.2929 72.6409 15.7977 72.6409 17.694V33.5649C72.6409 33.5761 72.6319 33.5851 72.6207 33.5851H68.8621C68.8509 33.5851 68.8419 33.5761 68.8419 33.5649V18.2187C68.8419 17.2584 68.7139 16.4743 68.459 15.8655C68.2323 15.2562 67.9064 14.7777 67.4825 14.4306C67.0867 14.0833 66.5909 13.8364 65.9956 13.6913C65.4281 13.5461 64.7889 13.4733 64.0784 13.4733C63.0284 13.4733 62.0351 13.7347 61.0984 14.2577C60.1622 14.7804 59.4102 15.5355 58.8424 16.5235C58.3035 17.5109 58.0335 18.6879 58.0335 20.055V33.5649C58.0335 33.5761 58.0245 33.5851 58.0133 33.5851H54.2547ZM58.8249 16.5136C59.3943 15.5225 60.1489 14.7647 61.0886 14.2401C62.0282 13.7154 63.0248 13.4531 64.0784 13.4531C64.7902 13.4531 65.4309 13.5259 66.0004 13.6717C66.5984 13.8174 67.0967 14.0652 67.4953 14.4149C67.9224 14.7647 68.2499 15.2456 68.4777 15.8577C68.7339 16.4698 68.8621 17.2568 68.8621 18.2187V33.5649H72.6207V17.694C72.6207 15.7994 72.3075 14.2983 71.681 13.1907C71.0831 12.0831 70.2431 11.2816 69.1611 10.7861C68.1075 10.2905 66.8689 10.0428 65.4452 10.0428C64.3916 10.0428 63.395 10.1885 62.4553 10.48C61.5442 10.7423 60.7042 11.165 59.9354 11.7479C59.195 12.3309 58.5259 13.0887 57.9279 14.0214H57.6289L57.2872 10.5675H54.2547V33.5649H58.0133V20.055C58.0133 18.6851 58.2838 17.5046 58.8249 16.5136ZM89.1328 9.23154L89.114 9.2291L89.0597 9.22219C89.0124 9.21623 88.944 9.20772 88.8589 9.19752C88.6889 9.1771 88.4525 9.14987 88.1873 9.12265C87.6572 9.06823 87.0109 9.01371 86.5488 9.01371C84.5492 9.01371 82.8253 9.34055 81.4237 9.97953C80.0378 10.6184 79.005 11.4916 78.3112 12.5993C77.6483 13.7068 77.3247 14.9858 77.3247 16.4349C77.3247 17.6664 77.602 18.7892 78.1414 19.8029C78.7039 20.7873 79.4765 21.5901 80.4288 22.2251C79.3855 22.4624 78.506 22.9271 77.7614 23.6191C77.0352 24.3226 76.6794 25.1834 76.6794 26.1993C76.6794 26.9494 76.8802 27.6528 77.2817 28.2936C77.6758 28.8918 78.2189 29.3698 78.9245 29.7121C77.9707 30.118 77.1368 30.736 76.423 31.5659C75.728 32.4098 75.3887 33.4723 75.3887 34.751C75.3887 35.9048 75.6661 36.9194 76.2062 37.7627C76.7613 38.6052 77.4863 39.2454 78.4116 39.6824C79.3308 40.1475 80.3262 40.3813 81.4125 40.3841C81.4146 40.393 81.4226 40.3997 81.4321 40.3997H90.6821C92.1447 40.3997 93.4234 40.0881 94.5177 39.4799C95.6424 38.903 96.5055 38.0921 97.1068 37.0783C97.7388 36.0799 98.0624 34.9567 98.0624 33.7092C98.0624 31.9634 97.5231 30.5433 96.459 29.4352C95.3946 28.2957 94.0215 27.734 92.357 27.734H83.1531C82.3883 27.734 81.7626 27.5483 81.2749 27.2092C80.7882 26.8396 80.5458 26.3635 80.5458 25.7951C80.5458 25.1324 80.7888 24.6731 81.2735 24.382C81.7609 24.0583 82.3874 23.9028 83.1531 23.9028H86.6871C88.7174 23.9028 90.4108 23.576 91.7663 22.9369C93.1216 22.298 94.1236 21.4247 94.7867 20.3169C95.4802 19.1784 95.819 17.8842 95.819 16.4349C95.819 15.4218 95.6342 14.4706 95.2643 13.5973C94.9098 12.724 94.3858 11.9443 93.6618 11.2428C92.7139 10.4007 91.5811 9.89755 90.6865 9.60554C90.2391 9.4595 89.8508 9.36603 89.5744 9.30905C89.4361 9.28057 89.3258 9.2612 89.25 9.24895C89.2122 9.24283 89.1829 9.23848 89.163 9.23566L89.1405 9.23255L89.1347 9.23179L89.1328 9.23154ZM95.2457 13.6051C94.8923 12.7344 94.3699 11.957 93.6477 11.2573C91.7577 9.5781 89.1302 9.25158 89.1302 9.25158C89.1302 9.25158 87.4708 9.0339 86.5488 9.0339C84.5513 9.0339 82.8304 9.36042 81.4321 9.9979C80.0492 10.6354 79.0197 11.5061 78.3283 12.61C77.6676 13.714 77.3449 14.9889 77.3449 16.4349C77.3449 17.6633 77.6215 18.7828 78.1593 19.7934C78.7232 20.7805 79.4988 21.5839 80.456 22.219C80.4638 22.2242 80.4716 22.2293 80.4795 22.2345C80.4703 22.2365 80.4612 22.2385 80.452 22.2406C79.4039 22.4758 78.5215 22.9402 77.7751 23.6339C77.053 24.3335 76.6996 25.1887 76.6996 26.1993C76.6996 26.9457 76.8993 27.6453 77.2988 28.2828C77.6938 28.8824 78.239 29.3603 78.9492 29.7016C78.9573 29.7055 78.9655 29.7094 78.9736 29.7133C78.9653 29.7168 78.957 29.7203 78.9487 29.7238C77.9911 30.1283 77.1543 30.7467 76.4383 31.5791C75.7469 32.4187 75.4089 33.476 75.4089 34.751C75.4089 35.9015 75.6854 36.9122 76.2232 37.7518C76.7764 38.5914 77.4986 39.2289 78.4205 39.6643C79.3424 40.1307 80.3412 40.3639 81.4321 40.3639V40.3795H90.6821C92.1419 40.3795 93.4172 40.0685 94.5081 39.4621C95.6298 38.8868 96.4903 38.0783 97.0896 37.0677C97.7195 36.0726 98.0422 34.9531 98.0422 33.7092C98.0422 31.9678 97.5044 30.5529 96.4442 29.449C95.384 28.3139 94.0165 27.7542 92.357 27.7542H83.1531C82.3848 27.7542 81.7548 27.5676 81.2631 27.2255C80.7714 26.8524 80.5256 26.3704 80.5256 25.7951C80.5256 25.1265 80.7714 24.66 81.2631 24.3646C81.7548 24.0381 82.3848 23.8826 83.1531 23.8826H86.6871C88.7154 23.8826 90.4056 23.5561 91.7577 22.9186C93.1099 22.2811 94.1086 21.4104 94.7694 20.3065C95.4608 19.1715 95.7989 17.8809 95.7989 16.4349C95.7989 15.4243 95.6145 14.4758 95.2457 13.6051ZM92.4403 36.9873C92.9749 36.7246 93.4023 36.3538 93.7229 35.8595C94.0434 35.3652 94.196 34.8404 94.196 34.2534C94.196 33.278 93.9054 32.4906 93.3414 31.9198C92.7768 31.3486 92.0599 31.0551 91.2046 31.0551H82.5077C81.5912 31.0551 80.8281 31.3794 80.2019 32.0131C79.5759 32.6156 79.2551 33.3725 79.2551 34.269C79.2551 35.2279 79.5758 35.9841 80.2011 36.5552C80.8272 37.1269 81.5906 37.4206 82.5077 37.4206H90.636C91.2938 37.4206 91.8903 37.2811 92.4403 36.9873ZM104.125 32.8391C102.612 31.9623 101.456 30.6327 100.657 28.8513C99.8871 27.0699 99.5023 24.8078 99.5023 22.0662C99.5023 19.2955 99.8869 17.0335 100.657 15.2812C101.456 13.4998 102.626 12.1845 104.168 11.3369C105.71 10.4603 107.635 10.0226 109.944 10.0226C112.054 10.0226 113.823 10.4458 115.251 11.2933C116.678 12.1118 117.749 13.354 118.462 15.0188C119.204 16.6544 119.574 18.7124 119.574 21.1918V23.0281C119.574 23.0392 119.565 23.0483 119.554 23.0483H103.43C103.488 24.8737 103.744 26.3799 104.197 27.5676C104.679 28.7299 105.389 29.5859 106.324 30.1371C107.259 30.6596 108.437 30.9214 109.859 30.9214C110.825 30.9214 111.663 30.805 112.372 30.5727C113.11 30.3112 113.72 29.9483 114.201 29.4843C114.712 29.02 115.095 28.4683 115.35 27.8299C115.605 27.191 115.747 26.4938 115.775 25.738C115.776 25.7272 115.785 25.7186 115.796 25.7186H119.469C119.474 25.7186 119.479 25.7208 119.483 25.7247C119.487 25.7286 119.489 25.7338 119.489 25.7393C119.461 26.9657 119.232 28.1049 118.804 29.1567C118.376 30.1796 117.748 31.0568 116.92 31.7875C116.091 32.5182 115.078 33.0878 113.88 33.4966C112.682 33.9055 111.313 34.1098 109.773 34.1098C107.55 34.1098 105.667 33.6864 104.125 32.8391ZM112.379 30.5919C111.667 30.825 110.827 30.9416 109.859 30.9416C108.435 30.9416 107.253 30.6793 106.314 30.1546C105.374 29.6008 104.662 28.741 104.178 27.5751C103.724 26.3844 103.468 24.8755 103.41 23.0483C103.41 23.0415 103.41 23.0348 103.409 23.0281H119.554V21.1918C119.554 18.7142 119.184 16.6593 118.444 15.027C117.732 13.3656 116.664 12.1268 115.24 11.3107C113.817 10.4654 112.051 10.0428 109.944 10.0428C107.638 10.0428 105.716 10.48 104.178 11.3544C102.64 12.1997 101.473 13.5114 100.676 15.2894C99.9069 17.0382 99.5225 19.2972 99.5225 22.0662C99.5225 24.8061 99.9069 27.065 100.676 28.843C101.473 30.621 102.626 31.9472 104.135 32.8216C105.673 33.6669 107.552 34.0896 109.773 34.0896C111.311 34.0896 112.678 33.8855 113.874 33.4775C115.07 33.0694 116.08 32.501 116.906 31.7723C117.732 31.0436 118.358 30.1692 118.785 29.1491C119.21 28.1055 119.438 26.9755 119.468 25.759C119.469 25.7522 119.469 25.7455 119.469 25.7388H115.796C115.767 26.4966 115.625 27.1962 115.369 27.8374C115.112 28.4787 114.728 29.0325 114.215 29.4988C113.731 29.9652 113.119 30.3295 112.379 30.5919ZM114.002 14.7647C113.489 14.2109 112.877 13.8174 112.165 13.5842C111.482 13.3219 110.699 13.1907 109.816 13.1907C108.506 13.1907 107.396 13.4385 106.485 13.934C105.573 14.4295 104.876 15.1873 104.392 16.2075C103.91 17.2234 103.611 18.5283 103.496 20.1222C103.496 20.129 103.495 20.1357 103.495 20.1424H115.668M115.647 20.1222H103.516C103.631 18.5305 103.929 17.2287 104.41 16.2162C104.892 15.1995 105.587 14.445 106.494 13.9517C107.402 13.4582 108.509 13.2109 109.816 13.2109C110.697 13.2109 111.477 13.3418 112.158 13.6031L112.159 13.6034C112.867 13.8355 113.477 14.2271 113.987 14.7784C114.525 15.3296 114.937 16.0413 115.221 16.9133C115.504 17.7805 115.646 18.85 115.647 20.1222ZM123.153 33.5851C123.142 33.5851 123.133 33.5761 123.133 33.5649V10.5675C123.133 10.5563 123.142 10.5473 123.153 10.5473H126.186C126.196 10.5473 126.205 10.5552 126.206 10.5656L126.546 14.351H126.811C127.039 13.6261 127.352 12.9444 127.749 12.306C127.749 12.3059 127.749 12.3061 127.749 12.306L127.766 12.3163M129.389 10.6986C130.072 10.2614 130.912 10.0428 131.909 10.0428C132.336 10.0428 132.721 10.0865 133.062 10.174C133.432 10.2323 133.703 10.3051 133.874 10.3926V13.934H132.464C131.496 13.934 130.656 14.1089 129.944 14.4587C129.261 14.7793 128.691 15.2456 128.236 15.8577C127.78 16.4698 127.438 17.1985 127.211 18.0438C127.011 18.8891 126.912 19.7927 126.912 20.7545V33.5649H123.153V10.5675H126.186L126.527 14.3712H126.826M127.23 18.0487C127.031 18.8922 126.932 19.7941 126.932 20.7545V33.5649C126.932 33.5761 126.923 33.5851 126.912 33.5851H123.153M127.23 18.0487C127.458 17.2056 127.798 16.4795 128.252 15.8698C128.706 15.2603 129.272 14.7961 129.953 14.4769C130.661 14.1288 131.499 13.9542 132.464 13.9542H133.874C133.885 13.9542 133.894 13.9452 133.894 13.934V10.3926C133.894 10.385 133.89 10.378 133.883 10.3746C133.709 10.2857 133.436 10.2125 133.066 10.1542C132.723 10.0664 132.337 10.0226 131.909 10.0226C130.91 10.0226 130.066 10.2417 129.379 10.6813M92.4492 37.0055C91.896 37.3009 91.2968 37.4408 90.636 37.4408H82.5077C81.5858 37.4408 80.8175 37.1454 80.1875 36.5701C79.5575 35.9948 79.2349 35.233 79.2349 34.269C79.2349 33.3671 79.5575 32.6053 80.1875 31.9989C80.8175 31.3614 81.5858 31.0349 82.5077 31.0349H91.2046C92.065 31.0349 92.7872 31.3303 93.3557 31.9056C93.9243 32.4809 94.2162 33.2739 94.2162 34.2534C94.2162 34.8443 94.0626 35.3729 93.7399 35.8704C93.4172 36.368 92.987 36.7412 92.4492 37.0055ZM86.5949 20.9704C88.421 20.9704 89.7826 20.5666 90.6686 19.7629C91.5548 18.9589 91.9987 17.8453 91.9987 16.4194C91.9987 14.9937 91.5549 13.9266 90.6686 13.1225C89.7826 12.3188 88.421 11.915 86.5949 11.915C84.769 11.915 83.3918 12.3187 82.475 13.1227C81.5888 13.9268 81.145 15.0248 81.145 16.4194C81.145 17.3181 81.344 18.1075 81.7416 18.8038C82.1388 19.4994 82.7346 20.0254 83.5457 20.4126C84.3412 20.7841 85.3675 20.9704 86.5949 20.9704ZM83.5372 20.4309C82.7228 20.0422 82.1236 19.5135 81.7241 18.8138C81.3246 18.1142 81.1248 17.3212 81.1248 16.4194C81.1248 15.02 81.5704 13.9161 82.4616 13.1076C83.3835 12.2991 84.7664 11.8948 86.5949 11.8948C88.4234 11.8948 89.7909 12.2991 90.6821 13.1076C91.5733 13.9161 92.0189 14.9889 92.0189 16.4194C92.0189 17.8498 91.5733 18.9693 90.6821 19.7778C89.7909 20.5864 88.4234 20.9906 86.5949 20.9906C85.3657 20.9906 84.3362 20.804 83.5372 20.4309ZM115.24 16.9071C114.956 16.0326 114.543 15.3185 114.002 14.7647ZM115.24 16.9071C115.524 17.7769 115.666 18.8486 115.668 20.1222Z" fill="white" fill-rule="evenodd"></path>
</svg>