<svg fill="none" height="100%" viewbox="0 0 24 24" width="100%" xmlns="http://www.w3.org/2000/svg">
<rect fill="#0F4C4A" height="24" rx="4.8" width="24" x="6.10352e-05"></rect>
<path d="M12.0001 12V4.5C16.1423 4.5 19.5001 7.85775 19.5001 12H12.0001Z" fill="white" opacity="0.35"></path>
<path d="M12.0001 12L15.7501 18.495C16.8897 17.8362 17.836 16.8893 18.4942 15.7493C19.1524 14.6093 19.4993 13.3163 19.5001 12H12.0001Z" fill="white" opacity="0.7"></path>
<path d="M15.75 18.495L12 12V4.5C7.85776 4.5015 4.50076 7.86 4.50226 12.0023C4.50376 16.1445 7.86226 19.5015 12.0053 19.5C13.3199 19.4995 14.6113 19.1534 15.75 18.4965L15.7523 18.4928L15.75 18.495Z" fill="white"></path>
</svg>